<svg width="117" height="41" viewBox="0 0 117 41" fill="none" xmlns="http://www.w3.org/2000/svg">
<g clip-path="url(#clip0_36_5151)">
<path fill-rule="evenodd" clip-rule="evenodd" d="M7.78873 40.2276C2.60681 40.2276 0.395508 38.0219 0.395508 32.8525V8.43776C0.395508 5.98127 0.624886 4.08409 1.74466 2.81065C2.83393 1.5711 4.70059 1.01855 7.79551 1.01855H108.406C113.572 1.01855 115.876 3.30669 115.876 8.43776V32.8457C115.876 35.4445 115.287 37.2864 114.075 38.4751C112.872 39.6536 111.019 40.2276 108.407 40.2276H7.78873Z" fill="white" fill-opacity="0.1"/>
<path fill-rule="evenodd" clip-rule="evenodd" d="M30.6927 25.328C30.1153 26.6082 29.8384 27.18 29.0949 28.3111C28.0565 29.8907 26.5943 31.858 24.7819 31.8749C23.1717 31.8896 22.7582 30.8263 20.5729 30.8388C18.3876 30.8512 17.9311 31.893 16.3198 31.8794C14.5073 31.8625 13.122 30.0862 12.0836 28.5066C9.18192 24.0885 8.87796 18.9043 10.6678 16.1484C11.9401 14.1902 13.9458 13.0433 15.8328 13.0433C17.7198 13.0433 18.9616 14.0964 20.5491 14.0964C22.1367 14.0964 23.0282 13.041 25.2497 13.041C26.9288 13.041 28.7073 13.9551 29.974 15.5359C25.8215 17.8116 26.496 23.7427 30.6915 25.328" fill="white"/>
<path fill-rule="evenodd" clip-rule="evenodd" d="M23.5649 11.2774C24.3717 10.2424 24.9841 8.7791 24.7626 7.28418C23.4451 7.37458 21.9027 8.21299 21.0022 9.30678C20.1852 10.2989 19.5106 11.7712 19.7739 13.2017C21.2123 13.2458 22.7016 12.387 23.566 11.2774" fill="white"/>
<path fill-rule="evenodd" clip-rule="evenodd" d="M105.239 27.4026H99.4044C99.427 28.1935 99.7095 28.8873 100.252 29.3427C100.742 29.7517 101.378 29.9382 102.159 29.9382C103.025 29.9382 103.809 29.7913 104.519 29.511L104.825 30.8591C104 31.2218 103.019 31.3958 101.888 31.3958C100.534 31.3958 99.4688 30.998 98.6948 30.2003C97.9208 29.4026 97.531 28.3302 97.531 26.9867C97.531 25.6432 97.8926 24.5675 98.6112 23.6873C99.3705 22.7528 100.391 22.285 101.673 22.285C102.956 22.285 103.89 22.7517 104.537 23.6873C105.051 24.4342 105.311 25.3901 105.311 26.4828C105.311 26.8285 105.286 27.1777 105.239 27.4037V27.4026ZM96.949 24.1924C96.8361 24.1574 96.5366 24.1427 96.3219 24.1427C95.6383 24.1427 95.1039 24.4003 94.731 24.9156C94.4055 25.3732 94.2372 25.9404 94.2372 26.6421V31.1314H92.3163V25.2342C92.3163 24.2319 92.2745 23.3348 92.2406 22.4308H93.9321L94.0044 24.2387H94.0575C94.2609 23.6737 94.5829 23.1596 95.0293 22.815C95.4609 22.4997 95.9468 22.328 96.4507 22.328C96.6293 22.328 96.8349 22.3167 96.9479 22.3404V24.1924H96.949ZM89.9185 30.102C89.1118 30.9879 88.044 31.4319 86.714 31.4319C85.3841 31.4319 84.401 31.006 83.6394 30.154C82.8779 29.3043 82.4993 28.2252 82.4993 26.9314C82.4993 25.6376 82.8914 24.4647 83.6779 23.6014C84.4654 22.7336 85.5219 22.3076 86.8541 22.3076C88.1863 22.3076 89.175 22.7291 89.9547 23.5856C90.6971 24.4093 91.0688 25.4805 91.0688 26.7879C91.0688 28.0952 90.6869 29.2365 89.9185 30.1031V30.102ZM81.9208 24.0127H79.8869V28.1924C79.8869 29.2715 80.2214 29.8071 80.9784 29.8071C81.3264 29.8071 81.5886 29.7822 81.8191 29.7223L81.8632 31.1947C81.4779 31.3393 80.9694 31.4116 80.3457 31.4116C79.5818 31.4116 78.9558 31.1811 78.5253 30.7088C78.0892 30.2432 77.8541 29.4557 77.8541 28.3517V24.0116H76.6112V22.4297H77.8541V20.8794L79.888 20.3031V22.4297H81.9219V24.0116L81.9208 24.0127ZM75.0858 30.3495C74.2914 31.0591 73.1909 31.4116 71.7796 31.4116C70.4711 31.4116 69.4248 31.1585 68.6349 30.6568L69.0869 29.0365C69.9389 29.5382 70.8745 29.7924 71.8914 29.7924C72.627 29.7924 73.1954 29.6252 73.6044 29.2975C74.0101 28.9687 74.2146 28.528 74.2146 27.9687C74.2146 27.4828 74.0462 27.0692 73.7118 26.7302C73.3728 26.3947 72.8191 26.085 72.0383 25.7947C69.9163 25.0048 68.853 23.8466 68.853 22.3223C68.853 21.3269 69.2236 20.5076 69.975 19.8726C70.7253 19.2376 71.7185 18.9189 72.9558 18.9189C74.0598 18.9189 74.9784 19.1122 75.7118 19.4941L75.2214 21.0794C74.5378 20.7088 73.7592 20.5201 72.8926 20.5201C72.2067 20.5201 71.67 20.6941 71.2824 21.0229C70.9592 21.3269 70.7965 21.693 70.7965 22.1235C70.7965 22.6003 70.9829 22.998 71.3536 23.3144C71.679 23.6014 72.2666 23.911 73.1163 24.2466C74.1637 24.6636 74.9298 25.1585 75.4236 25.7246C75.914 26.2884 76.1615 26.989 76.1615 27.8286C76.1615 28.8624 75.7999 29.7043 75.0858 30.3495ZM63.8507 30.2817C63.1265 31.0466 62.2225 31.4308 61.1468 31.4308C59.9886 31.4308 59.2089 31.0173 58.644 30.1856V34.8591H56.7231V25.3562C56.7231 24.4206 56.6869 23.5596 56.6406 22.4297H58.3468L58.4598 23.8986H58.4937C59.1468 22.8817 60.1276 22.3212 61.4474 22.3212C62.4801 22.3212 63.3411 22.7178 64.0315 23.5359C64.7231 24.3506 65.0677 25.4229 65.0677 26.7551C65.0677 28.2478 64.6632 29.415 63.8519 30.2817H63.8507ZM54.2372 30.2817C53.514 31.0466 52.6123 31.4308 51.5389 31.4308C50.3773 31.4308 49.6044 31.0173 49.0394 30.1856V34.8591H47.1185V25.3562C47.1185 24.4206 47.0745 23.5596 47.0248 22.4297H48.7355L48.8428 23.8986H48.8767C49.5287 22.8817 50.5106 22.3212 51.8327 22.3212C52.8643 22.3212 53.7242 22.7178 54.418 23.5359C55.1061 24.3506 55.4519 25.4229 55.4519 26.7551C55.4519 28.2478 55.0474 29.415 54.2361 30.2817H54.2372ZM43.8383 31.1314L42.705 27.6285H38.7604L37.679 31.1314H35.6643L39.5683 19.041H41.9841L45.9106 31.1314H43.8383ZM101.53 23.6331C100.895 23.6331 100.38 23.9585 99.9818 24.4828C99.6587 24.902 99.4643 25.3687 99.4055 26.0466H103.456C103.467 25.3687 103.343 24.9223 103.08 24.4997C102.742 23.9619 102.225 23.6331 101.53 23.6331ZM40.7231 20.7359H40.6892C40.5671 21.3009 40.3773 22.0534 40.1106 23.0624L39.1016 26.2726H42.3592L41.3378 23.0624C41.227 22.737 41.0214 21.8658 40.7219 20.7359H40.7231ZM60.8168 23.85C60.3355 23.85 59.905 24.0082 59.5129 24.3257C59.1231 24.6478 58.8598 25.0647 58.7389 25.5811C58.679 25.8229 58.644 26.0195 58.644 26.1766V27.6331C58.644 28.2704 58.8428 28.8093 59.2349 29.2478C59.6248 29.6817 60.1355 29.902 60.757 29.902C61.4926 29.902 62.0643 29.6218 62.4722 29.0557C62.8813 28.4907 63.0869 27.7472 63.0869 26.8206C63.0869 25.9709 62.8937 25.2681 62.5106 24.7167C62.0869 24.1427 61.5231 23.85 60.8157 23.85H60.8168ZM86.783 23.7291C86.0044 23.7291 85.4101 24.0749 85.0044 24.7698C84.653 25.3415 84.4801 26.041 84.4801 26.867C84.4801 27.693 84.653 28.3585 85.0044 28.9325C85.4202 29.6263 86.0089 29.9721 86.7683 29.9721C87.5276 29.9721 88.0926 29.6218 88.5106 28.911C88.8733 28.3302 89.0541 27.6331 89.0541 26.8342C89.0541 26.0353 88.8801 25.3427 88.5344 24.7709C88.1208 24.076 87.54 23.7302 86.783 23.7302V23.7291ZM51.201 23.85C50.7219 23.85 50.2892 24.0082 49.8971 24.3257C49.5061 24.6478 49.2507 25.0647 49.1298 25.5811C49.0711 25.8229 49.0394 26.0195 49.0394 26.1766V27.6331C49.0394 28.2704 49.2327 28.8093 49.6248 29.2478C50.0146 29.6817 50.5231 29.902 51.1457 29.902C51.8767 29.902 52.4507 29.6218 52.8587 29.0557C53.2666 28.4907 53.4688 27.7472 53.4688 26.8206C53.4688 25.9709 53.279 25.2681 52.8948 24.7167C52.4722 24.1427 51.9095 23.85 51.1999 23.85H51.201Z" fill="white"/>
<path d="M38.2259 14.2777L37.6869 16.0528H36.5061L38.514 9.78955H39.9728L42.0078 16.0528H40.7807L40.2135 14.2777H38.2248H38.2259ZM40.0191 13.4133L39.5264 11.8709C39.4055 11.4901 39.3038 11.0619 39.2101 10.7003H39.192C39.0993 11.063 39.0055 11.4992 38.8948 11.8709L38.4112 13.4133H40.0191Z" fill="white"/>
<path d="M43.3105 11.5273L44.045 13.8223C44.1749 14.2223 44.2676 14.5838 44.3512 14.9556H44.3795C44.4631 14.5838 44.5659 14.2302 44.6857 13.8223L45.4009 11.5273H46.6088L44.88 16.0528H43.7557L42.0732 11.5273H43.3094H43.3105Z" fill="white"/>
<path d="M49.7977 16.0526L49.7231 15.5509H49.6949C49.4158 15.9045 48.9423 16.1554 48.357 16.1554C47.4463 16.1554 46.9355 15.4955 46.9355 14.8074C46.9355 13.6639 47.948 13.0876 49.6214 13.0978V13.0232C49.6214 12.726 49.5005 12.2334 48.7016 12.2334C48.2553 12.2334 47.7909 12.3723 47.4847 12.5678L47.2621 11.8243C47.5966 11.6198 48.1819 11.4243 48.8983 11.4243C50.348 11.4243 50.7661 12.3441 50.7661 13.3294V14.9656C50.7661 15.3746 50.7841 15.7746 50.8316 16.0526H49.8H49.7977ZM49.6485 13.8413C48.8395 13.8232 48.0689 13.9995 48.0689 14.6865C48.0689 15.1328 48.357 15.3373 48.7197 15.3373C49.1751 15.3373 49.5096 15.0401 49.6124 14.7147C49.6406 14.6311 49.6497 14.5384 49.6497 14.4639V13.8413H49.6485Z" fill="white"/>
<path d="M51.9717 9.45508H53.1242V16.0528H51.9717V9.45508Z" fill="white"/>
<path d="M55.5784 10.2627C55.5784 10.6062 55.3275 10.8763 54.9275 10.8763C54.5275 10.8763 54.2959 10.6074 54.2959 10.2627C54.2959 9.9181 54.5558 9.64014 54.9366 9.64014C55.3174 9.64014 55.5682 9.91019 55.5773 10.2627H55.5784ZM54.3614 16.0526V11.5271H55.514V16.0526H54.3614Z" fill="white"/>
<path d="M56.7026 16.0525C56.7207 15.7463 56.7399 15.2434 56.7399 14.779V9.45361H57.8834V12.1485H57.9015C58.1806 11.7112 58.6733 11.4231 59.3512 11.4231C60.4574 11.4231 61.2473 12.3429 61.2382 13.718C61.2382 15.344 60.2066 16.153 59.184 16.153C58.5987 16.153 58.0778 15.9304 57.7524 15.3723H57.7343L57.6789 16.0502H56.7026V16.0525ZM57.8834 14.1847C57.8834 14.2773 57.8925 14.3711 57.9117 14.4547C58.0326 14.9101 58.4326 15.2536 58.9241 15.2536C59.6394 15.2536 60.0766 14.6773 60.0766 13.7666C60.0766 12.9677 59.6959 12.3169 58.9331 12.3169C58.4687 12.3169 58.0507 12.6514 57.9207 13.153C57.9026 13.2367 57.8834 13.3384 57.8834 13.4502V14.1847Z" fill="white"/>
<path d="M62.1763 9.45508H63.3288V16.0528H62.1763V9.45508Z" fill="white"/>
<path d="M65.3739 14.1102C65.4021 14.9283 66.0428 15.2808 66.7682 15.2808C67.2982 15.2808 67.679 15.2062 68.0225 15.0763L68.1897 15.8661C67.7999 16.0243 67.2609 16.1452 66.61 16.1452C65.1422 16.1452 64.2778 15.2435 64.2778 13.8593C64.2778 12.6051 65.0394 11.4243 66.4891 11.4243C67.9388 11.4243 68.4405 12.6322 68.4405 13.6266C68.4405 13.8401 68.4225 14.0074 68.4033 14.1102H65.3739ZM67.3626 13.3113C67.3716 12.8932 67.1863 12.2051 66.4236 12.2051C65.7174 12.2051 65.4202 12.8458 65.3739 13.3113H67.3626Z" fill="white"/>
<path d="M75.5875 13.7475C75.5875 15.4108 74.4169 16.1543 73.2644 16.1543C71.9819 16.1543 70.9966 15.2718 70.9966 13.8221C70.9966 12.3723 71.9729 11.4243 73.339 11.4243C74.7051 11.4243 75.5875 12.3723 75.5875 13.7475ZM72.1774 13.7938C72.1774 14.6673 72.6045 15.3271 73.3017 15.3271C73.9525 15.3271 74.4079 14.6865 74.4079 13.7757C74.4079 13.0695 74.0915 12.2605 73.3107 12.2605C72.5299 12.2605 72.1774 13.0413 72.1774 13.7938Z" fill="white"/>
<path d="M76.5265 12.8742C76.5265 12.3533 76.5175 11.9171 76.4893 11.5262H77.4926L77.548 12.2041H77.5763C77.7717 11.8505 78.2644 11.4233 79.0169 11.4233C79.8068 11.4233 80.6249 11.9341 80.6249 13.3657V16.0516H79.4813V13.4957C79.4813 12.8448 79.2395 12.3522 78.6169 12.3522C78.1616 12.3522 77.8452 12.6776 77.7243 13.0211C77.687 13.1228 77.678 13.2629 77.678 13.3928V16.0505H76.5254V12.8719L76.5265 12.8742Z" fill="white"/>
<path d="M85.0768 10.2345V11.5261H86.1638V12.3814H85.0768V14.3792C85.0768 14.9272 85.226 15.2153 85.6621 15.2153C85.8576 15.2153 86.0056 15.1871 86.1084 15.16L86.1265 16.0334C85.9593 16.0989 85.6621 16.1453 85.2994 16.1453C84.8813 16.1453 84.5277 16.0063 84.3141 15.7735C84.0723 15.5136 83.9604 15.1046 83.9604 14.5091V12.3814H83.3096V11.5261H83.9604V10.5035L85.0757 10.2334L85.0768 10.2345Z" fill="white"/>
<path d="M87.0281 9.4549H88.1806V12.1498H88.1987C88.3377 11.9363 88.5241 11.76 88.7659 11.6289C88.9885 11.499 89.2586 11.4244 89.5467 11.4244C90.3185 11.4244 91.1264 11.9351 91.1264 13.3848V16.0515H89.9829V13.5148C89.9829 12.8549 89.7411 12.3622 89.1094 12.3622C88.6631 12.3622 88.3478 12.6594 88.2269 13.0029C88.1897 13.0956 88.1806 13.2165 88.1806 13.3464V16.0504H87.0281V9.45264V9.4549Z" fill="white"/>
<path d="M93.1524 14.1102C93.1807 14.9283 93.8214 15.2808 94.5468 15.2808C95.0767 15.2808 95.4575 15.2062 95.801 15.0763L95.9683 15.8661C95.5784 16.0243 95.0394 16.1452 94.3886 16.1452C92.9208 16.1452 92.0564 15.2435 92.0564 13.8593C92.0564 12.6051 92.818 11.4243 94.2677 11.4243C95.7174 11.4243 96.2191 12.6322 96.2191 13.6266C96.2191 13.8401 96.201 14.0074 96.1818 14.1102H93.1524ZM95.1411 13.3113C95.1502 12.8932 94.9649 12.2051 94.2022 12.2051C93.4959 12.2051 93.1988 12.8458 93.1524 13.3113H95.1411Z" fill="white"/>
</g>
<defs>
<clipPath id="clip0_36_5151">
<rect width="116.271" height="40" fill="white" transform="translate(0 0.623047)"/>
</clipPath>
</defs>
</svg>
