<svg width="45" height="45" viewBox="0 0 45 45" fill="none" xmlns="http://www.w3.org/2000/svg">
<path d="M22.4999 34.0334C18.2099 34.0334 14.7083 30.5317 14.7083 26.2417C14.7083 25.49 15.3316 24.8667 16.0833 24.8667C16.8349 24.8667 17.4583 25.49 17.4583 26.2417C17.4583 29.0284 19.7133 31.2834 22.4999 31.2834C25.2866 31.2834 27.5416 29.0284 27.5416 26.2417C27.5416 25.49 28.1649 24.8667 28.9166 24.8667C29.6683 24.8667 30.2916 25.49 30.2916 26.2417C30.2916 30.5317 26.7899 34.0334 22.4999 34.0334Z" fill="white"/>
<path d="M10.0149 11.8134C9.66661 11.8134 9.29995 11.6667 9.04328 11.41C8.51161 10.8784 8.51161 9.99838 9.04328 9.46671L15.6983 2.81171C16.2299 2.28005 17.1099 2.28005 17.6416 2.81171C18.1733 3.34338 18.1733 4.22338 17.6416 4.75505L10.9866 11.41C10.7116 11.6667 10.3633 11.8134 10.0149 11.8134Z" fill="white"/>
<path d="M34.985 11.8134C34.6367 11.8134 34.2883 11.685 34.0133 11.41L27.3583 4.75505C26.8267 4.22338 26.8267 3.34338 27.3583 2.81171C27.89 2.28005 28.77 2.28005 29.3017 2.81171L35.9567 9.46671C36.4883 9.99838 36.4883 10.8784 35.9567 11.41C35.7 11.6667 35.3333 11.8134 34.985 11.8134Z" fill="white"/>
<path d="M37.5516 19.55C37.4233 19.55 37.295 19.55 37.1666 19.55H36.745H7.83329C6.54996 19.5683 5.08329 19.5683 4.01996 18.505C3.17663 17.68 2.79163 16.3967 2.79163 14.5083C2.79163 9.46667 6.47663 9.46667 8.23663 9.46667H36.7633C38.5233 9.46667 42.2083 9.46667 42.2083 14.5083C42.2083 16.415 41.8233 17.68 40.98 18.505C40.0266 19.4583 38.7433 19.55 37.5516 19.55ZM8.23663 16.8H37.185C38.01 16.8183 38.78 16.8183 39.0366 16.5617C39.165 16.4333 39.44 15.9933 39.44 14.5083C39.44 12.4367 38.9266 12.2167 36.745 12.2167H8.23663C6.05496 12.2167 5.54163 12.4367 5.54163 14.5083C5.54163 15.9933 5.83496 16.4333 5.94496 16.5617C6.20163 16.8 6.98996 16.8 7.79663 16.8H8.23663Z" fill="white"/>
<path d="M27.7978 41.8251H16.7428C10.1795 41.8251 8.7128 37.9201 8.14447 34.5284L5.55947 18.6701C5.43114 17.9184 5.94447 17.2217 6.69614 17.0934C7.42947 16.9651 8.14447 17.4784 8.2728 18.2301L10.8578 34.0701C11.3895 37.3151 12.4895 39.0751 16.7428 39.0751H27.7978C32.5095 39.0751 33.0411 37.4251 33.6461 34.2351L36.7261 18.1934C36.8728 17.4417 37.5878 16.9467 38.3395 17.1117C39.0911 17.2584 39.5678 17.9734 39.4211 18.7251L36.3411 34.7667C35.6261 38.4884 34.4345 41.8251 27.7978 41.8251Z" fill="white"/>
</svg>
