<svg width="20" height="21" viewBox="0 0 20 21" fill="none" xmlns="http://www.w3.org/2000/svg">
<path fill-rule="evenodd" clip-rule="evenodd" d="M0.833984 8.83332C0.833984 6.53214 2.69946 4.66666 5.00065 4.66666H10.0007C12.3018 4.66666 14.1673 6.53214 14.1673 8.83332C14.1673 11.1345 12.3018 13 10.0007 13C9.54041 13 9.16732 12.6269 9.16732 12.1667C9.16732 11.7064 9.54041 11.3333 10.0007 11.3333C11.3814 11.3333 12.5007 10.214 12.5007 8.83332C12.5007 7.45261 11.3814 6.33332 10.0007 6.33332H5.00065C3.61994 6.33332 2.50065 7.45261 2.50065 8.83332C2.50065 9.99708 3.29659 10.977 4.37503 11.2546C4.82074 11.3693 5.08907 11.8236 4.97435 12.2694C4.85963 12.7151 4.40531 12.9834 3.9596 12.8687C2.16267 12.4062 0.833984 10.776 0.833984 8.83332ZM5.83398 12.1667C5.83398 9.86547 7.69946 7.99999 10.0007 7.99999C10.4609 7.99999 10.834 8.37309 10.834 8.83332C10.834 9.29356 10.4609 9.66666 10.0007 9.66666C8.61994 9.66666 7.50065 10.7859 7.50065 12.1667C7.50065 13.5474 8.61994 14.6667 10.0007 14.6667H15.0006C16.3814 14.6667 17.5006 13.5474 17.5006 12.1667C17.5006 11.0029 16.7047 10.0229 15.6263 9.74537C15.1806 9.63065 14.9122 9.17633 15.027 8.73062C15.1417 8.28491 15.596 8.01659 16.0417 8.13131C17.8386 8.59381 19.1673 10.224 19.1673 12.1667C19.1673 14.4678 17.3018 16.3333 15.0006 16.3333H10.0007C7.69946 16.3333 5.83398 14.4678 5.83398 12.1667Z" fill="#1A1A1A"/>
</svg>
