<svg width="20" height="21" viewBox="0 0 20 21" fill="none" xmlns="http://www.w3.org/2000/svg">
<path d="M19.5015 10.5437C19.5015 15.2753 16.0383 19.1963 11.5067 19.9069V13.2858H13.7172L14.1383 10.549H11.512V8.77001C11.512 8.02264 11.8804 7.29106 13.0541 7.29106H14.2488V4.95948C14.2488 4.95948 13.1646 4.77527 12.1278 4.77527C9.96462 4.77527 8.54883 6.0858 8.54883 8.46474V10.5542H6.14357V13.2911H8.54883V19.9121C4.01199 19.1963 0.548828 15.2753 0.548828 10.5437C0.548828 5.31211 4.79093 1.07001 10.0278 1.07001C15.2646 1.07001 19.5067 5.31211 19.5067 10.5437H19.5015Z" fill="#1A1A1A"/>
</svg>
