<svg width="130" height="51" viewBox="0 0 130 51" fill="none" xmlns="http://www.w3.org/2000/svg">
<rect y="0.623535" width="130" height="50" rx="4" fill="white"/>
<path fill-rule="evenodd" clip-rule="evenodd" d="M19.1206 22.139C19.1206 23.2577 18.1962 24.1634 17.0543 24.1634H9.09482C7.95293 24.1634 7.02852 23.2577 7.02852 22.139V18.8915C7.02852 17.7728 7.95293 16.8671 9.09482 16.8671H17.0543C18.1962 16.8671 19.1206 17.7728 19.1206 18.8915H24.3295C24.0077 15.8349 21.3682 13.4487 18.1622 13.4487H7.98694C4.56346 13.4487 1.78796 16.1679 1.78796 19.5219V21.5108C1.78796 24.8649 4.56346 27.584 7.98694 27.584H18.1622C21.3705 27.584 24.0077 25.1978 24.3295 22.139H19.1206Z" fill="#C32022"/>
<path d="M34.5767 13.6294L26.3295 27.4028H32.6326L38.4465 17.0478L44.2603 27.4028H50.5634L42.6855 13.6294H34.5767Z" fill="#C32022"/>
<path fill-rule="evenodd" clip-rule="evenodd" d="M52.5635 18.8062H57.8416V22.2268H52.5635V18.8062Z" fill="#C32022"/>
<path fill-rule="evenodd" clip-rule="evenodd" d="M59.8417 13.6294H81.4497V17.4118H59.8417V13.6294ZM61.6973 18.9457H81.4497V22.3662H65.0822V27.4028H59.8417V20.7658C59.8417 19.7603 60.6732 18.9457 61.6973 18.9457Z" fill="#C32022"/>
<path fill-rule="evenodd" clip-rule="evenodd" d="M83.4497 13.6284H104.604V17.4108H83.4497V13.6284ZM85.3054 18.9447H104.604V22.3653H88.69V23.9835H104.604V27.4041H85.4884C84.3622 27.4041 83.4497 26.5097 83.4497 25.4063V20.7649C83.4497 19.7593 84.2812 18.9447 85.3054 18.9447Z" fill="#C32022"/>
<path fill-rule="evenodd" clip-rule="evenodd" d="M106.604 13.6294H128.212V17.4118H106.604V13.6294ZM108.46 18.9457H128.212V22.3663H111.845V27.4028H106.604V20.7658C106.604 19.7603 107.433 18.9457 108.46 18.9457Z" fill="#344971"/>
<path d="M9.30495 36.4573H10.0373V32.2595H11.4062V31.6695H7.93604V32.2595H9.30495V36.4573ZM12.9138 34.4456H13.7831L14.7619 36.4573H15.5695L14.5018 34.3785C15.1725 34.231 15.4668 33.822 15.4668 33.0306C15.4668 32.568 15.3573 32.2529 15.1178 32.0181C14.8645 31.77 14.5223 31.6695 13.92 31.6695H12.1815V36.4573H12.9138V34.4456ZM12.9002 33.8756V32.2461H13.8515C14.4676 32.2461 14.7413 32.4943 14.7413 33.0642C14.7413 33.6208 14.4812 33.8756 13.8926 33.8756H12.9002ZM19.2056 35.4581L19.5479 36.4573H20.3418L18.5622 31.6695H17.8573L16.0777 36.4573H16.8717L17.2139 35.4581H19.2056ZM19.0277 34.8815H17.3918L18.2132 32.5412L19.0277 34.8815ZM20.7757 36.4573H21.4876V32.8765L23.6642 36.4573H24.376V31.6695H23.6642V35.2503L21.4876 31.6695H20.7757V36.4573ZM27.263 34.4456H28.1802V34.8144C28.1802 35.5721 27.8448 35.9409 27.1535 35.9409C26.4075 35.9409 26.1269 35.5587 26.1269 34.5261V33.6141C26.1269 32.5881 26.4075 32.1992 27.1467 32.1992C27.6874 32.1992 28.009 32.454 28.0775 32.9435L28.7551 32.8966C28.7072 32.0584 28.1391 31.6158 27.1193 31.6158C26.5033 31.6158 26.0858 31.7767 25.7778 32.1254C25.4971 32.4406 25.3945 32.8295 25.3945 33.5671V34.5662C25.3945 35.2502 25.4766 35.6191 25.7093 35.9275C26.0105 36.3366 26.4622 36.5243 27.1672 36.5243C27.7969 36.5243 28.2418 36.35 28.5498 35.9879C28.8099 35.6795 28.9057 35.324 28.9057 34.6602V33.889H27.263V34.4456ZM31.9401 36.4573H32.6725V32.2595H34.0414V31.6695H30.5712V32.2595H31.9401V36.4573ZM34.8098 36.4573H35.5422V34.3316H37.4175V36.4573H38.1499V31.6695H37.4175V33.7415H35.5422V31.6695H34.8098V36.4573ZM39.1745 34.6468C39.1745 35.2771 39.2703 35.6459 39.5099 35.9477C39.8178 36.3433 40.2627 36.5243 40.9403 36.5243C41.5632 36.5243 41.9739 36.3768 42.2956 36.0281C42.5899 35.7197 42.6994 35.3307 42.6994 34.6468V33.48C42.6994 32.8497 42.6036 32.4808 42.364 32.1791C42.0561 31.7835 41.6111 31.6024 40.9403 31.6024C40.3106 31.6024 39.9 31.7499 39.5783 32.0986C39.284 32.4138 39.1745 32.796 39.1745 33.48V34.6468ZM41.967 34.5797C41.967 35.5386 41.6591 35.9409 40.9403 35.9409C40.2148 35.9409 39.9068 35.5386 39.9068 34.5797V33.5471C39.9068 32.5881 40.2148 32.1858 40.9403 32.1858C41.6591 32.1858 41.967 32.5881 41.967 33.5471V34.5797ZM40.9335 30.6435L41.3716 31.1799H42.0697L41.1731 30.2277H40.694L39.8042 31.1799H40.5023L40.9335 30.6435ZM43.7251 36.4573H44.4369V32.8765L46.6135 36.4573H47.3253V31.6695H46.6135V35.2503L44.4369 31.6695H43.7251V36.4573ZM50.2123 34.4456H51.1295V34.8144C51.1295 35.5721 50.7941 35.9409 50.1028 35.9409C49.3568 35.9409 49.0762 35.5587 49.0762 34.5261V33.6141C49.0762 32.5881 49.3568 32.1992 50.096 32.1992C50.6367 32.1992 50.9583 32.454 51.0268 32.9435L51.7044 32.8966C51.6565 32.0584 51.0885 31.6158 50.0686 31.6158C49.4526 31.6158 49.0351 31.7767 48.7271 32.1254C48.4464 32.4406 48.3438 32.8295 48.3438 33.5671V34.5662C48.3438 35.2502 48.4259 35.6191 48.6586 35.9275C48.9598 36.3366 49.4115 36.5243 50.1165 36.5243C50.7462 36.5243 51.1911 36.35 51.4991 35.9879C51.7592 35.6795 51.855 35.324 51.855 34.6602V33.889H50.2123V34.4456ZM54.8894 36.4573H55.6218V32.2595H56.9907V31.6695H53.5205V32.2595H54.8894V36.4573ZM57.7591 36.4573H58.4915V31.6695H57.7591V36.4573ZM59.6333 36.4573H60.3451V32.8765L62.5217 36.4573H63.2335V31.6695H62.5217V35.2503L60.3451 31.6695H59.6333V36.4573ZM65.5742 33.7482H65.0266V34.3249H65.5742V36.4573H67.1827C68.4147 36.4707 69.0238 35.8538 68.9896 34.6199V33.5068C69.0238 32.2729 68.4147 31.6493 67.1827 31.6695H65.5742V33.7482ZM66.3066 33.7482V32.2461H67.0526C67.9082 32.226 68.2504 32.6015 68.2572 33.5671V34.5529C68.2504 35.5252 67.9082 35.9007 67.0526 35.8806H66.3066V34.3249H67.3332V33.7482H66.3066ZM70.0218 36.4573H70.7541V31.6695H70.0218V36.4573ZM71.9028 36.4573H74.8529V35.8672H72.6284V34.3316H74.5038V33.7415H72.6284V32.2595H74.8323V31.6695H71.9028V36.4573ZM73.3813 30.6435L73.8193 31.1799H74.5106L73.6208 30.2277H73.1417L72.2451 31.1799H72.9432L73.3813 30.6435ZM73.0596 37.7985H73.7372V37.034H73.0596V37.7985ZM75.6953 36.4573H76.407V32.8765L78.5839 36.4573H79.2956V31.6695H78.5839V35.2503L76.407 31.6695H75.6953V36.4573ZM82.5122 36.4573H83.2444V32.2595H84.6135V31.6695H81.1431V32.2595H82.5122V36.4573ZM85.2409 31.6695V34.687C85.2409 35.3241 85.2961 35.6191 85.4737 35.8873C85.7683 36.3232 86.2337 36.5243 86.9591 36.5243C87.6369 36.5243 88.0608 36.3567 88.3691 35.9678C88.6018 35.6861 88.6705 35.3777 88.6705 34.687V33.1246C89.0264 32.9435 89.1496 32.8765 89.2863 32.7826C89.6695 32.5143 89.8335 32.2461 89.8335 31.8907C89.8335 31.7834 89.8266 31.7164 89.7858 31.5957H89.17C89.2448 31.7365 89.2727 31.8304 89.2727 31.9712C89.2727 32.2864 89.1149 32.4808 88.6705 32.682V31.6695H87.9376V34.687C87.9376 35.0893 87.9036 35.3173 87.8213 35.4916C87.6641 35.8068 87.4042 35.9409 86.9591 35.9409C86.5345 35.9409 86.295 35.827 86.1242 35.5521C86.0146 35.3643 85.9731 35.1497 85.9731 34.687V31.6695H85.2409ZM87.3014 31.2604C87.3082 31.0525 87.315 31.019 87.4246 30.8849C87.6165 30.6569 87.6437 30.6099 87.6437 30.4557C87.6437 30.1339 87.4042 29.9461 86.9931 29.9461C86.7877 29.9461 86.6509 29.9729 86.4113 30.0534L86.5277 30.4356C86.6924 30.3619 86.7808 30.3417 86.8768 30.3417C87 30.3417 87.0687 30.3954 87.0687 30.4825C87.0687 30.5362 87.0483 30.5898 87.0068 30.6502C86.836 30.8782 86.8224 30.9184 86.8156 31.1732V31.2604H87.3014ZM92.2253 36.4573H92.9582V32.2595H94.3266V31.6695H90.8569V32.2595H92.2253V36.4573ZM94.8587 34.6468C94.8587 35.2771 94.9547 35.6459 95.1942 35.9477C95.5018 36.3433 95.9468 36.5243 96.6246 36.5243C97.2472 36.5243 97.6582 36.3768 97.9801 36.0281C98.274 35.7197 98.3836 35.3307 98.3836 34.6468V33.48C98.3836 32.8497 98.2877 32.4808 98.0481 32.1791C97.7399 31.7835 97.2955 31.6024 96.6246 31.6024C95.9951 31.6024 95.5841 31.7499 95.2623 32.0986C94.9683 32.4138 94.8587 32.796 94.8587 33.48V34.6468ZM97.6514 34.5797C97.6514 35.5386 97.3431 35.9409 96.6246 35.9409C95.8992 35.9409 95.5909 35.5386 95.5909 34.5797V33.5471C95.5909 32.5881 95.8992 32.1858 96.6246 32.1858C97.3431 32.1858 97.6514 32.5881 97.6514 33.5471V34.5797ZM96.8301 30.5295C96.8369 30.3887 96.8369 30.3685 96.926 30.2881C97.0764 30.1339 97.1036 30.0869 97.1036 29.9729C97.1036 29.7315 96.8981 29.584 96.5558 29.584C96.3714 29.584 96.2415 29.6108 96.0632 29.6711L96.1659 29.9796C96.2959 29.9193 96.3714 29.8991 96.4531 29.8991C96.5558 29.8991 96.611 29.926 96.611 29.9796C96.611 30.0131 96.5905 30.0601 96.5626 30.0936C96.4123 30.2679 96.4054 30.2948 96.3987 30.5295H96.8301ZM96.611 30.9922L97.0349 31.3543H97.699L96.8369 30.6368H96.3782L95.5229 31.3543H96.1795L96.611 30.9922ZM99.4091 36.4573H100.121V32.8765L102.298 36.4573H103.009V31.6695H102.298V35.2503L100.121 31.6695H99.4091V36.4573ZM105.897 34.4456H106.814V34.8144C106.814 35.5721 106.479 35.9409 105.787 35.9409C105.041 35.9409 104.76 35.5587 104.76 34.5261V33.6141C104.76 32.5881 105.041 32.1992 105.78 32.1992C106.321 32.1992 106.642 32.454 106.711 32.9435L107.388 32.8966C107.341 32.0584 106.772 31.6158 105.752 31.6158C105.137 31.6158 104.719 31.7767 104.411 32.1254C104.131 32.4406 104.028 32.8295 104.028 33.5671V34.5662C104.028 35.2502 104.11 35.6191 104.342 35.9275C104.644 36.3366 105.096 36.5243 105.801 36.5243C106.43 36.5243 106.875 36.35 107.183 35.9879C107.443 35.6795 107.539 35.324 107.539 34.6602V33.889H105.897V34.4456ZM109.697 36.4573H110.43V34.3316H112.305V36.4573H113.038V31.6695H112.305V33.7415H110.43V31.6695H109.697V36.4573ZM117.778 31.5957C117.854 31.7298 117.881 31.8304 117.881 31.9645C117.881 32.2126 117.772 32.3735 117.464 32.5747C117.218 31.9175 116.684 31.6024 115.821 31.6024C115.198 31.6024 114.788 31.7566 114.466 32.0986C114.172 32.4138 114.062 32.796 114.062 33.48V34.6468C114.062 35.2771 114.158 35.6459 114.398 35.9477C114.705 36.3433 115.15 36.5243 115.828 36.5243C116.451 36.5243 116.862 36.3768 117.183 36.0281C117.478 35.7197 117.587 35.3307 117.587 34.6468V33.48C117.587 33.2855 117.58 33.1648 117.546 32.9771C117.813 32.8228 117.909 32.7692 118.039 32.6618C118.299 32.454 118.443 32.1724 118.443 31.8773C118.443 31.77 118.429 31.7097 118.395 31.5957H117.778ZM116.855 34.5797C116.855 35.5386 116.547 35.9409 115.828 35.9409C115.103 35.9409 114.795 35.5386 114.795 34.5797V33.5471C114.795 32.5948 115.103 32.1925 115.828 32.1925C116.547 32.1925 116.855 32.5948 116.855 33.5471V34.5797ZM115.41 37.7985H116.088V37.034H115.41V37.7985ZM119.566 34.6602H120.442C121.03 34.6602 121.38 34.5662 121.639 34.3383C121.934 34.0768 122.064 33.708 122.064 33.1581C122.064 32.6485 121.955 32.3132 121.701 32.0517C121.434 31.7767 121.085 31.6695 120.442 31.6695H118.833V36.4573H119.566V34.6602ZM119.552 34.0768V32.2461H120.442C121.064 32.2461 121.339 32.5211 121.339 33.1648C121.339 33.7951 121.064 34.0768 120.442 34.0768H119.552Z" fill="#525252"/>
</svg>
