<svg width="25" height="24" viewBox="0 0 25 24" fill="none" xmlns="http://www.w3.org/2000/svg">
<path fill-rule="evenodd" clip-rule="evenodd" d="M19.9401 1.18974C20.2662 1.3181 20.562 1.50772 20.8098 1.74732C21.0615 1.98578 21.2612 2.26955 21.3973 2.58218C21.5333 2.89482 21.603 3.23011 21.6024 3.56865L21.602 20.4914C21.602 20.8287 21.5324 21.1627 21.3972 21.4743C21.262 21.7859 21.0638 22.0691 20.8139 22.3076C20.564 22.5461 20.2674 22.7353 19.9409 22.8644C19.6145 22.9935 19.2646 23.0599 18.9112 23.0599H6.19084C5.47719 23.0599 4.79276 22.7893 4.28813 22.3076C3.7835 21.8259 3.5 21.1726 3.5 20.4914L3.50031 8.00521H7.36534C8.079 8.00521 8.76343 7.73459 9.26806 7.2529C9.77269 6.77121 10.0562 6.11789 10.0562 5.43667V1.00011H10.2127H18.9115C19.2642 0.996895 19.614 1.06138 19.9401 1.18974ZM9.32232 15.4773H13.2363C13.4309 15.4773 13.6176 15.4035 13.7552 15.2721C13.8928 15.1408 13.9701 14.9626 13.9701 14.7768C13.9701 14.591 13.8928 14.4128 13.7552 14.2815C13.6176 14.1501 13.4309 14.0763 13.2363 14.0763H9.32232C9.12769 14.0763 8.94102 14.1501 8.8034 14.2815C8.66577 14.4128 8.58845 14.591 8.58845 14.7768C8.58845 14.9626 8.66577 15.1408 8.8034 15.2721C8.94102 15.4035 9.12769 15.4773 9.32232 15.4773ZM9.32232 11.7413H17.1502C17.3449 11.7413 17.5315 11.6675 17.6692 11.5361C17.8068 11.4047 17.8841 11.2265 17.8841 11.0407C17.8841 10.855 17.8068 10.6768 17.6692 10.5454C17.5315 10.414 17.3449 10.3402 17.1502 10.3402H9.32232C9.12769 10.3402 8.94102 10.414 8.8034 10.5454C8.66577 10.6768 8.58845 10.855 8.58845 11.0407C8.58845 11.2265 8.66577 11.4047 8.8034 11.5361C8.94102 11.6675 9.12769 11.7413 9.32232 11.7413ZM8.23001 6.26223C8.00063 6.48118 7.68953 6.60419 7.36514 6.60419H3.94043C4.00657 6.50398 4.07844 6.40732 4.1557 6.31465L8.18707 1.88743C8.30605 1.75201 8.44062 1.62982 8.58825 1.52316V5.43667C8.58825 5.74632 8.45939 6.04328 8.23001 6.26223Z" fill="#29903B"/>
</svg>
