<svg width="78" height="35" viewBox="0 0 78 35" fill="none" xmlns="http://www.w3.org/2000/svg">
<mask id="mask0_36_4944" style="mask-type:luminance" maskUnits="userSpaceOnUse" x="0" y="0" width="78" height="35">
<path d="M77.9918 0.82373H0.00805664V34.4232H77.9918V0.82373Z" fill="white"/>
</mask>
<g mask="url(#mask0_36_4944)">
<path d="M13.868 11.0335C14.1319 10.3956 14.4855 9.79297 14.9221 9.24533C15.1312 8.98314 15.3567 8.73688 15.5966 8.50765C15.1309 8.02129 14.6004 7.59456 14.0161 7.24115C12.4151 6.27294 10.5184 5.92112 8.67851 6.25108C6.83864 6.58108 5.18059 7.5704 4.01249 9.03525C2.8444 10.5001 2.24569 12.3409 2.32761 14.2155C2.40954 16.0902 3.16651 17.8712 4.4579 19.2277C5.74926 20.5843 7.48723 21.424 9.34885 21.5909C11.2105 21.7579 13.0692 21.2407 14.5796 20.1354C14.9461 19.8672 15.2861 19.5688 15.5967 19.2444C15.5121 19.1636 15.4292 19.0806 15.3482 18.9955C14.714 18.3293 14.2145 17.556 13.868 16.7185C13.5821 17.1071 13.237 17.4529 12.842 17.7421C11.9091 18.4247 10.7611 18.7441 9.6113 18.641C8.4615 18.5379 7.38807 18.0193 6.59046 17.1814C5.79286 16.3436 5.32532 15.2436 5.27473 14.0857C5.22415 12.9279 5.59392 11.7909 6.31538 10.8862C7.0368 9.98143 8.06088 9.37038 9.19729 9.16658C10.3337 8.96282 11.5051 9.1801 12.4939 9.77811C13.0339 10.1047 13.4994 10.5326 13.868 11.0335Z" fill="#D11414"/>
<path d="M16.3622 19.8821C15.9983 20.2685 15.5978 20.623 15.1644 20.9402C13.4597 22.1877 11.3619 22.7714 9.26077 22.583C7.15967 22.3946 5.19813 21.4468 3.74063 19.9158C2.28313 18.3848 1.42878 16.3746 1.33632 14.2588C1.24386 12.143 1.91959 10.0654 3.23794 8.41212C4.55629 6.75885 6.42763 5.64222 8.50421 5.2698C10.5808 4.89738 12.7215 5.29447 14.5284 6.38726C15.2089 6.79878 15.8246 7.29846 16.3622 7.86922C16.7244 7.60655 17.1096 7.37745 17.5131 7.18471C16.8491 6.43668 16.0723 5.78668 15.2039 5.2615C13.1253 4.00441 10.6628 3.54765 8.27403 3.97608C5.88522 4.40449 3.73259 5.68895 2.21605 7.59078C0.699508 9.4926 -0.077808 11.8825 0.0285542 14.3164C0.134906 16.7503 1.1177 19.0627 2.79432 20.8238C4.47091 22.585 6.72735 23.6753 9.14431 23.892C11.5613 24.1087 13.9744 23.4372 15.9354 22.0022C16.5146 21.5784 17.0427 21.0965 17.5131 20.5665C17.1104 20.3742 16.7251 20.1452 16.3622 19.8821Z" fill="#505050"/>
<path d="M26.3951 19.7612H23.4357V18.817C22.5139 19.6158 21.4478 20.0036 20.242 20.0036C18.4682 20.0036 17.0235 19.3503 15.9123 18.0158C14.9431 16.8522 14.4451 15.4716 14.4451 13.8947C14.4451 12.1747 14.9905 10.7202 16.1016 9.53121C17.1903 8.34449 18.5155 7.7627 20.0775 7.7627C21.378 7.7627 22.4913 8.15057 23.438 8.94941V8.00512H26.3951V19.7612ZM20.4787 10.6717C19.6019 10.6717 18.892 10.9857 18.3262 11.6414C17.7808 12.2717 17.5216 13.0243 17.5216 13.8947C17.5216 14.8159 17.8056 15.5685 18.3961 16.1734C18.964 16.7806 19.674 17.0946 20.5485 17.0946C21.7318 17.0946 23.5444 16.3766 23.5444 13.8797C23.5444 11.3828 21.7636 10.6717 20.4787 10.6717Z" fill="#D11414"/>
<path fill-rule="evenodd" clip-rule="evenodd" d="M47.8529 15.5331H39.3289C39.4505 15.7455 39.5946 15.9487 39.7683 16.1334C40.3363 16.7637 41.0708 17.0776 41.9454 17.0776C42.6763 17.0776 43.3061 16.8569 43.8382 16.4196L46.3254 18.1693C46.3176 18.1772 46.3099 18.185 46.3022 18.1928C45.1415 19.3795 43.6765 19.9867 41.9477 19.9867C40.219 19.9867 38.7516 19.3795 37.5933 18.1928C36.8269 17.4263 36.3108 16.5397 36.0471 15.5331H30.4913V19.7489H27.2976V11.3981C27.2976 9.51652 28.7874 7.99047 30.6243 7.99047H36.1643V10.8995H31.0661C30.7505 10.8995 30.4936 11.1627 30.4936 11.4859V12.9035H35.9141C36.1012 11.6106 36.6647 10.4977 37.5978 9.54194C38.7586 8.35522 40.2236 7.74805 41.9523 7.74805C43.6811 7.74805 45.1484 8.35522 46.3068 9.54194C47.4652 10.7286 48.058 12.1601 48.058 13.8801C48.058 14.4642 47.9881 15.0136 47.8529 15.5331ZM41.9547 10.6571C41.0777 10.6571 40.3452 10.971 39.7772 11.6013C39.4278 11.973 39.1868 12.4117 39.0517 12.9035H44.8576C44.7244 12.4117 44.49 11.9754 44.1541 11.6013C43.5637 10.971 42.8312 10.6571 41.9547 10.6571Z" fill="#D11414"/>
<path d="M48.8196 19.745V3.81934H51.8963V8.83621C52.7956 8.10897 53.8842 7.74651 55.1372 7.74651C56.6991 7.74651 58.0244 8.32831 59.1357 9.51498C60.2242 10.704 60.7698 12.1585 60.7698 13.8785C60.7698 15.4554 60.2717 16.836 59.3025 17.9996C58.1912 19.3318 56.7466 19.9875 54.9727 19.9875C53.7649 19.9875 52.701 19.5996 51.7789 18.8007V19.745H48.8196ZM51.8963 15.6239C52.5589 16.5936 53.4807 17.0784 54.6642 17.0784C55.5384 17.0784 56.2508 16.7645 56.8165 16.1572C57.4092 15.5501 57.6911 14.7997 57.6911 13.8785C57.6911 13.0058 57.4297 12.2555 56.8864 11.6252C56.3184 10.9718 55.6083 10.6555 54.7341 10.6555C53.5505 10.6555 52.6041 11.1403 51.894 12.11V15.6239H51.8963Z" fill="#505050"/>
<path d="M64.3195 19.7454H61.2432V7.98926H64.3195V19.7454Z" fill="#505050"/>
<path d="M74.8731 9.92856L69.313 17.0788H75.3465V19.7454H65.1702V17.806L70.6607 10.6558H65.6436V7.98926H74.8731V9.92856Z" fill="#505050"/>
<path d="M3.28975 30.3865H3.75452V27.6026H4.62326V27.2112H2.42102V27.6026H3.28975V30.3865ZM5.57999 29.0524H6.13163L6.75277 30.3865H7.26533L6.5877 29.0079C7.01338 28.9101 7.20015 28.6388 7.20015 28.114C7.20015 27.8071 7.13065 27.5981 6.97863 27.4425C6.81792 27.2779 6.60075 27.2112 6.21851 27.2112H5.11524V30.3865H5.57999V29.0524ZM5.57131 28.6744V27.5937H6.17507C6.566 27.5937 6.73972 27.7582 6.73972 28.1362C6.73972 28.5053 6.57469 28.6744 6.20114 28.6744H5.57131ZM9.57282 29.7239L9.79002 30.3865H10.2939L9.16452 27.2112H8.71714L7.5878 30.3865H8.09167L8.30884 29.7239H9.57282ZM9.45991 29.3414H8.42178L8.94299 27.7893L9.45991 29.3414ZM10.5693 30.3865H11.021V28.0117L12.4023 30.3865H12.854V27.2112H12.4023V29.586L11.021 27.2112H10.5693V30.3865ZM14.6861 29.0524H15.2682V29.297C15.2682 29.7995 15.0553 30.0441 14.6166 30.0441C14.1432 30.0441 13.9651 29.7906 13.9651 29.1057V28.5009C13.9651 27.8205 14.1432 27.5625 14.6123 27.5625C14.9554 27.5625 15.1596 27.7315 15.203 28.0562L15.633 28.025C15.6026 27.4691 15.2421 27.1756 14.5949 27.1756C14.204 27.1756 13.939 27.2824 13.7435 27.5136C13.5655 27.7226 13.5003 27.9806 13.5003 28.4698V29.1324C13.5003 29.586 13.5524 29.8306 13.7001 30.0352C13.8912 30.3065 14.1779 30.431 14.6253 30.431C15.0249 30.431 15.3073 30.3154 15.5027 30.0752C15.6678 29.8706 15.7286 29.6349 15.7286 29.1947V28.6833H14.6861V29.0524ZM17.6542 30.3865H18.119V27.6026H18.9877V27.2112H16.7855V27.6026H17.6542V30.3865ZM19.4754 30.3865H19.9401V28.9768H21.1303V30.3865H21.5951V27.2112H21.1303V28.5854H19.9401V27.2112H19.4754V30.3865ZM22.2453 29.1858C22.2453 29.6038 22.3061 29.8484 22.4581 30.0486C22.6535 30.3109 22.9359 30.431 23.3659 30.431C23.7612 30.431 24.0218 30.3332 24.2259 30.1019C24.4127 29.8973 24.4822 29.6394 24.4822 29.1858V28.412C24.4822 27.9939 24.4214 27.7493 24.2694 27.5492C24.0739 27.2868 23.7916 27.1667 23.3659 27.1667C22.9663 27.1667 22.7057 27.2646 22.5015 27.4958C22.3147 27.7048 22.2453 27.9583 22.2453 28.412V29.1858ZM24.0175 29.1413C24.0175 29.7773 23.822 30.0441 23.3659 30.0441C22.9055 30.0441 22.71 29.7773 22.71 29.1413V28.4564C22.71 27.8205 22.9055 27.5536 23.3659 27.5536C23.822 27.5536 24.0175 27.8205 24.0175 28.4564V29.1413ZM23.3616 26.5308L23.6395 26.8866H24.0826L23.5136 26.2551H23.2095L22.6449 26.8866H23.0879L23.3616 26.5308ZM25.1331 30.3865H25.5849V28.0117L26.9661 30.3865H27.4179V27.2112H26.9661V29.586L25.5849 27.2112H25.1331V30.3865ZM29.25 29.0524H29.832V29.297C29.832 29.7995 29.6192 30.0441 29.1805 30.0441C28.707 30.0441 28.5289 29.7906 28.5289 29.1057V28.5009C28.5289 27.8205 28.707 27.5625 29.1761 27.5625C29.5193 27.5625 29.7235 27.7315 29.7669 28.0562L30.1969 28.025C30.1665 27.4691 29.806 27.1756 29.1588 27.1756C28.7678 27.1756 28.5029 27.2824 28.3074 27.5136C28.1293 27.7226 28.0642 27.9806 28.0642 28.4698V29.1324C28.0642 29.586 28.1163 29.8306 28.264 30.0352C28.4551 30.3065 28.7418 30.431 29.1892 30.431C29.5888 30.431 29.8711 30.3154 30.0666 30.0752C30.2317 29.8706 30.2925 29.6349 30.2925 29.1947V28.6833H29.25V29.0524ZM32.2181 30.3865H32.6829V27.6026H33.5516V27.2112H31.3494V27.6026H32.2181V30.3865ZM34.0393 30.3865H34.504V27.2112H34.0393V30.3865ZM35.2286 30.3865H35.6804V28.0117L37.0617 30.3865H37.5134V27.2112H37.0617V29.586L35.6804 27.2112H35.2286V30.3865ZM38.9988 28.5898H38.6513V28.9723H38.9988V30.3865H40.0193C40.8013 30.3954 41.1878 29.9863 41.1662 29.168V28.4298C41.1878 27.6115 40.8013 27.1979 40.0193 27.2112H38.9988V28.5898ZM39.4637 28.5898V27.5937H39.9371C40.48 27.5803 40.697 27.8294 40.7017 28.4698V29.1235C40.697 29.7684 40.48 30.0174 39.9371 30.0041H39.4637V28.9723H40.1151V28.5898H39.4637ZM41.8215 30.3865H42.286V27.2112H41.8215V30.3865ZM43.015 30.3865H44.887V29.9952H43.4753V28.9768H44.6658V28.5854H43.4753V27.6026H44.8743V27.2112H43.015V30.3865ZM43.9533 26.5308L44.2313 26.8866H44.67L44.1055 26.2551H43.8012L43.2324 26.8866H43.6753L43.9533 26.5308ZM43.7491 31.276H44.1792V30.769H43.7491V31.276ZM45.4218 30.3865H45.8736V28.0117L47.2548 30.3865H47.7066V27.2112H47.2548V29.586L45.8736 27.2112H45.4218V30.3865ZM49.7477 30.3865H50.2126V27.6026H51.0814V27.2112H48.8793V27.6026H49.7477V30.3865ZM51.4796 27.2112V29.2125C51.4796 29.6349 51.5143 29.8306 51.6274 30.0085C51.8139 30.2976 52.1093 30.431 52.57 30.431C52.9998 30.431 53.2693 30.3198 53.4647 30.0619C53.6122 29.8751 53.6558 29.6705 53.6558 29.2125V28.1763C53.8817 28.0562 53.9597 28.0117 54.0466 27.9494C54.2899 27.7715 54.3941 27.5937 54.3941 27.358C54.3941 27.2868 54.3899 27.2423 54.3636 27.1623H53.9729C54.0207 27.2557 54.0381 27.318 54.0381 27.4113C54.0381 27.6204 53.9381 27.7493 53.6558 27.8828V27.2112H53.1909V29.2125C53.1909 29.4793 53.1693 29.6305 53.1172 29.7461C53.0172 29.9551 52.8523 30.0441 52.57 30.0441C52.3005 30.0441 52.1483 29.9685 52.0398 29.7862C51.9703 29.6616 51.9445 29.5193 51.9445 29.2125V27.2112H51.4796ZM52.787 26.9399C52.7913 26.8021 52.7959 26.7798 52.8654 26.6909C52.9867 26.5397 53.004 26.5086 53.004 26.4062C53.004 26.1928 52.8523 26.0683 52.5916 26.0683C52.4611 26.0683 52.3742 26.0861 52.2225 26.1394L52.2962 26.3929C52.4005 26.344 52.4569 26.3307 52.5179 26.3307C52.5959 26.3307 52.6395 26.3662 52.6395 26.424C52.6395 26.4596 52.6264 26.4952 52.6001 26.5352C52.4916 26.6864 52.4831 26.7131 52.4785 26.8821V26.9399H52.787ZM55.912 30.3865H56.377V27.6026H57.2454V27.2112H55.0432V27.6026H55.912V30.3865ZM57.5829 29.1858C57.5829 29.6038 57.6439 29.8484 57.796 30.0486C57.9914 30.3109 58.2737 30.431 58.7038 30.431C59.0988 30.431 59.3595 30.3332 59.5638 30.1019C59.7506 29.8973 59.8202 29.6394 59.8202 29.1858V28.412C59.8202 27.9939 59.7591 27.7493 59.607 27.5492C59.4116 27.2868 59.1293 27.1667 58.7038 27.1667C58.3042 27.1667 58.0435 27.2646 57.8393 27.4958C57.6524 27.7048 57.5829 27.9583 57.5829 28.412V29.1858ZM59.3552 29.1413C59.3552 29.7773 59.1599 30.0441 58.7038 30.0441C58.2432 30.0441 58.0478 29.7773 58.0478 29.1413V28.4564C58.0478 27.8205 58.2432 27.5536 58.7038 27.5536C59.1599 27.5536 59.3552 27.8205 59.3552 28.4564V29.1413ZM58.834 26.4552C58.8382 26.3618 58.8382 26.3484 58.895 26.2951C58.9903 26.1928 59.0077 26.1616 59.0077 26.0861C59.0077 25.926 58.8776 25.8281 58.6602 25.8281C58.5428 25.8281 58.4606 25.8459 58.3474 25.8859L58.4127 26.0905C58.4953 26.0505 58.5428 26.0371 58.5949 26.0371C58.6602 26.0371 58.6949 26.0549 58.6949 26.0905C58.6949 26.1127 58.6818 26.1439 58.6644 26.1661C58.5691 26.2817 58.5648 26.2995 58.5602 26.4552H58.834ZM58.6949 26.762L58.9645 27.0022H59.3857L58.8382 26.5264H58.5474L58.0045 27.0022H58.4212L58.6949 26.762ZM60.4708 30.3865H60.9226V28.0117L62.3038 30.3865H62.7556V27.2112H62.3038V29.586L60.9226 27.2112H60.4708V30.3865ZM64.5878 29.0524H65.1697V29.297C65.1697 29.7995 64.957 30.0441 64.5183 30.0441C64.0449 30.0441 63.8669 29.7906 63.8669 29.1057V28.5009C63.8669 27.8205 64.0449 27.5625 64.514 27.5625C64.8569 27.5625 65.0612 27.7315 65.1045 28.0562L65.5346 28.025C65.5041 27.4691 65.1438 27.1756 64.4967 27.1756C64.1055 27.1756 63.8406 27.2824 63.6452 27.5136C63.4672 27.7226 63.402 27.9806 63.402 28.4698V29.1324C63.402 29.586 63.4541 29.8306 63.6016 30.0352C63.7927 30.3065 64.0796 30.431 64.5268 30.431C64.9264 30.431 65.2087 30.3154 65.4045 30.0752C65.5694 29.8706 65.6304 29.6349 65.6304 29.1947V28.6833H64.5878V29.0524ZM67 30.3865H67.4645V28.9768H68.6546V30.3865H69.1195V27.2112H68.6546V28.5854H67.4645V27.2112H67V30.3865ZM72.1283 27.1623C72.1762 27.2512 72.1936 27.318 72.1936 27.4069C72.1936 27.5714 72.1241 27.6782 71.9287 27.8116C71.7723 27.3758 71.4333 27.1667 70.8861 27.1667C70.4907 27.1667 70.2301 27.269 70.0262 27.4958C69.8393 27.7048 69.7698 27.9583 69.7698 28.412V29.1858C69.7698 29.6038 69.8304 29.8484 69.9825 30.0486C70.1779 30.3109 70.4606 30.431 70.8904 30.431C71.2858 30.431 71.5464 30.3332 71.7503 30.1019C71.9372 29.8973 72.0067 29.6394 72.0067 29.1858V28.412C72.0067 28.283 72.0024 28.2029 71.9808 28.0784C72.1499 27.9761 72.211 27.9406 72.2936 27.8694C72.4585 27.7315 72.5496 27.5447 72.5496 27.3491C72.5496 27.2779 72.5411 27.2379 72.5191 27.1623H72.1283ZM71.5418 29.1413C71.5418 29.7773 71.3464 30.0441 70.8904 30.0441C70.4301 30.0441 70.2347 29.7773 70.2347 29.1413V28.4564C70.2347 27.8249 70.4301 27.5581 70.8904 27.5581C71.3464 27.5581 71.5418 27.8249 71.5418 28.4564V29.1413ZM70.6255 31.276H71.0556V30.769H70.6255V31.276ZM73.2624 29.1947H73.8185C74.1918 29.1947 74.4135 29.1324 74.5784 28.9812C74.7653 28.8078 74.8479 28.5631 74.8479 28.1985C74.8479 27.8605 74.7784 27.6382 74.6178 27.4647C74.4482 27.2824 74.2266 27.2112 73.8185 27.2112H72.7975V30.3865H73.2624V29.1947ZM73.2535 28.8078V27.5937H73.8185C74.2135 27.5937 74.3872 27.776 74.3872 28.2029C74.3872 28.621 74.2135 28.8078 73.8185 28.8078H73.2535Z" fill="#525252"/>
</g>
</svg>
