<svg width="32" height="32" viewBox="0 0 32 32" fill="none" xmlns="http://www.w3.org/2000/svg">
<path d="M14.4134 22.6C14.1601 22.6 13.9067 22.5067 13.7067 22.3067L11.7067 20.3067C11.3201 19.92 11.3201 19.28 11.7067 18.8933C12.0934 18.5067 12.7334 18.5067 13.1201 18.8933L14.4134 20.1867L19.0401 15.56C19.4267 15.1733 20.0667 15.1733 20.4534 15.56C20.8401 15.9467 20.8401 16.5867 20.4534 16.9733L15.1201 22.3067C14.9334 22.5067 14.6667 22.6 14.4134 22.6Z" fill="#33B44A"/>
<path d="M18.6667 8.99999H13.3334C12.0534 8.99999 9.66675 8.99999 9.66675 5.33332C9.66675 1.66666 12.0534 1.66666 13.3334 1.66666H18.6667C19.9467 1.66666 22.3334 1.66666 22.3334 5.33332C22.3334 6.61332 22.3334 8.99999 18.6667 8.99999ZM13.3334 3.66666C12.0134 3.66666 11.6667 3.66666 11.6667 5.33332C11.6667 6.99999 12.0134 6.99999 13.3334 6.99999H18.6667C20.3334 6.99999 20.3334 6.65332 20.3334 5.33332C20.3334 3.66666 19.9867 3.66666 18.6667 3.66666H13.3334Z" fill="#33B44A"/>
<path d="M20 30.3333H12C4.50667 30.3333 3 26.8933 3 21.3333V13.3333C3 7.25334 5.2 4.65334 10.6133 4.37334C11.16 4.34668 11.64 4.76001 11.6667 5.32001C11.6933 5.88001 11.2667 6.33334 10.72 6.36001C6.93333 6.57334 5 7.70668 5 13.3333V21.3333C5 26.2667 5.97333 28.3333 12 28.3333H20C26.0267 28.3333 27 26.2667 27 21.3333V13.3333C27 7.70668 25.0667 6.57334 21.28 6.36001C20.7333 6.33334 20.3067 5.85334 20.3333 5.30668C20.36 4.76001 20.8267 4.33334 21.3867 4.36001C26.8 4.65334 29 7.25334 29 13.32V21.32C29 26.8933 27.4933 30.3333 20 30.3333Z" fill="#33B44A"/>
</svg>
