<svg width="29" height="33" viewBox="0 0 29 33" fill="none" xmlns="http://www.w3.org/2000/svg">
<path fill-rule="evenodd" clip-rule="evenodd" d="M2.94159 24.7752C1.47599 22.9448 0.73999 21.108 0.73999 19.3096V5.50478C0.73999 5.08878 1.01519 4.72398 1.41839 4.60878L14.2248 0.839181C14.404 0.787981 14.596 0.787981 14.7752 0.839181L27.5816 4.60238C27.9848 4.72398 28.26 5.08878 28.26 5.49838V19.3032C28.26 21.1016 27.5176 22.9384 26.0584 24.7688C24.9384 26.164 23.396 27.572 21.4632 28.9416C18.2184 31.2456 15.0248 32.6536 14.8904 32.7112C14.7688 32.7688 14.6344 32.7944 14.5 32.7944C14.3656 32.7944 14.2312 32.7688 14.1096 32.7112C13.9752 32.6536 10.7816 31.2392 7.53679 28.9416C5.60399 27.572 4.06159 26.1704 2.94159 24.7688V24.7752ZM24.5544 23.5784C25.828 21.9848 26.34 20.5576 26.34 19.316V6.24078L14.5 2.75918L2.65999 6.24078V19.3096C2.65999 20.5512 3.17199 21.9784 4.44559 23.572C5.41839 24.7944 6.81999 26.0808 8.65039 27.3736C11.1272 29.1272 13.5784 30.3432 14.5 30.7784C15.4216 30.3432 17.8792 29.1272 20.3496 27.3736C22.18 26.0744 23.5752 24.788 24.5544 23.572V23.5784Z" fill="#33B44A"/>
<path d="M9.49263 23.3668C9.33263 23.3668 9.18543 23.3156 9.05743 23.226C8.83343 23.0468 8.73743 22.7588 8.73743 22.3876L8.83343 13.2036C8.83343 12.794 9.01263 12.3652 9.33263 11.9556C9.58863 11.6356 9.92783 11.3284 10.2798 11.098C10.5358 10.938 10.9198 10.7396 11.291 10.7396C11.5982 10.7588 11.803 10.8484 11.9502 11.0276C12.1102 11.2068 12.1934 11.4564 12.1934 11.7444L12.1294 17.178C13.3966 15.802 19.7262 8.49316 19.7262 8.49316C19.7262 8.49316 20.0142 8.69156 20.0974 8.78116C20.2446 8.94116 20.2766 9.13956 20.2574 9.38916C20.2574 9.49796 20.2062 9.60676 20.1742 9.72836C20.1102 9.90756 20.0142 10.138 19.8862 10.4068C19.6302 10.906 19.2462 11.5652 18.747 12.3524C17.7486 13.9396 16.4174 15.8532 15.067 17.658C14.0046 19.0724 12.4814 20.9988 11.259 22.2148C10.6638 22.8036 10.1966 23.162 9.84463 23.3028C9.71663 23.3412 9.60143 23.3732 9.49263 23.3732V23.3668Z" fill="#33B44A"/>
</svg>
