<svg width="24" height="25" viewBox="0 0 24 25" fill="none" xmlns="http://www.w3.org/2000/svg">
<path fill-rule="evenodd" clip-rule="evenodd" d="M1 12.7363C1 6.67198 5.93565 1.73633 12 1.73633C18.0643 1.73633 23 6.67198 23 12.7363C23 18.8007 18.0643 23.7363 12 23.7363C5.93565 23.7363 1 18.8007 1 12.7363ZM2.91304 12.7363C2.91304 17.7581 6.98783 21.8328 12 21.8328C17.0217 21.8328 21.0965 17.7485 21.0965 12.7363C21.0965 7.72415 17.0122 3.64937 12 3.64937C6.98783 3.64937 2.91304 7.71459 2.91304 12.7363ZM13.1957 10.5859C13.1957 10.1745 12.6984 9.96411 12.201 9.93542H12.1914C11.5601 9.89716 10.8618 10.1363 10.8044 10.6145C10.7662 10.8824 10.881 11.1406 11.101 11.3128C11.3497 11.5041 11.8471 11.6763 12.2966 11.8293L12.3923 11.858C12.9184 12.0302 13.521 12.2311 14.0662 12.6519C14.7166 13.1589 15.1088 13.9911 15.1088 14.8806C15.1088 16.0859 14.2862 17.0137 12.9566 17.3293V17.7406C12.9566 17.865 12.9375 17.9893 12.8897 18.1041C12.8514 18.2189 12.7749 18.3241 12.6888 18.4198C12.5931 18.5059 12.4879 18.5824 12.3731 18.6302C12.2488 18.678 12.134 18.7067 12.0001 18.7067C11.8662 18.7067 11.7418 18.678 11.6271 18.6302C11.5027 18.5824 11.3975 18.5059 11.3114 18.4198C11.2157 18.3241 11.1488 18.2189 11.101 18.1041C11.0531 17.9798 11.034 17.8554 11.034 17.7311V17.3293C9.70444 17.0137 8.88184 16.0859 8.88184 14.8806C8.88184 14.7659 8.90097 14.6319 8.94879 14.5172C8.99662 14.4024 9.07314 14.2972 9.15923 14.2015C9.25488 14.1154 9.3601 14.0389 9.47488 13.9911C9.71401 13.8954 9.97227 13.8954 10.2114 13.9911C10.3357 14.0389 10.441 14.1154 10.5271 14.2015C10.6227 14.2876 10.6897 14.4024 10.7375 14.5172C10.7853 14.6415 10.8044 14.7659 10.8044 14.8902C10.8044 15.3015 11.3114 15.5024 11.7514 15.5502C12.4018 15.6172 13.1384 15.3876 13.2436 14.8902C13.301 14.5937 13.1001 14.3163 12.8897 14.1537C12.641 13.9624 12.1436 13.7902 11.694 13.6372L11.5984 13.6085C11.0723 13.4363 10.4792 13.2354 9.93401 12.8145C9.28358 12.3172 8.8914 11.4754 8.8914 10.5859C8.8914 9.38064 9.71401 8.45281 11.0436 8.13716V7.72585C11.034 7.46759 11.1297 7.22846 11.3114 7.04672C11.4931 6.86498 11.7227 6.75977 11.981 6.75977C12.1149 6.76933 12.2392 6.7789 12.354 6.82672C12.4688 6.87455 12.574 6.9415 12.6697 7.03716C12.7557 7.12324 12.8323 7.22846 12.8801 7.35281C12.9279 7.47716 12.9471 7.6015 12.9471 7.72585V8.13716C14.2766 8.45281 15.0992 9.38064 15.0992 10.5859C15.0992 10.8441 15.0036 11.0832 14.8218 11.265C14.4679 11.6285 13.8271 11.6285 13.4731 11.265C13.2914 11.0832 13.1957 10.8441 13.1957 10.5859Z" fill="white"/>
</svg>
