<svg width="23" height="20" viewBox="0 0 23 20" fill="none" xmlns="http://www.w3.org/2000/svg">
<path fill-rule="evenodd" clip-rule="evenodd" d="M2.8913 0.759766H20.1087C21.4294 0.759766 22.5 1.83427 22.5 3.15975V5.07973C22.5 5.25538 22.4045 5.41703 22.2508 5.50117L11.7291 11.2611C11.5863 11.3393 11.4137 11.3393 11.2709 11.2611L0.749174 5.50117C0.595539 5.41703 0.499968 5.25538 0.5 5.07973V3.15975C0.5 1.83427 1.57062 0.759766 2.8913 0.759766ZM10.8147 12.4624C11.2425 12.6923 11.7594 12.6923 12.1873 12.4624L22.489 6.92018L22.5 6.92678V16.8809C22.5 18.1836 21.4294 19.2397 20.1087 19.2397H2.8913C1.57062 19.2397 0.5 18.1836 0.5 16.8809V6.92678L0.511 6.91971L10.8147 12.4624Z" fill="#29903B"/>
</svg>
