<svg width="28" height="19" viewBox="0 0 28 19" fill="none" xmlns="http://www.w3.org/2000/svg">
<path d="M14 8.91602C15.357 8.91602 16.4609 7.81204 16.4609 6.45508C16.4609 5.09812 15.357 3.99414 14 3.99414C12.643 3.99414 11.5391 5.09812 11.5391 6.45508C11.5391 7.81204 12.643 8.91602 14 8.91602ZM14 5.63477C14.4523 5.63477 14.8203 6.00276 14.8203 6.45508C14.8203 6.9074 14.4523 7.27539 14 7.27539C13.5477 7.27539 13.1797 6.9074 13.1797 6.45508C13.1797 6.00276 13.5477 5.63477 14 5.63477Z" fill="white"/>
<path d="M18.1016 13.0176C18.1016 14.3745 19.2055 15.4785 20.5625 15.4785C21.9195 15.4785 23.0234 14.3745 23.0234 13.0176C23.0234 11.6606 21.9195 10.5566 20.5625 10.5566C19.2055 10.5566 18.1016 11.6606 18.1016 13.0176ZM21.3828 13.0176C21.3828 13.4699 21.0148 13.8379 20.5625 13.8379C20.1102 13.8379 19.7422 13.4699 19.7422 13.0176C19.7422 12.5653 20.1102 12.1973 20.5625 12.1973C21.0148 12.1973 21.3828 12.5653 21.3828 13.0176Z" fill="white"/>
<path d="M12.8369 13.0176L20.5583 5.29617L21.7182 6.45609L13.9968 14.1775L12.8369 13.0176Z" fill="white"/>
<path d="M27.1797 8.91602H28V0.712891C26.9619 0.712891 0.910383 0.712891 0 0.712891V8.91602H0.820312C1.27263 8.91602 1.64062 9.28401 1.64062 9.73633C1.64062 10.1886 1.27263 10.5566 0.820312 10.5566H0V18.7598H28V10.5566H27.1797C26.7274 10.5566 26.3594 10.1886 26.3594 9.73633C26.3594 9.28401 26.7274 8.91602 27.1797 8.91602ZM26.3594 7.41594C25.4045 7.75451 24.7188 8.6668 24.7188 9.73633C24.7188 10.8059 25.4045 11.7181 26.3594 12.0567V17.1191H8.25781V15.4785H6.61719V17.1191H1.64062V12.0567C2.59552 11.7181 3.28125 10.8059 3.28125 9.73633C3.28125 8.6668 2.59552 7.75451 1.64062 7.41594V2.35352H6.61719V3.99414H8.25781V2.35352H26.3594V7.41594Z" fill="white"/>
<path d="M6.61719 10.5566H8.25781V13.8379H6.61719V10.5566Z" fill="white"/>
<path d="M6.61719 5.63477H8.25781V8.91602H6.61719V5.63477Z" fill="white"/>
</svg>
