<svg width="109" height="28" viewBox="0 0 109 28" fill="none" xmlns="http://www.w3.org/2000/svg">
<path fill-rule="evenodd" clip-rule="evenodd" d="M107.322 23.2177C104.842 24.0805 103.791 22.2678 102.85 20.3673L100.261 15.1434C99.1321 16.118 98.0576 17.0117 97.0586 17.8031C97.8398 19.0966 99.4166 22.4251 99.907 23.3384C101.342 26.0088 102.813 28.6526 107.033 27.2328C108.778 26.6448 108.987 22.6379 107.322 23.2177ZM94.8642 22.2141L95.1664 19.2431C92.4873 21.1859 90.6505 22.0335 90.2955 21.1082L89.7447 26.5248C89.5817 28.1296 94.2625 28.1309 94.4261 26.5248L94.8642 22.2141ZM72.0539 18.1845C71.3672 24.6211 75.0232 27.6995 80.8011 27.6995C83.3511 27.6995 85.3976 26.8203 86.6911 25.9007C87.8607 25.0209 88.2743 21.1429 86.7421 22.0625C85.5014 22.8621 83.6715 23.5815 81.8385 23.5815C78.8101 23.5815 76.2689 22.3821 76.7165 18.1839C77.1684 13.9459 79.9702 12.7067 82.9986 12.7067C84.8317 12.7067 86.5035 13.4665 87.5743 14.2661C88.8666 15.2255 89.3242 11.3077 88.3466 10.3881C87.2539 9.42873 85.3906 8.58871 82.8406 8.58871C77.062 8.58934 72.7533 11.6279 72.0539 18.1845ZM70.3405 16.7856C70.9032 11.5079 68.3016 8.62976 62.4846 8.62976C56.4278 8.62976 52.8876 12.3082 52.2777 18.0254C51.5525 24.822 56.1508 27.6604 61.0519 27.6604C63.2834 27.6604 65.4589 27.061 67.4153 25.9014C68.6082 25.182 68.9575 21.9034 67.4153 22.5432C65.2852 23.4628 63.4767 23.9826 61.8029 23.9826C59.0137 23.9826 56.5688 22.6234 56.7917 19.785C57.8504 19.9448 59.037 20.025 60.1134 20.025C65.1335 20.0237 70.1397 18.6646 70.3405 16.7856ZM57.2298 16.4255C57.598 13.3472 59.754 12.1875 62.304 12.1875C65.0932 12.1875 66.4264 13.5069 66.2174 15.4662C66.1538 16.0655 63.5082 16.5853 60.2009 16.5853C59.2447 16.5853 58.2533 16.5456 57.2298 16.4255ZM50.4667 23.4622C50.0909 23.622 49.768 23.6624 49.4891 23.6624C48.6922 23.6624 48.4328 23.1028 48.5524 21.983L48.7193 20.4235L49.2612 15.3462C49.7088 11.1479 47.5075 8.62976 43.5223 8.62976C40.8924 8.62976 38.4078 9.50958 36.3387 11.3488L37.4655 0.787242C37.6657 -1.09175 32.7551 0.867455 32.5543 2.75277L30.0207 26.5008C29.8501 28.1 34.5523 28.1 34.7222 26.5008L35.9038 15.4264C37.7865 13.4672 39.6164 12.7478 41.17 12.7478C43.5607 12.7478 44.6988 14.0274 44.3834 16.9858L44.1102 19.5444L43.7772 22.6626C43.3637 26.5412 44.8568 27.8606 46.929 27.8606C47.9249 27.8606 48.9509 27.5802 50.0695 27.1804C51.8597 26.4603 52.1852 22.6626 50.4667 23.4622ZM8.72678 14.8573C7.81341 23.4956 12.9827 27.6844 19.6967 27.6844C22.817 27.6844 25.5885 26.7111 26.8362 25.9014C28.0907 25.0866 28.4363 21.273 26.9224 22.0973C25.671 22.7788 23.0115 23.603 20.7208 23.603C16.8502 23.603 13.8161 20.92 14.4575 14.8573C15.1071 8.71503 18.697 6.13938 22.5671 6.13938C24.8577 6.13938 27.3316 6.98004 28.4464 7.6849C29.7752 8.52555 30.2435 4.73598 29.1646 3.8808C28.0932 3.0313 25.5262 2.05801 22.4065 2.05801C15.6926 2.05801 9.64833 6.13938 8.72678 14.8573ZM4.39347 5.78885C5.9873 5.78885 7.22296 4.66903 7.41432 2.87024C7.59309 1.19146 6.60167 0.0318537 5.00721 0.0318537C3.33406 0.0318537 2.13428 1.19146 1.95488 2.87024C1.76352 4.66903 2.71969 5.78885 4.39347 5.78885ZM5.74495 23.3087C5.62095 23.3491 5.49694 23.3889 5.37797 23.3889C4.97951 23.3889 4.81459 23.0687 4.86998 22.5495L6.27938 9.33968C6.47955 7.46068 1.56901 9.41989 1.36443 11.3387L0.0444216 23.7085C-0.25332 26.5001 0.977934 27.6597 2.77068 27.6597C3.5676 27.6597 4.46586 27.4595 5.34524 27.0604C7.10777 26.221 7.49553 22.5893 5.74495 23.3087Z" fill="white"/>
</svg>
