<svg width="117" height="41" viewBox="0 0 117 41" fill="none" xmlns="http://www.w3.org/2000/svg">
<g clip-path="url(#clip0_36_5173)">
<path fill-rule="evenodd" clip-rule="evenodd" d="M8.05997 40.2276C2.87805 40.2276 0.666748 38.0219 0.666748 32.8525V8.43776C0.666748 5.98127 0.896127 4.08409 2.0159 2.81065C3.10517 1.5711 4.97183 1.01855 8.06675 1.01855H108.677C113.843 1.01855 116.147 3.30669 116.147 8.43776V32.8457C116.147 35.4445 115.558 37.2864 114.346 38.4751C113.144 39.6536 111.29 40.2276 108.678 40.2276H8.05997Z" fill="white" fill-opacity="0.1"/>
<path d="M10.8983 9.04688C10.6407 9.13727 10.4407 9.37795 10.4407 9.68868V32.0943C10.4407 32.4028 10.6373 32.6412 10.8915 32.7339L22.7943 20.8876L10.8983 9.04688Z" fill="#4AC8EF"/>
<path d="M26.1479 17.5498L11.4598 9.09895C11.2756 8.99274 11.0745 8.98483 10.8982 9.04698L22.7942 20.8877L26.1479 17.5498Z" fill="#66BE69"/>
<path d="M11.46 32.683L26.1537 24.2288L22.7944 20.8853L10.8916 32.7316C11.069 32.796 11.2735 32.7892 11.46 32.6819V32.683Z" fill="#EF4049"/>
<path d="M26.1538 24.23L30.9323 21.4809C31.3865 21.2199 31.3865 20.5634 30.9323 20.3023L26.1481 17.5498L22.7944 20.8877L26.1538 24.2312V24.23Z" fill="#FFD10A"/>
<path d="M57.4102 23.449C55.2915 23.449 53.6147 25.0377 53.6147 27.2444C53.6147 29.4512 55.2915 31.0399 57.4102 31.0399C59.5288 31.0399 61.2057 29.4512 61.2057 27.2444C61.2057 25.0377 59.5288 23.449 57.4102 23.449ZM57.4102 29.4501C56.2633 29.4501 55.2915 28.4795 55.2915 27.1552C55.2915 25.8309 56.2622 24.8603 57.4102 24.8603C58.5582 24.8603 59.5288 25.7427 59.5288 27.1552C59.5288 28.4795 58.5582 29.4501 57.4102 29.4501ZM49.2023 23.449C47.0836 23.449 45.4068 25.0377 45.4068 27.2444C45.4068 29.4512 47.0836 31.0399 49.2023 31.0399C51.3209 31.0399 52.9978 29.4512 52.9978 27.2444C52.9978 25.0377 51.3209 23.449 49.2023 23.449ZM49.2023 29.4501C48.0554 29.4501 47.0836 28.4795 47.0836 27.1552C47.0836 25.8309 48.0543 24.8603 49.2023 24.8603C50.3503 24.8603 51.3209 25.7427 51.3209 27.1552C51.3209 28.4795 50.3503 29.4501 49.2023 29.4501ZM39.4057 24.5959V26.1846H43.2011C43.113 27.067 42.7593 27.7733 42.3187 28.2139C41.7887 28.7439 40.9062 29.3608 39.4057 29.3608C37.0226 29.3608 35.2576 27.5077 35.2576 25.1247C35.2576 22.7416 37.1108 20.8885 39.4057 20.8885C40.6418 20.8885 41.6124 21.4184 42.3187 22.0354L43.4656 20.8885C42.4949 20.006 41.2588 19.2998 39.4938 19.2998C36.3164 19.2998 33.5808 21.9473 33.5808 25.1247C33.5808 28.3021 36.3164 30.9495 39.4938 30.9495C41.2588 30.9495 42.4949 30.4196 43.5537 29.2727C44.6124 28.2139 44.9661 26.7134 44.9661 25.5653C44.9661 25.2128 44.9661 24.8591 44.878 24.5947H39.4057V24.5959ZM79.4746 25.832C79.1221 24.9495 78.2384 23.449 76.2972 23.449C74.3559 23.449 72.7673 24.9495 72.7673 27.2444C72.7673 29.3631 74.3559 31.0399 76.4746 31.0399C78.1514 31.0399 79.2102 29.9812 79.5639 29.3631L78.3277 28.4806C77.8859 29.0987 77.3571 29.5394 76.4746 29.5394C75.5921 29.5394 75.0622 29.1868 74.6215 28.3925L79.652 26.2738L79.4757 25.832H79.4746ZM74.3559 27.0682C74.3559 25.6557 75.5028 24.8614 76.2972 24.8614C76.9153 24.8614 77.5334 25.2139 77.7096 25.6557L74.3559 27.0682ZM70.2079 30.6862H71.8848V19.6535H70.2079V30.6862ZM67.5605 24.2433C67.1187 23.8015 66.4136 23.3608 65.5311 23.3608C63.678 23.3608 61.913 25.0377 61.913 27.1563C61.913 29.2749 63.5898 30.8636 65.5311 30.8636C66.4136 30.8636 67.1198 30.4218 67.4723 29.9812H67.5605V30.5111C67.5605 31.9235 66.7661 32.7179 65.5311 32.7179C64.5605 32.7179 63.8543 32.0117 63.678 31.3936L62.2656 32.0117C62.7074 32.9823 63.7661 34.2185 65.6192 34.2185C67.4723 34.2185 69.1492 33.0716 69.1492 30.3348V23.6275H67.5605V24.2456V24.2433ZM65.6192 29.4501C64.4723 29.4501 63.5006 28.4795 63.5006 27.1552C63.5006 25.8309 64.4712 24.8603 65.6192 24.8603C66.7673 24.8603 67.6486 25.8309 67.6486 27.1552C67.6486 28.4795 66.7661 29.4501 65.6192 29.4501ZM87.1537 19.6535H83.1819V30.6862H84.8588V26.5382H87.1537C89.0068 26.5382 90.7718 25.2139 90.7718 23.0964C90.7718 20.9789 89.0068 19.6546 87.1537 19.6546V19.6535ZM87.2418 24.9484H84.8588V21.1529H87.2418C88.478 21.1529 89.1831 22.2117 89.1831 23.006C89.0949 23.9766 88.3887 24.9473 87.2418 24.9473V24.9484ZM97.391 23.3597C96.1548 23.3597 94.9198 23.8896 94.478 25.0365L95.9785 25.6546C96.3311 25.0365 96.861 24.8603 97.4791 24.8603C98.3616 24.8603 99.1559 25.3902 99.2441 26.2727V26.3608C98.9797 26.1846 98.2735 25.919 97.5672 25.919C95.9785 25.919 94.3899 26.8015 94.3899 28.3902C94.3899 29.8908 95.7141 30.8614 97.1254 30.8614C98.2723 30.8614 98.8023 30.3314 99.2441 29.8026H99.3322V30.6851H100.921V26.449C100.745 24.5077 99.2441 23.3597 97.391 23.3597ZM97.2147 29.449C96.6848 29.449 95.8904 29.1846 95.8904 28.4783C95.8904 27.5959 96.861 27.3314 97.6554 27.3314C98.3616 27.3314 98.7141 27.5077 99.1559 27.684C98.9797 28.7427 98.0972 29.449 97.2147 29.449ZM106.481 23.6241L104.628 28.3902H104.54L102.599 23.6241H100.834L103.747 30.3314L102.07 34.0388H103.747L108.249 23.6241H106.484H106.481ZM91.6542 30.6851H93.3311V19.6523H91.6542V30.6851Z" fill="white"/>
<path d="M36.6576 13.101H39.4079C39.4237 13.1631 39.4361 13.24 39.4474 13.3281C39.4576 13.4174 39.4632 13.5055 39.4632 13.5948C39.4632 13.9552 39.4079 14.2942 39.2983 14.6129C39.1887 14.9315 39.0158 15.2162 38.7807 15.4671C38.5299 15.7338 38.2293 15.9394 37.8802 16.0863C37.5299 16.2321 37.131 16.3055 36.6813 16.3055C36.2734 16.3055 35.8904 16.2321 35.5299 16.0863C35.1694 15.9405 34.8565 15.736 34.5898 15.475C34.3231 15.214 34.1118 14.9044 33.9548 14.5462C33.7977 14.188 33.7197 13.7982 33.7197 13.3744C33.7197 12.9507 33.7977 12.5609 33.9548 12.2027C34.1118 11.8445 34.3231 11.536 34.5898 11.2739C34.8565 11.0129 35.1694 10.8095 35.5299 10.6626C35.8904 10.5168 36.2745 10.4434 36.6813 10.4434C37.1355 10.4434 37.5412 10.5213 37.8994 10.6784C38.2576 10.8354 38.5638 11.0524 38.8203 11.3281L38.0915 12.0411C37.9084 11.8479 37.705 11.6999 37.4802 11.5982C37.2553 11.4965 36.9864 11.4456 36.6734 11.4456C36.4169 11.4456 36.1751 11.4919 35.9446 11.5823C35.7152 11.6739 35.5141 11.8027 35.3412 11.9699C35.1683 12.1371 35.0316 12.3394 34.9299 12.5767C34.8282 12.814 34.7774 13.0795 34.7774 13.3722C34.7774 13.6648 34.8282 13.9292 34.9299 14.1677C35.0316 14.4049 35.1706 14.6072 35.3446 14.7744C35.5197 14.9417 35.722 15.0705 35.9514 15.162C36.1807 15.2535 36.4271 15.2987 36.6881 15.2987C36.9853 15.2987 37.2372 15.2558 37.444 15.1699C37.6508 15.084 37.8271 14.9733 37.9728 14.8366C38.0768 14.7428 38.1672 14.6241 38.2429 14.4806C38.3186 14.3371 38.3774 14.1767 38.4192 13.9993H36.6565V13.0987L36.6576 13.101Z" fill="white"/>
<path d="M41.3977 11.5731V12.8736H43.6463V13.877H41.3977V15.1776H43.8972V16.1798H40.3401V10.5708H43.8972V11.5731H41.3977Z" fill="white"/>
<path d="M46.0587 16.1798V11.5731H44.4915V10.5708H48.6824V11.5731H47.1152V16.1798H46.0576H46.0587Z" fill="white"/>
<path d="M51.1592 10.5698H52.2168V16.1789H51.1592V10.5698Z" fill="white"/>
<path d="M54.5355 16.1798V11.5731H52.9683V10.5708H57.1592V11.5731H55.592V16.1798H54.5344H54.5355Z" fill="white"/>
<path d="M62.1344 16.3057C61.7164 16.3057 61.3288 16.23 60.9706 16.0786C60.6124 15.9272 60.3028 15.7192 60.0418 15.456C59.7808 15.1927 59.5763 14.882 59.4271 14.5238C59.278 14.1656 59.2034 13.7837 59.2034 13.3757C59.2034 12.9678 59.278 12.5859 59.4271 12.2277C59.5763 11.8695 59.7808 11.5588 60.0418 11.2955C60.3028 11.0322 60.6124 10.8243 60.9706 10.6729C61.3288 10.5215 61.7164 10.4458 62.1344 10.4458C62.5525 10.4458 62.9401 10.5215 63.2983 10.6729C63.6565 10.8243 63.965 11.0322 64.2271 11.2955C64.4881 11.5588 64.6938 11.8707 64.8418 12.2277C64.9909 12.5859 65.0655 12.9678 65.0655 13.3757C65.0655 13.7837 64.9909 14.1656 64.8418 14.5238C64.6926 14.882 64.4881 15.1927 64.2271 15.456C63.9661 15.7192 63.6565 15.9272 63.2983 16.0786C62.9401 16.23 62.5525 16.3057 62.1344 16.3057ZM62.1344 15.3034C62.3955 15.3034 62.6395 15.256 62.8666 15.1622C63.0938 15.0684 63.2926 14.9373 63.4621 14.7701C63.6316 14.6029 63.765 14.4006 63.8621 14.1633C63.9582 13.926 64.0068 13.6628 64.0068 13.3757C64.0068 13.0887 63.9582 12.8266 63.8621 12.5882C63.765 12.3509 63.6327 12.1486 63.4621 11.9814C63.2926 11.8142 63.0938 11.6842 62.8666 11.5893C62.6395 11.4944 62.3955 11.4481 62.1344 11.4481C61.8734 11.4481 61.6294 11.4955 61.4022 11.5893C61.1751 11.6831 60.9763 11.8142 60.8068 11.9814C60.6373 12.1486 60.5039 12.3509 60.4068 12.5882C60.3096 12.8255 60.2621 13.0887 60.2621 13.3757C60.2621 13.6628 60.3107 13.926 60.4068 14.1633C60.5028 14.4006 60.6361 14.6029 60.8068 14.7701C60.9763 14.9373 61.1751 15.0673 61.4022 15.1622C61.6294 15.2571 61.8734 15.3034 62.1344 15.3034Z" fill="white"/>
<path d="M65.9187 10.5698H67.1492L69.4057 14.3303H69.4679L69.4057 13.2489V10.5698H70.4554V16.1789H69.3424L66.9605 12.2071H66.8984L66.9605 13.2885V16.1789H65.9187V10.5698Z" fill="white"/>
</g>
<defs>
<clipPath id="clip0_36_5173">
<rect width="116.271" height="40" fill="white" transform="translate(0.27124 0.623047)"/>
</clipPath>
</defs>
</svg>
