<svg width="95" height="81" viewBox="0 0 95 81" fill="none" xmlns="http://www.w3.org/2000/svg">
<g style="mix-blend-mode:multiply" opacity="0.4">
<path d="M43.3457 80.1053L47.8675 80.1288L94.778 52.318L61.7855 33.2368L43.3457 80.1053Z" fill="#89898A"/>
</g>
<path d="M43.2441 77.6055V80.0426L83.1722 56.3929V53.9558L43.2441 77.6055Z" fill="#B2B6BE"/>
<path d="M2.24243 54.1436V56.5806L43.2676 80.0893V77.6522L2.24243 54.1436Z" fill="#E5EAF5"/>
<path d="M83.1721 53.9556L80.3509 52.1611L42.1391 30.8779L2.24243 54.1437L43.1265 77.6523L83.1721 53.9556Z" fill="#F2F2F2"/>
<g style="mix-blend-mode:multiply" opacity="0.4">
<path d="M50.1091 72.7078L51.5511 72.6921L83.1722 53.9557L55.203 36.0107L50.1091 72.7078Z" fill="#89898A"/>
</g>
<path d="M81.362 54.2456L50.1484 72.645V48.5957L81.362 30.2197V54.2456Z" fill="#B2B6BE"/>
<path d="M78.3053 38.4946L78.415 49.9747L70.7585 54.5432V43.1337L78.3053 38.4946Z" fill="#3C5669"/>
<path d="M78.2661 49.9666V49.9901L79.1281 50.6248L70.7585 55.6557V54.5429L78.2661 49.9666Z" fill="white"/>
<path d="M78.2424 39.4897V38.518L78.2503 38.4867L79.081 38.0009L79.0888 50.625L78.2659 49.9903V49.9668L78.2424 39.4897Z" fill="#E6E6E6"/>
<path d="M69.3325 43.7917L69.4266 55.2875L61.7466 59.8482V48.4386L69.3325 43.7917Z" fill="#3C5669"/>
<path d="M69.4736 55.272V55.2876L70.2259 55.9302L61.7466 60.9689V59.8483L69.4736 55.272Z" fill="white"/>
<path d="M69.3873 44.7949L69.356 43.8232L69.3481 43.7919L70.1788 43.306L70.2415 55.9302L69.4735 55.2876V55.2719L69.3873 44.7949Z" fill="#E6E6E6"/>
<path d="M60.4769 49.0972L60.6022 60.5851L52.9536 65.1536V53.7362L60.4769 49.0972Z" fill="#3C5669"/>
<path d="M60.4612 60.5774V60.5931L61.3154 61.2356L52.9536 66.2665V65.1537L60.4612 60.5774Z" fill="white"/>
<path d="M60.4221 50.1003L60.4143 49.1286L60.4221 49.0973L61.2528 48.6115L61.2763 61.2356L60.4613 60.593V60.5774L60.4221 50.1003Z" fill="#E6E6E6"/>
<path d="M7.65771 24.3817V48.4076L50.1562 72.6215V48.5956L7.65771 24.3817Z" fill="#D0D4DE"/>
<path d="M15.2906 36.4569L15.2671 51.7297L22.9157 56.0945V40.9L15.2906 36.4569Z" fill="#6F9BB8"/>
<path d="M15.4078 51.7299V51.7455L14.4988 52.4116L22.9154 57.2152V56.0946L15.4078 51.7299Z" fill="white"/>
<path d="M15.4079 37.4601V36.4884L15.4001 36.4571L14.5537 35.9948V52.4116L15.4079 51.7456V51.7299V37.4601Z" fill="#E6E6E6"/>
<path d="M40.8537 49.3634L40.791 60.8435L48.4475 65.2082V53.7987L40.8537 49.3634Z" fill="#6F9BB8"/>
<path d="M40.7283 60.8436V60.8671L39.9446 61.5254L48.4474 66.329V65.2084L40.7283 60.8436Z" fill="white"/>
<path d="M40.8225 50.3664L40.8616 49.3947L40.8695 49.3633L40.0466 48.901L39.9683 61.5252L40.7284 60.8669V60.8434L40.8225 50.3664Z" fill="#E6E6E6"/>
<path d="M31.5829 44.5129L31.5359 55.7893L39.2237 60.154V48.9482L31.5829 44.5129Z" fill="#6F9BB8"/>
<path d="M31.497 55.7892V55.8049L30.7212 56.4631L39.224 61.2745V60.154L31.497 55.7892Z" fill="white"/>
<path d="M31.5439 45.5159L31.5595 44.5442L31.5517 44.5129L30.721 44.0505L30.6975 56.471L31.4969 55.8049V55.7892L31.5439 45.5159Z" fill="#E6E6E6"/>
<g style="mix-blend-mode:multiply" opacity="0.7">
<path d="M7.75928 29.6945V35.697L50.1559 59.5191V53.5166L7.75928 29.6945Z" fill="#C6C7C7"/>
</g>
<g style="mix-blend-mode:multiply" opacity="0.7">
<path d="M50.1482 53.5088V59.5114L81.4402 40.7514V34.7489L50.1482 53.5088Z" fill="#C6C7C7"/>
</g>
<path d="M29.6001 60.7966L27.2412 62.1836V43.7058L29.6001 42.3031V60.7966Z" fill="#B2B6BE"/>
<path d="M27.2412 62.1836L22.5862 59.5585V41.0807L27.2412 43.7058V62.1836Z" fill="#D0D4DE"/>
<path d="M14.6792 52.4744L12.3203 53.8615V35.3836L14.6792 33.981V52.4744Z" fill="#B2B6BE"/>
<path d="M12.3203 53.8615L7.6731 51.2364V32.7585L12.3203 35.3837V53.8615Z" fill="#D0D4DE"/>
<path d="M1.05127 26.67L36.9277 5.15173L86.5184 33.1976L50.1717 54.7942L1.05127 26.67Z" fill="white"/>
<path d="M50.1401 54.7939V56.9489L86.5181 35.3444V33.1895L50.1401 54.7939Z" fill="#B2B6BE"/>
<path d="M1.05127 28.8247L1.08262 26.6932L50.1482 54.7939L50.1404 56.9567L1.05127 28.8247Z" fill="#D0D4DE"/>
<path d="M9.04468 21.5606L5.48682 19.5467L38.1502 0.12854L83.3759 25.9332L79.818 28.0412L50.6576 45.3592L9.04468 21.5606Z" fill="white"/>
<path d="M51.128 43.8235L11.3881 21.0671L11.0276 20.8633L37.7743 4.995L77.8277 27.9473L77.4672 28.1589L51.128 43.8235Z" fill="#C3C7CF"/>
<path d="M83.4151 25.933V32.8054L50.595 52.2313V45.359L83.4151 25.933Z" fill="#B2B6BE"/>
<path d="M5.48682 23.6921L5.526 19.6565L50.6576 45.4612H50.5949V52.2865H50.6576L5.48682 23.6921Z" fill="#B2B6BE"/>
<path d="M80.7504 26.2467L77.89 27.9471L37.7739 4.99482V1.66443L80.7504 26.2467Z" fill="#D0D4DE"/>
<path d="M37.7351 1.66443H37.7742V4.99482L11.0511 20.8632L8.19067 19.2332L37.7351 1.66443Z" fill="#B2B6BE"/>
<path d="M18.825 40.2424L13.9976 37.5154C14.3659 34.4906 15.6589 29.9691 19.9378 27.8768L24.3734 30.3531C20.2277 32.6569 19.1149 37.3352 18.8328 40.2424H18.825Z" fill="#F2F2F2"/>
<path d="M10.0008 35.3836L5.17334 32.6566C5.54167 29.6318 6.83472 25.1103 11.1136 23.0181L15.5491 25.4943C11.4035 27.7982 10.2907 32.4764 10.0086 35.3836H10.0008Z" fill="#F2F2F2"/>
<path d="M5.17317 32.6566L0.721924 30.1411C1.36453 21.6858 6.81888 20.6201 6.81888 20.6201L11.1056 23.018C6.82672 25.1103 5.53366 29.6318 5.16534 32.6566H5.17317Z" fill="#078FDB"/>
<path d="M13.9971 37.5073L9.5459 34.9918C10.1885 26.5366 15.6429 25.4708 15.6429 25.4708L19.9295 27.8687C15.6507 29.961 14.3576 34.4825 13.9893 37.5073H13.9971Z" fill="#078FDB"/>
<path d="M23.7697 43.0318L18.8247 40.2421C19.1068 37.3427 20.2196 32.6566 24.3653 30.3528L29.8039 33.3932C25.4624 35.4463 24.1458 39.9835 23.7697 43.0318Z" fill="#078FDB"/>
<path d="M29.0047 45.994L23.7698 43.0319C24.1459 39.9836 25.4625 35.4464 29.804 33.3933L35.1017 36.3554C30.7288 38.385 29.3965 42.93 29.0047 45.994Z" fill="#F2F2F2"/>
<path d="M34.0983 48.8697L29.0044 45.9938C29.3962 42.9298 30.7206 38.3926 35.1014 36.3552L40.1404 39.1763C35.7753 41.245 34.4744 45.8292 34.0983 48.8697Z" fill="#078FDB"/>
<path d="M45.4383 42.1384L50.5948 45.0222C46.316 47.2712 45.164 52.0121 44.8662 54.9585L39.3335 51.8318C39.7097 48.7679 41.0341 44.1837 45.4383 42.1384Z" fill="#078FDB"/>
<path d="M44.8662 54.9587L50.587 52.3257V45.0223C50.587 45.0223 45.7439 46.762 44.8662 54.9587Z" fill="#F2F2F2"/>
<path style="mix-blend-mode:multiply" opacity="0.5" d="M39.9602 60.679L45.681 58.046V50.7427C45.681 50.7427 40.8379 52.4823 39.9602 60.679Z" fill="url(#paint0_linear_179_4479)"/>
<path d="M40.1407 39.1763L40.2583 39.2468C40.2583 39.2468 40.2426 39.2546 40.2348 39.2625L45.4384 42.1697C41.0341 44.215 39.7176 48.7756 39.3336 51.8396L34.0986 48.8775C34.467 45.8292 35.7757 41.2529 40.1407 39.1841V39.1763Z" fill="#F2F2F2"/>
<path style="mix-blend-mode:multiply" opacity="0.5" d="M6.82672 20.6201L45.4539 42.1149C45.4539 42.1149 45.4382 42.1227 45.4303 42.1306L50.5869 45.03C46.1827 47.0752 45.2344 51.9023 44.8583 54.9663L0.721924 30.1411C0.980535 26.701 2.26576 22.109 6.82672 20.6201Z" fill="url(#paint1_linear_179_4479)"/>
<g style="mix-blend-mode:multiply" opacity="0.4">
<path d="M11.0505 20.8633L14.2087 22.6735L41.1357 6.92271L37.7737 4.995L11.0505 20.8633Z" fill="#89898A"/>
</g>
<g style="mix-blend-mode:multiply" opacity="0.2">
<path d="M37.9071 1.74262L37.7817 1.67993V4.99465L41.1358 6.92236L37.9071 1.74262Z" fill="#89898A"/>
</g>
<g style="mix-blend-mode:multiply" opacity="0.4">
<mask id="mask0_179_4479" style="mask-type:luminance" maskUnits="userSpaceOnUse" x="22" y="11" width="46" height="28">
<path d="M22.2883 22.4226L40.4381 11.8672L67.4278 27.4534L49.2701 38.001L22.2883 22.4226Z" fill="white"/>
</mask>
<g mask="url(#mask0_179_4479)">
<path d="M67.4277 27.4532L62.8824 24.8281L52.201 31.0344L51.7856 25.6979C51.6994 24.7811 51.574 23.9269 51.4094 23.1511C51.237 22.3675 51.0254 21.6544 50.7512 21.004C50.4769 20.3536 50.1556 19.7659 49.7794 19.2487C49.3954 18.7237 48.9722 18.2535 48.502 17.8304C48.0397 17.415 47.5224 17.0467 46.966 16.7254C45.4771 15.8713 43.8235 15.3149 42.0211 15.0798C40.2186 14.8369 38.4162 14.8839 36.5981 15.1974C34.7878 15.5187 33.1264 16.1221 31.6218 16.9919C30.1171 17.8617 29.1062 18.7864 28.4479 19.8443C27.7818 20.9022 27.531 22.0071 27.6877 23.159C27.8523 24.3109 28.4322 25.4472 29.451 26.5521L35.3442 25.6744C34.7094 24.9065 34.3019 24.1542 34.1217 23.4176C33.9414 22.6888 33.9728 22.0227 34.2235 21.4272C34.4665 20.8316 34.9289 20.3301 35.6028 19.9383C36.3865 19.4838 37.178 19.186 37.9773 19.0371C38.7845 18.8961 39.5839 18.8804 40.3832 19.0058C41.1747 19.1312 41.9192 19.3898 42.5932 19.7816C43.126 20.0872 43.5571 20.5025 43.9019 21.0197C44.2467 21.5369 44.521 22.1089 44.7326 22.7358C44.9363 23.3627 45.1009 23.9896 45.2106 24.6087C45.3282 25.2277 45.3909 25.7998 45.3987 26.3248L46.394 36.0652L50.7433 37.1388L67.4277 27.4454" fill="#89898A"/>
</g>
</g>
<defs>
<linearGradient id="paint0_linear_179_4479" x1="44.9847" y1="47.0447" x2="43.8971" y2="55.8055" gradientUnits="userSpaceOnUse">
<stop stop-color="#4D4D4D"/>
<stop offset="0.21" stop-color="#757575"/>
<stop offset="0.45" stop-color="#9A9A9A"/>
<stop offset="0.66" stop-color="#B5B5B5"/>
<stop offset="0.85" stop-color="#C6C6C6"/>
<stop offset="1" stop-color="#CCCCCC"/>
</linearGradient>
<linearGradient id="paint1_linear_179_4479" x1="29.3417" y1="31.5366" x2="22.139" y2="42.4187" gradientUnits="userSpaceOnUse">
<stop stop-color="#4D4D4D"/>
<stop offset="0.21" stop-color="#757575"/>
<stop offset="0.45" stop-color="#9A9A9A"/>
<stop offset="0.66" stop-color="#B5B5B5"/>
<stop offset="0.85" stop-color="#C6C6C6"/>
<stop offset="1" stop-color="#CCCCCC"/>
</linearGradient>
</defs>
</svg>
