<svg width="100" height="101" viewBox="0 0 100 101" fill="none" xmlns="http://www.w3.org/2000/svg">
<circle cx="50" cy="50.1167" r="41.6667" fill="white" fill-opacity="0.05"/>
<path d="M44.7926 49.42C44.7376 49.42 44.7009 49.42 44.6459 49.42C44.5543 49.4017 44.4259 49.4017 44.3159 49.42C38.9993 49.255 34.9843 45.075 34.9843 39.9233C34.9843 34.68 39.2559 30.4083 44.4993 30.4083C49.7426 30.4083 54.0143 34.68 54.0143 39.9233C53.9959 45.075 49.9626 49.255 44.8476 49.42C44.8293 49.42 44.8109 49.42 44.7926 49.42ZM44.4993 33.1583C40.7776 33.1583 37.7343 36.2017 37.7343 39.9233C37.7343 43.59 40.5943 46.5417 44.2426 46.67C44.3526 46.6517 44.5909 46.6517 44.8293 46.67C48.4226 46.505 51.2459 43.5533 51.2643 39.9233C51.2643 36.2017 48.2209 33.1583 44.4993 33.1583Z" fill="white"/>
<path d="M58.3226 49.6584C58.2676 49.6584 58.2126 49.6584 58.1576 49.6401C57.4059 49.7134 56.6359 49.1817 56.5626 48.4301C56.4893 47.6784 56.9476 47.0001 57.6993 46.9084C57.9193 46.8901 58.1576 46.8901 58.3593 46.8901C61.0359 46.7434 63.1259 44.5434 63.1259 41.8484C63.1259 39.0617 60.8709 36.8067 58.0843 36.8067C57.3326 36.8251 56.7093 36.2017 56.7093 35.4501C56.7093 34.6984 57.3326 34.0751 58.0843 34.0751C62.3743 34.0751 65.8759 37.5767 65.8759 41.8667C65.8759 46.0834 62.5759 49.4934 58.3776 49.6584C58.3593 49.6584 58.3409 49.6584 58.3226 49.6584Z" fill="white"/>
<path d="M44.811 69.4584C41.2176 69.4584 37.606 68.5417 34.8743 66.7084C32.326 65.0217 30.9326 62.7117 30.9326 60.2001C30.9326 57.6884 32.326 55.3601 34.8743 53.6551C40.3743 50.0067 49.2843 50.0067 54.7476 53.6551C57.2776 55.3417 58.6893 57.6517 58.6893 60.1634C58.6893 62.6751 57.2959 65.0034 54.7476 66.7084C51.9976 68.5417 48.4043 69.4584 44.811 69.4584ZM36.396 55.9651C34.636 57.1384 33.6826 58.6417 33.6826 60.2184C33.6826 61.7767 34.6543 63.2801 36.396 64.4351C40.961 67.4967 48.6609 67.4967 53.226 64.4351C54.986 63.2617 55.9393 61.7584 55.9393 60.1817C55.9393 58.6234 54.9676 57.1201 53.226 55.9651C48.6609 52.9217 40.961 52.9217 36.396 55.9651Z" fill="white"/>
<path d="M61.6227 66.1584C60.981 66.1584 60.4127 65.7184 60.2843 65.0584C60.1377 64.3067 60.6143 63.5917 61.3477 63.4267C62.5027 63.1884 63.566 62.7301 64.391 62.0884C65.436 61.3001 66.0043 60.3101 66.0043 59.2651C66.0043 58.2201 65.436 57.2301 64.4093 56.4601C63.6027 55.8367 62.5943 55.3967 61.4027 55.1217C60.6693 54.9567 60.1927 54.2234 60.3577 53.4717C60.5227 52.7384 61.256 52.2617 62.0077 52.4267C63.5843 52.7751 64.9593 53.3984 66.0777 54.2601C67.7827 55.5434 68.7543 57.3584 68.7543 59.2651C68.7543 61.1717 67.7643 62.9867 66.0593 64.2884C64.9227 65.1684 63.4927 65.8101 61.916 66.1217C61.806 66.1584 61.7143 66.1584 61.6227 66.1584Z" fill="white"/>
<circle cx="50" cy="50.1167" r="49" stroke="white" stroke-opacity="0.1" stroke-width="2" stroke-dasharray="6 6"/>
</svg>
