<svg width="17" height="16" viewBox="0 0 17 16" fill="none" xmlns="http://www.w3.org/2000/svg">
<g clip-path="url(#clip0_748_2435)">
<path fill-rule="evenodd" clip-rule="evenodd" d="M9.10376 2.86229C8.751 2.60103 8.24908 2.60103 7.89632 2.86229L4.27782 5.5422V12.4479C4.27782 12.9064 4.67782 13.333 5.24078 13.333H11.7593C12.3223 13.333 12.7223 12.9064 12.7223 12.4479V5.5422L9.10376 2.86229ZM13.7792 4.66581L9.89731 1.79081C9.07312 1.18041 7.92696 1.18041 7.10277 1.79081L3.22084 4.66582C3.21678 4.66876 3.21275 4.67175 3.20876 4.67477L0.769934 6.481C0.474055 6.70014 0.411839 7.11763 0.630972 7.41351C0.850104 7.70939 1.2676 7.77161 1.56348 7.55248L2.94449 6.52969V12.4479C2.94449 13.7035 4.00371 14.6663 5.24078 14.6663H11.7593C12.9964 14.6663 14.0556 13.7035 14.0556 12.4479V6.52969L15.4366 7.55248C15.7325 7.77161 16.15 7.70939 16.3691 7.41351C16.5882 7.11763 16.526 6.70014 16.2301 6.481L13.7913 4.67479C13.7873 4.67175 13.7833 4.66876 13.7792 4.66581Z" fill="#626F82"/>
</g>
<defs>
<clipPath id="clip0_748_2435">
<rect width="16" height="16" fill="white" transform="translate(0.5)"/>
</clipPath>
</defs>
</svg>
