<svg width="24" height="24" viewBox="0 0 24 24" fill="none" xmlns="http://www.w3.org/2000/svg">
<path d="M13.8933 18.0177L11.674 20.2269C9.88836 19.6471 8.20992 18.6541 6.79072 17.2413C5.31589 15.7727 4.2982 14.0288 3.72597 12.1724L5.86883 10.0244C5.27163 8.57249 4.8091 6.91383 4.6896 5.33416L0.621386 4.21905C-0.912571 9.4591 0.393126 15.3485 4.5429 19.4788C8.70374 23.6213 14.6448 24.9177 19.9176 23.3657L18.7326 19.2493C17.1158 19.1347 15.5639 18.809 13.8933 18.0177ZM14.9897 13.6911C14.9897 14.4732 15.6268 15.1074 16.4124 15.1074C17.198 15.1074 17.8351 14.4732 17.8351 13.6911C17.8351 9.52614 14.4311 6.13737 10.2475 6.13737C9.46187 6.13737 8.82483 6.77156 8.82483 7.55369C8.82483 8.33581 9.46187 8.97 10.2475 8.97C12.8627 8.97 14.9897 11.0876 14.9897 13.6911ZM10.2475 0C9.46187 0 8.82483 0.634195 8.82483 1.41632C8.82483 2.19844 9.46187 2.83263 10.2475 2.83263C16.2616 2.83263 21.1547 7.70381 21.1547 13.6911C21.1547 14.4732 21.7917 15.1074 22.5773 15.1074C23.363 15.1074 24 14.4732 24 13.6911C24 6.14146 17.8307 0 10.2475 0Z" fill="white"/>
</svg>
