<svg width="44" height="45" viewBox="0 0 44 45" fill="none" xmlns="http://www.w3.org/2000/svg">
<path d="M40.3334 41.8251H3.66675C2.91508 41.8251 2.29175 41.2017 2.29175 40.4501C2.29175 39.6984 2.91508 39.0751 3.66675 39.0751H40.3334C41.0851 39.0751 41.7084 39.6984 41.7084 40.4501C41.7084 41.2017 41.0851 41.8251 40.3334 41.8251Z" fill="white"/>
<path d="M6.78369 40.45H4.03369L4.12536 18.3949C4.12536 16.8366 4.84036 15.3883 6.06869 14.435L18.902 4.44327C20.717 3.0316 23.2654 3.0316 25.0987 4.44327L37.932 14.4166C39.142 15.3699 39.8754 16.8549 39.8754 18.3949V40.45H37.1254V18.4133C37.1254 17.7166 36.7954 17.0383 36.2454 16.5983L23.412 6.62494C22.587 5.98328 21.432 5.98328 20.5887 6.62494L7.75537 16.6166C7.20537 17.0383 6.87536 17.7166 6.87536 18.4133L6.78369 40.45Z" fill="white"/>
<path d="M31.1666 41.825H12.8333C12.0816 41.825 11.4583 41.2017 11.4583 40.45V23.0333C11.4583 20.76 13.3099 18.9083 15.5833 18.9083H28.4166C30.6899 18.9083 32.5416 20.76 32.5416 23.0333V40.45C32.5416 41.2017 31.9183 41.825 31.1666 41.825ZM14.2083 39.075H29.7916V23.0333C29.7916 22.2817 29.1683 21.6583 28.4166 21.6583H15.5833C14.8316 21.6583 14.2083 22.2817 14.2083 23.0333V39.075Z" fill="white"/>
<path d="M18.3333 34.0333C17.5816 34.0333 16.9583 33.41 16.9583 32.6583V29.9083C16.9583 29.1567 17.5816 28.5333 18.3333 28.5333C19.0849 28.5333 19.7083 29.1567 19.7083 29.9083V32.6583C19.7083 33.41 19.0849 34.0333 18.3333 34.0333Z" fill="white"/>
<path d="M24.75 15.2417H19.25C18.4983 15.2417 17.875 14.6184 17.875 13.8667C17.875 13.115 18.4983 12.4917 19.25 12.4917H24.75C25.5017 12.4917 26.125 13.115 26.125 13.8667C26.125 14.6184 25.5017 15.2417 24.75 15.2417Z" fill="white"/>
</svg>
