<svg width="26" height="24" viewBox="0 0 26 24" fill="none" xmlns="http://www.w3.org/2000/svg">
<path fill-rule="evenodd" clip-rule="evenodd" d="M7.48539 2.56618C8.58996 2.56618 9.48539 3.46161 9.48539 4.56618V6.56913C9.48539 7.6737 8.58996 8.56913 7.48539 8.56913H5.48244C4.37787 8.56913 3.48244 7.6737 3.48244 6.56913V4.56618C3.48244 3.46161 4.37787 2.56618 5.48244 2.56618H7.48539ZM0.91626 2C0.91626 0.89543 1.81169 0 2.91626 0H10.0516C11.1561 0 12.0516 0.895431 12.0516 2V9.13531C12.0516 10.2399 11.1561 11.1353 10.0516 11.1353H2.91626C1.81169 11.1353 0.91626 10.2399 0.91626 9.13531V2ZM20.5174 2.56618C21.622 2.56618 22.5174 3.46161 22.5174 4.56618V6.56913C22.5174 7.6737 21.622 8.56913 20.5174 8.56913H18.5145C17.4099 8.56913 16.5145 7.6737 16.5145 6.56913V4.56618C16.5145 3.46161 17.4099 2.56618 18.5145 2.56618H20.5174ZM13.9483 2C13.9483 0.89543 14.8437 0 15.9483 0H23.0836C24.1882 0 25.0836 0.895431 25.0836 2V9.13531C25.0836 10.2399 24.1882 11.1353 23.0836 11.1353H15.9483C14.8437 11.1353 13.9483 10.2399 13.9483 9.13531V2ZM1.01303 13.9486C1.01303 13.35 1.4983 12.8647 2.09692 12.8647C2.69553 12.8647 3.1808 13.35 3.1808 13.9486V22.9161C3.1808 23.5147 2.69553 24 2.09692 24C1.4983 24 1.01303 23.5147 1.01303 22.9161V13.9486ZM6.47748 12.8647C5.87887 12.8647 5.39359 13.35 5.39359 13.9486V22.9161C5.39359 23.5147 5.87887 24 6.47748 24C7.07609 24 7.56137 23.5147 7.56137 22.9161V13.9486C7.56137 13.35 7.07609 12.8647 6.47748 12.8647ZM9.77415 13.9486C9.77415 13.35 10.2594 12.8647 10.858 12.8647C11.4567 12.8647 11.9419 13.35 11.9419 13.9486V22.9161C11.9419 23.5147 11.4567 24 10.858 24C10.2594 24 9.77415 23.5147 9.77415 22.9161V13.9486ZM15.2386 12.8647C14.64 12.8647 14.1547 13.35 14.1547 13.9486V22.9161C14.1547 23.5147 14.64 24 15.2386 24C15.8372 24 16.3225 23.5147 16.3225 22.9161V13.9486C16.3225 13.35 15.8372 12.8647 15.2386 12.8647ZM18.5353 13.9486C18.5353 13.35 19.0206 12.8647 19.6192 12.8647C20.2178 12.8647 20.7031 13.35 20.7031 13.9486V22.9161C20.7031 23.5147 20.2178 24 19.6192 24C19.0206 24 18.5353 23.5147 18.5353 22.9161V13.9486ZM23.9997 12.8647C23.4011 12.8647 22.9158 13.35 22.9158 13.9486V22.9161C22.9158 23.5147 23.4011 24 23.9997 24C24.5983 24 25.0836 23.5147 25.0836 22.9161V13.9486C25.0836 13.35 24.5983 12.8647 23.9997 12.8647Z" fill="#33B44A"/>
</svg>
