<svg width="20" height="21" viewBox="0 0 20 21" fill="none" xmlns="http://www.w3.org/2000/svg">
<path d="M17.1996 0.859375H2.80035C1.25442 0.859375 0 2.11379 0 3.65973V18.059C0 19.605 1.25442 20.8594 2.80035 20.8594H17.1996C18.7456 20.8594 20 19.605 20 18.059V3.65973C20 2.11379 18.7456 0.859375 17.1996 0.859375ZM6.79329 16.8576C6.79329 17.0785 6.61661 17.264 6.39576 17.264H4.39929C4.17845 17.264 3.99293 17.0785 3.99293 16.8576V9.26044C3.99293 9.03959 4.17845 8.86291 4.39929 8.86291H6.39576C6.61661 8.86291 6.79329 9.03959 6.79329 9.26044V16.8576ZM5.39753 8.05902C4.39929 8.05902 3.59541 7.25514 3.59541 6.2569C3.59541 5.25867 4.39929 4.46362 5.39753 4.46362C6.39576 4.46362 7.19965 5.2675 7.19965 6.2569C7.19965 7.2463 6.39576 8.05902 5.39753 8.05902ZM16.2014 16.8576C16.2014 17.0785 16.0159 17.264 15.7951 17.264H14.0018C13.7809 17.264 13.5954 17.0785 13.5954 16.8576V12.4583C13.5336 11.9283 13.1537 10.8594 12.1996 10.8594C11.2456 10.8594 10.6625 12.0608 10.6007 12.4583V16.8576C10.6007 17.0785 10.4152 17.264 10.1943 17.264H8.40106C8.18021 17.264 7.9947 17.0785 7.9947 16.8576V9.26044C7.9947 9.03959 8.18021 8.86291 8.40106 8.86291H10.1943C10.4152 8.86291 10.6007 9.03959 10.6007 9.26044V9.65796C11.3958 8.65973 12.8622 8.58906 13.5954 8.65973C15.8834 8.87174 16.2633 11.1951 16.2014 12.4583V16.8576Z" fill="white"/>
</svg>
