<svg width="33" height="33" viewBox="0 0 33 33" fill="none" xmlns="http://www.w3.org/2000/svg">
<g clip-path="url(#clip0_179_2787)">
<path d="M27.7099 18.3009L32.6379 28.8106C32.8363 29.2396 32.6251 29.5906 32.1707 29.5906H1.25872C0.797916 29.5906 0.593116 29.2396 0.791516 28.8106L5.71952 18.3009C5.79632 18.1319 6.00752 17.9955 6.18672 17.9955H10.4107C10.5387 17.9955 10.7179 18.08 10.8011 18.1839C11.0891 18.5284 11.3771 18.8664 11.6715 19.1979C11.9467 19.5163 12.2283 19.8348 12.5035 20.1598H7.49232C7.31312 20.1598 7.10192 20.2963 7.02512 20.4653L3.76112 27.4262H29.6811L26.4171 20.4653C26.3403 20.2963 26.1291 20.1598 25.9499 20.1598H20.9259C21.2011 19.8348 21.4827 19.5098 21.7579 19.1979C22.0523 18.8664 22.3467 18.5284 22.6283 18.1839C22.7115 18.08 22.8907 17.9955 23.0187 17.9955H27.2555C27.4347 17.9955 27.6459 18.1319 27.7227 18.3009H27.7099ZM23.9595 11.119C23.9595 16.8645 19.3579 17.937 17.1883 23.455C17.0155 23.9035 16.4011 23.9035 16.2283 23.455C14.2763 18.4764 10.3403 17.1115 9.58512 12.6789C8.84272 8.31769 11.7547 4.04752 16.0043 3.62505C20.3243 3.20258 23.9595 6.71881 23.9595 11.119ZM20.5355 11.119C20.5355 8.92215 18.8203 7.14128 16.7083 7.14128C14.5963 7.14128 12.8811 8.92215 12.8811 11.119C12.8811 13.3158 14.5963 15.0967 16.7083 15.0967C18.8203 15.0967 20.5355 13.3158 20.5355 11.119Z" fill="#33B44A"/>
</g>
<defs>
<clipPath id="clip0_179_2787">
<rect width="32" height="32" fill="white" transform="translate(0.714233 0.5)"/>
</clipPath>
</defs>
</svg>
