<svg width="33" height="33" viewBox="0 0 33 33" fill="none" xmlns="http://www.w3.org/2000/svg">
<g clip-path="url(#clip0_179_2778)">
<path d="M20.8381 3.6936C20.8381 4.692 20.8381 5.4728 20.8381 6.0744C20.8381 7.1496 21.7021 8.0456 22.7773 8.0456C23.4109 8.0456 24.2237 8.0456 25.2669 8.0392L28.3645 8.02L24.5949 4.2632L20.8253 0.5L20.8381 3.6936Z" fill="#33B44A"/>
<path d="M14.2013 14.9896C14.0797 15.0408 13.8749 15.2072 13.7405 15.3544C13.1197 16.0264 12.3709 16.3528 11.4237 16.3528C10.8733 16.3528 10.5405 16.5 10.3805 16.8072C10.3357 16.8968 10.2717 17.3256 10.2461 17.7608C10.1821 18.7144 10.0093 19.1304 9.42048 19.764C8.99168 20.2312 8.88928 20.4168 8.88928 20.7496C8.88928 21.0568 8.99168 21.2232 9.43328 21.6904C10.0157 22.3112 10.1885 22.7336 10.2461 23.6744C10.3101 24.788 10.5085 25.044 11.3533 25.1144L11.8141 25.1528L11.8525 32.5L14.3933 31.028L16.9213 32.4872L16.9597 25.1464L17.5549 25.1144C18.1885 25.076 18.5469 24.9416 18.6877 24.6664C18.7325 24.5768 18.7965 24.1544 18.8221 23.7256C18.8861 22.7528 19.0461 22.3688 19.6861 21.6392C19.9613 21.3256 20.1725 21.0184 20.1981 20.884C20.2621 20.5576 20.0765 20.1736 19.6349 19.7128C19.0781 19.1368 18.8733 18.6248 18.8157 17.7032C18.7517 16.5384 18.6365 16.4168 17.5293 16.34C16.5757 16.276 16.1405 16.0904 15.5453 15.5144C15.1613 15.1432 14.7389 14.8808 14.5149 14.8872C14.4637 14.8936 14.3229 14.9384 14.2077 14.9896H14.2013ZM15.7501 17.94C17.6637 18.8616 18.1117 21.3576 16.6397 22.8744C15.4941 24.0456 13.6637 24.0776 12.4861 22.932C11.2957 21.7736 11.2381 19.8408 12.3645 18.6376C13.0109 17.94 13.6893 17.6648 14.6621 17.6968C15.1677 17.7096 15.3533 17.7544 15.7437 17.9464L15.7501 17.94Z" fill="#33B44A"/>
<path d="M18.9437 6.15759H9.51648V8.04559H18.9437V6.15759Z" fill="#33B44A"/>
<path d="M23.3469 10.5544H9.51648V12.4424H23.3469V10.5544Z" fill="#33B44A"/>
<path fill-rule="evenodd" clip-rule="evenodd" d="M7.68608 2.42H18.9437V0.5H7.68608C5.91968 0.5 4.48608 1.9336 4.48608 3.7V26.2088C4.48608 27.9752 5.91968 29.4088 7.68608 29.4088H9.71488V27.4888H7.68608C6.98208 27.4888 6.40608 26.9128 6.40608 26.2088V3.7C6.40608 2.996 6.98208 2.42 7.68608 2.42ZM19.5261 27.4888V29.4088H25.1709C26.9373 29.4088 28.3709 27.9752 28.3709 26.2088V9.9272H26.4509V26.2088C26.4509 26.9128 25.8749 27.4888 25.1709 27.4888H19.5261Z" fill="#33B44A"/>
</g>
<defs>
<clipPath id="clip0_179_2778">
<rect width="32" height="32" fill="white" transform="translate(0.428467 0.5)"/>
</clipPath>
</defs>
</svg>
