<svg width="33" height="33" viewBox="0 0 33 33" fill="none" xmlns="http://www.w3.org/2000/svg">
<g clip-path="url(#clip0_179_2792)">
<path d="M23.716 6.27919L19.684 11.828C19.6392 11.796 19.588 11.764 19.5432 11.732C18.5832 11.0792 17.4504 10.7272 16.2856 10.7272V3.85999C18.8264 3.85999 21.3096 4.62799 23.4088 6.06158C23.5112 6.13198 23.6136 6.20239 23.7096 6.27279L23.716 6.27919Z" fill="#33B44A"/>
<path d="M28.9129 17.0248C28.8681 18.1704 28.6633 19.3096 28.3049 20.404L21.7769 18.2856C22.1545 17.1272 22.1545 15.8792 21.7769 14.7208L28.2985 12.6024C28.7657 14.0296 28.9705 15.5336 28.9065 17.0312L28.9129 17.0248Z" fill="#33B44A"/>
<path d="M11.0314 14.1064C10.9418 14.3048 10.8586 14.5096 10.7945 14.7144L4.27295 12.596C4.42015 12.1416 4.59295 11.7 4.79135 11.2648C5.46335 9.77997 6.41695 8.44237 7.60095 7.32237C7.99775 6.94477 8.42015 6.59917 8.85535 6.27917L12.8874 11.828C12.081 12.4168 11.441 13.204 11.025 14.1128L11.0314 14.1064Z" fill="#33B44A"/>
<path d="M23.716 26.7208C21.5528 28.2824 18.9544 29.1272 16.292 29.1336V22.2728C17.508 22.2728 18.6984 21.8824 19.684 21.1656L23.716 26.7144V26.7208Z" fill="#33B44A"/>
<path d="M12.8938 21.172L8.86175 26.7208C6.85215 25.268 5.32255 23.252 4.45855 20.9288C4.39455 20.756 4.33055 20.5832 4.27295 20.404L10.7945 18.2856C10.8201 18.3688 10.8457 18.4456 10.8777 18.5224C11.2745 19.5848 11.9721 20.5064 12.8938 21.172Z" fill="#33B44A"/>
<path d="M20.2471 15.2136C20.2279 15.156 20.2087 15.0984 20.1895 15.0408C19.8951 14.2536 19.3703 13.5752 18.6791 13.0952C17.9879 12.6152 17.1687 12.3592 16.3303 12.3528H16.3175V12.34L13.3479 8.0968L13.8855 13.1336V13.1464C13.1815 13.6584 12.6567 14.3816 12.3815 15.2136C12.1127 16.0456 12.1127 16.9416 12.3815 17.7672C12.4007 17.8248 12.4199 17.8824 12.4391 17.94C12.8167 18.9576 13.5719 19.7832 14.5575 20.2504C15.5367 20.7112 16.6631 20.7688 17.6871 20.4168C18.7111 20.0584 19.5495 19.316 20.0295 18.3432C20.5095 17.3704 20.5863 16.2504 20.2471 15.22V15.2136Z" fill="#33B44A"/>
<path d="M16.2856 2.2088C19.5816 2.2088 22.7816 3.348 25.3288 5.4408C27.8824 7.5272 29.636 10.4328 30.2888 13.6648C30.9416 16.8968 30.4616 20.2568 28.9192 23.1688C27.3832 26.0872 24.8808 28.3784 21.8408 29.6648C18.3464 31.1432 14.4104 31.1688 10.9032 29.7416C7.38964 28.3144 4.58644 25.5496 3.11444 22.0616C1.63604 18.5672 1.61044 14.6376 3.03764 11.124C4.46484 7.6104 7.22964 4.8072 10.7176 3.3352C12.4776 2.5928 14.372 2.2088 16.2792 2.2152L16.2856 2.2088ZM16.2856 0.5C7.44724 0.5 0.285645 7.6616 0.285645 16.5C0.285645 25.3384 7.44724 32.5 16.2856 32.5C25.124 32.5 32.2856 25.3384 32.2856 16.5C32.2856 7.6616 25.1176 0.5 16.2856 0.5Z" fill="#33B44A"/>
</g>
<defs>
<clipPath id="clip0_179_2792">
<rect width="32" height="32" fill="white" transform="translate(0.285645 0.5)"/>
</clipPath>
</defs>
</svg>
