<svg width="33" height="33" viewBox="0 0 33 33" fill="none" xmlns="http://www.w3.org/2000/svg">
<g clip-path="url(#clip0_179_2802)">
<path fill-rule="evenodd" clip-rule="evenodd" d="M22.2417 4.77557C22.0282 4.98908 21.9161 5.27732 21.9321 5.57623L22.103 9.44612L16.3595 15.1896C15.9432 15.6059 15.9432 16.2838 16.3595 16.7002C16.7758 17.1165 17.4537 17.1165 17.8701 16.7002L23.6135 10.9567L27.4834 11.1275C27.7824 11.1382 28.0706 11.0261 28.2841 10.8179L32.2447 6.8573C32.5437 6.55838 32.6397 6.11001 32.4849 5.71501C32.3301 5.32002 31.9618 5.05313 31.5348 5.03712L28.172 4.893L28.0279 1.53019C28.0119 1.10851 27.745 0.734865 27.35 0.580069C26.955 0.425274 26.5066 0.521354 26.2077 0.820269L22.2471 4.7809L22.2417 4.77557ZM16.5783 25.0539H16.4502C14.171 25.0218 12.0359 24.0984 10.4505 22.465C8.85987 20.8263 8.00583 18.6699 8.03786 16.3906C8.06988 14.1114 8.99332 11.9763 10.6267 10.391C12.2654 8.8003 14.4218 7.94626 16.7011 7.97829C17.5658 7.98896 18.4198 8.13308 19.2365 8.39997C19.797 8.58146 20.1012 9.18462 19.9198 9.74509C19.7383 10.3056 19.1351 10.6098 18.5746 10.4283C17.9661 10.2308 17.3256 10.1241 16.6744 10.1134C14.961 10.0814 13.3436 10.7326 12.1159 11.9229C10.8882 13.1132 10.1997 14.7146 10.173 16.4227C10.1463 18.1307 10.7922 19.7534 11.9825 20.9811C13.1728 22.2088 14.7741 22.8974 16.4822 22.9241C18.1796 22.9401 19.813 22.3049 21.0407 21.1146C22.2684 19.9242 22.957 18.3229 22.9836 16.6148C22.9943 15.8889 22.8822 15.1736 22.658 14.4904C22.4712 13.9299 22.7755 13.3267 23.3306 13.1399C23.8911 12.9531 24.4942 13.2574 24.6811 13.8125C24.9853 14.7252 25.1294 15.6754 25.1188 16.6415C25.0867 18.9207 24.1633 21.0559 22.5299 22.6412C20.9233 24.1998 18.8148 25.0539 16.5836 25.0539H16.5783ZM16.3434 32.5H16.5783C20.7578 32.5 24.7024 30.904 27.7075 27.9843C30.7714 25.0111 32.4902 21.0185 32.5542 16.7483C32.5809 14.9334 32.3087 13.1506 31.7376 11.4478C31.5507 10.8927 30.9476 10.5885 30.3871 10.7753C29.832 10.9621 29.5277 11.5653 29.7145 12.1257C30.211 13.599 30.4458 15.1469 30.4245 16.7162C30.3711 20.4153 28.8765 23.8742 26.2236 26.4523C23.5708 29.0305 20.0745 30.413 16.3701 30.3649C12.671 30.3116 9.21213 28.817 6.63398 26.1641C4.05583 23.5112 2.66801 20.0096 2.72139 16.3106C2.83348 8.74158 9.02531 2.66185 16.5783 2.66185H16.7864C18.1903 2.6832 19.5728 2.91272 20.8965 3.34508C21.457 3.52657 22.0602 3.22231 22.2417 2.66185C22.4231 2.10138 22.1189 1.49821 21.5584 1.31673C20.0318 0.814974 18.4358 0.553422 16.8131 0.526733H16.5729C7.86701 0.526733 0.714383 7.54058 0.586276 16.2785C0.52756 20.5488 2.1289 24.5895 5.10738 27.6533C8.08052 30.7172 12.0732 32.436 16.3434 32.5Z" fill="#33B44A"/>
</g>
<defs>
<clipPath id="clip0_179_2802">
<rect width="32" height="32" fill="white" transform="translate(0.571289 0.5)"/>
</clipPath>
</defs>
</svg>
