<svg width="30" height="32" viewBox="0 0 30 32" fill="none" xmlns="http://www.w3.org/2000/svg">
<g clip-path="url(#clip0_179_2809)">
<path fill-rule="evenodd" clip-rule="evenodd" d="M14.8282 3.65104C14.4301 3.65104 14.1436 3.53937 13.8572 3.36459C13.4008 3.02473 13.061 2.51009 13.0027 1.88378V1.82552C13.0027 0.801092 13.7989 0 14.8282 0C15.8575 0 16.6537 0.796237 16.6537 1.82552V1.88378C16.6537 2.51009 16.3139 3.08299 15.7992 3.36459C15.5128 3.53452 15.2312 3.65104 14.8282 3.65104ZM12.3181 4.27735C11.92 3.87923 11.6336 3.36459 11.4636 2.79654L4.73445 6.67577C5.13257 7.07389 5.41902 7.58853 5.58895 8.15658L12.3181 4.27735ZM19.392 12.8903C19.5134 12.7107 19.6299 12.5359 19.7367 12.3757C20.0475 11.9193 20.3048 11.5309 20.4747 11.2347L20.7612 10.6667C20.8194 10.5501 20.8194 10.4967 20.8194 10.3802C20.8194 10.152 20.8194 9.9821 20.6495 9.86557C20.5912 9.80731 20.3096 9.63738 20.3096 9.63738L13.1241 17.0511C13.1241 16.1384 13.1386 15.4247 13.1532 14.711C13.1678 13.9973 13.1823 13.2836 13.1823 12.3708C13.1823 12.1426 13.1241 11.9144 12.9541 11.7445C12.8376 11.5746 12.6143 11.5163 12.3278 11.5163C12.0414 11.5163 11.7549 11.6377 11.5025 11.7445C11.4539 11.7639 11.4054 11.7833 11.3617 11.8028C11.017 11.9727 10.7354 12.2591 10.4489 12.5456C10.1625 12.8854 9.99253 13.2884 9.99253 13.6283L9.876 21.4984C9.876 21.8431 9.99253 22.0665 10.1625 22.2412C10.279 22.2995 10.4489 22.3529 10.5606 22.3529C10.6188 22.3529 10.6771 22.3383 10.7305 22.3238C10.7888 22.3092 10.847 22.2946 10.9004 22.2946C11.2403 22.1781 11.6967 21.8383 12.2113 21.3819C13.3523 20.3575 14.7797 18.7019 15.8041 17.4444C17.1732 15.9053 18.4258 14.2497 19.3969 12.8806L19.392 12.8903ZM11.3471 29.7181L4.72959 25.8971C5.12771 25.499 5.41416 24.9844 5.58409 24.4163L11.9734 28.1256C11.6336 28.582 11.4054 29.1501 11.3471 29.723V29.7181ZM17.6782 28.0625C18.018 28.5189 18.2462 29.0869 18.3045 29.6598L24.922 25.8389C24.5239 25.4408 24.2374 24.9261 24.0675 24.3581L17.6782 28.0674V28.0625ZM26.5193 20.1341V12.4339C26.8058 12.4922 27.1456 12.5456 27.4903 12.5456C27.7185 12.5456 27.9467 12.5456 28.2332 12.4873V20.0759C28.1215 20.0759 27.9904 20.0613 27.8642 20.0467C27.7379 20.0322 27.6068 20.0176 27.4952 20.0176C27.1553 20.0176 26.8106 20.0176 26.5242 20.1341H26.5193ZM3.13226 20.1341V12.4339C2.84581 12.4922 2.50595 12.5456 2.16124 12.5456C1.93305 12.5456 1.70486 12.5456 1.41841 12.4873V20.0759C1.46696 20.0661 1.51551 20.0564 1.55921 20.0467C1.78254 20.003 1.97189 19.9593 2.15639 19.9593C2.49624 19.9593 2.84096 20.0176 3.12741 20.1293L3.13226 20.1341ZM24.0675 8.15658L17.3383 4.27735C17.7364 3.82097 18.0811 3.30633 18.1928 2.79654L24.922 6.67577C24.5239 7.07389 24.2374 7.58853 24.0675 8.15658ZM3.19052 7.53027C2.90407 7.36034 2.56421 7.24382 2.1661 7.24382C1.14167 7.24382 0.340576 8.04005 0.340576 9.06934C0.340576 9.81217 0.796956 10.4385 1.42326 10.7249C1.65145 10.7832 1.93791 10.8414 2.1661 10.8414C2.56421 10.8414 2.85067 10.7249 3.13712 10.555C3.65176 10.2685 3.99162 9.7005 3.99162 9.07419C3.99162 8.44788 3.65176 7.87498 3.19538 7.53512L3.19052 7.53027ZM2.1661 21.678C2.56421 21.678 2.85067 21.7946 3.13712 22.0228C3.65176 22.3092 3.99162 22.8773 3.99162 23.5618C3.99162 24.1881 3.65176 24.7028 3.19538 25.0426C2.90893 25.2126 2.56907 25.3291 2.17095 25.3291C1.14652 25.3291 0.345431 24.5328 0.345431 23.5036C0.345431 22.7607 0.801811 22.1344 1.42812 21.848C1.65631 21.7315 1.8845 21.678 2.17095 21.678H2.1661ZM26.5242 10.555C26.8106 10.7249 27.1505 10.8414 27.4952 10.8414C27.7816 10.8414 28.0098 10.7832 28.238 10.6715C28.8643 10.3851 29.3207 9.75876 29.3207 9.01593C29.3207 7.9915 28.5245 7.19041 27.4952 7.19041C27.0971 7.19041 26.7523 7.30693 26.4708 7.47686C26.0144 7.82157 25.6745 8.33136 25.6745 8.95767C25.6745 9.7005 26.0144 10.2685 26.529 10.555H26.5242ZM27.4952 21.678C27.7816 21.678 28.0098 21.7363 28.238 21.848C28.8643 22.1344 29.3207 22.7607 29.379 23.387C29.379 24.4115 28.5245 25.2126 27.5534 25.2126C27.1553 25.2126 26.8106 25.096 26.529 24.9261C26.0144 24.5863 25.7328 24.0716 25.7328 23.4453C25.7328 22.819 26.0192 22.2461 26.529 21.9645C26.8155 21.7946 27.1553 21.678 27.5 21.678H27.4952ZM14.8331 28.3538C14.265 28.3538 13.8086 28.582 13.4639 28.9801C13.1775 29.32 13.0075 29.723 13.0075 30.1793C13.0075 30.3687 13.0464 30.5192 13.0949 30.694C13.1046 30.728 13.1144 30.7668 13.1241 30.8056C13.3523 31.4902 14.0368 32.0049 14.8331 32.0049C15.6293 32.0049 16.2605 31.4902 16.5421 30.8056C16.6003 30.6357 16.6537 30.4075 16.6537 30.1793C16.6537 29.723 16.4838 29.3248 16.1974 28.9801C15.8575 28.582 15.4011 28.3538 14.8282 28.3538H14.8331Z" fill="#33B44A"/>
</g>
<defs>
<clipPath id="clip0_179_2809">
<rect width="29.0335" height="32" fill="white" transform="translate(0.340576)"/>
</clipPath>
</defs>
</svg>
