<svg width="34" height="33" viewBox="0 0 34 33" fill="none" xmlns="http://www.w3.org/2000/svg">
<g clip-path="url(#clip0_179_2772)">
<path fill-rule="evenodd" clip-rule="evenodd" d="M5.58441 24.4744C4.11881 22.644 3.38281 20.8072 3.38281 19.0088V5.204C3.38281 4.788 3.65801 4.4232 4.06121 4.308L16.8676 0.5384C17.0468 0.4872 17.2388 0.4872 17.418 0.5384L30.2244 4.3016C30.6276 4.4232 30.9028 4.788 30.9028 5.1976V19.0024C30.9028 20.8008 30.1604 22.6376 28.7012 24.468C27.5812 25.8632 26.0388 27.2712 24.106 28.6408C20.8612 30.9448 17.6676 32.3528 17.5332 32.4104C17.4116 32.468 17.2772 32.4936 17.1428 32.4936C17.0084 32.4936 16.874 32.468 16.7524 32.4104C16.618 32.3528 13.4244 30.9384 10.1796 28.6408C8.24681 27.2712 6.70441 25.8696 5.58441 24.468V24.4744ZM27.1972 23.2776C28.4708 21.684 28.9828 20.2568 28.9828 19.0152V5.94L17.1428 2.4584L5.30281 5.94V19.0088C5.30281 20.2504 5.81481 21.6776 7.08841 23.2712C8.06121 24.4936 9.46281 25.78 11.2932 27.0728C13.77 28.8264 16.2212 30.0424 17.1428 30.4776C18.0644 30.0424 20.522 28.8264 22.9924 27.0728C24.8228 25.7736 26.218 24.4872 27.1972 23.2712V23.2776Z" fill="#33B44A"/>
<path d="M12.1354 23.0663C11.9754 23.0663 11.8282 23.0151 11.7002 22.9255C11.4762 22.7463 11.3802 22.4583 11.3802 22.0871L11.4762 12.9031C11.4762 12.4935 11.6554 12.0647 11.9754 11.6551C12.2314 11.3351 12.5706 11.0279 12.9226 10.7975C13.1786 10.6375 13.5626 10.4391 13.9338 10.4391C14.241 10.4583 14.4458 10.5479 14.593 10.7271C14.753 10.9063 14.8362 11.1559 14.8362 11.4439L14.7722 16.8775C16.0394 15.5015 22.369 8.19275 22.369 8.19275C22.369 8.19275 22.657 8.39115 22.7402 8.48075C22.8874 8.64075 22.9194 8.83915 22.9002 9.08875C22.9002 9.19755 22.849 9.30635 22.817 9.42795C22.753 9.60715 22.657 9.83755 22.529 10.1063C22.273 10.6055 21.889 11.2647 21.3898 12.0519C20.3914 13.6391 19.0602 15.5527 17.7098 17.3575C16.6474 18.7719 15.1242 20.6983 13.9018 21.9143C13.3066 22.5031 12.8394 22.8615 12.4874 23.0023C12.3594 23.0407 12.2442 23.0727 12.1354 23.0727V23.0663Z" fill="#33B44A"/>
</g>
<defs>
<clipPath id="clip0_179_2772">
<rect width="33" height="32" fill="white" transform="translate(0.642822 0.5)"/>
</clipPath>
</defs>
</svg>
