<svg width="60" height="60" viewBox="0 0 60 60" fill="none" xmlns="http://www.w3.org/2000/svg">
<rect width="60" height="60" rx="30" fill="#33B44A"/>
<path d="M32.3667 37.5222L29.5925 40.2836C27.3604 39.5589 25.2624 38.3177 23.4884 36.5516C21.6449 34.7159 20.3728 32.536 19.6575 30.2156L22.336 27.5305C21.5895 25.7156 21.0114 23.6423 20.862 21.6677L15.7767 20.2738C13.8593 26.8239 15.4914 34.1856 20.6786 39.3484C25.8797 44.5266 33.306 46.1471 39.897 44.2072L38.4158 39.0616C36.3948 38.9184 34.4548 38.5112 32.3667 37.5222ZM33.7372 32.1138C33.7372 33.0915 34.5335 33.8842 35.5155 33.8842C36.4976 33.8842 37.2939 33.0915 37.2939 32.1138C37.2939 26.9077 33.0389 22.6717 27.8094 22.6717C26.8273 22.6717 26.031 23.4645 26.031 24.4421C26.031 25.4198 26.8273 26.2125 27.8094 26.2125C31.0784 26.2125 33.7372 28.8594 33.7372 32.1138ZM27.8094 15C26.8273 15 26.031 15.7927 26.031 16.7704C26.031 17.748 26.8273 18.5408 27.8094 18.5408C35.327 18.5408 41.4433 24.6298 41.4433 32.1138C41.4433 33.0915 42.2396 33.8842 43.2217 33.8842C44.2037 33.8842 45 33.0915 45 32.1138C45 22.6768 37.2883 15 27.8094 15Z" fill="white"/>
</svg>
