<svg width="32" height="32" viewBox="0 0 32 32" fill="none" xmlns="http://www.w3.org/2000/svg">
<path d="M14.4133 22.5995C14.16 22.5995 13.9066 22.5062 13.7066 22.3062L11.7066 20.3062C11.32 19.9195 11.32 19.2795 11.7066 18.8929C12.0933 18.5062 12.7333 18.5062 13.12 18.8929L14.4133 20.1862L19.04 15.5595C19.4266 15.1729 20.0666 15.1729 20.4533 15.5595C20.84 15.9462 20.84 16.5862 20.4533 16.9729L15.12 22.3062C14.9333 22.5062 14.6666 22.5995 14.4133 22.5995Z" fill="#33B44A"/>
<path d="M18.6666 9.00033H13.3333C12.0533 9.00033 9.66663 9.00033 9.66663 5.33366C9.66663 1.66699 12.0533 1.66699 13.3333 1.66699H18.6666C19.9466 1.66699 22.3333 1.66699 22.3333 5.33366C22.3333 6.61366 22.3333 9.00033 18.6666 9.00033ZM13.3333 3.66699C12.0133 3.66699 11.6666 3.66699 11.6666 5.33366C11.6666 7.00033 12.0133 7.00033 13.3333 7.00033H18.6666C20.3333 7.00033 20.3333 6.65366 20.3333 5.33366C20.3333 3.66699 19.9866 3.66699 18.6666 3.66699H13.3333Z" fill="#33B44A"/>
<path d="M20 30.3329H12C4.50667 30.3329 3 26.8929 3 21.3329V13.3329C3 7.25292 5.2 4.65292 10.6133 4.37292C11.16 4.34625 11.64 4.75958 11.6667 5.31958C11.6933 5.87958 11.2667 6.33292 10.72 6.35958C6.93333 6.57292 5 7.70625 5 13.3329V21.3329C5 26.2663 5.97333 28.3329 12 28.3329H20C26.0267 28.3329 27 26.2663 27 21.3329V13.3329C27 7.70625 25.0667 6.57292 21.28 6.35958C20.7333 6.33292 20.3067 5.85292 20.3333 5.30625C20.36 4.75958 20.8267 4.33292 21.3867 4.35958C26.8 4.65292 29 7.25292 29 13.3196V21.3196C29 26.8929 27.4933 30.3329 20 30.3329Z" fill="#33B44A"/>
</svg>
