<svg width="25" height="24" viewBox="0 0 25 24" fill="none" xmlns="http://www.w3.org/2000/svg">
<path d="M15.6887 14.0869L13.8956 16.3284C11.1184 14.6965 8.80404 12.3823 7.17186 9.60536L9.41295 7.81235C9.95338 7.38009 10.1342 6.63766 9.85297 6.00534L7.80988 1.40531C7.50716 0.723755 6.75556 0.361505 6.03381 0.549303L2.14515 1.55731C1.3939 1.75325 0.908111 2.4803 1.01461 3.24932C2.41744 13.2345 10.2654 21.0824 20.2509 22.4854C21.0199 22.5917 21.7468 22.106 21.943 21.3549L22.951 17.4654C23.1381 16.7439 22.776 15.9929 22.095 15.6899L17.4958 13.6494C16.8639 13.368 16.1218 13.5477 15.6887 14.0869Z" fill="#29903B"/>
</svg>
