<svg width="41" height="41" viewBox="0 0 41 41" fill="none" xmlns="http://www.w3.org/2000/svg">
<mask id="path-1-inside-1_260_16816" fill="white">
<path fill-rule="evenodd" clip-rule="evenodd" d="M15.1407 20.1496H15.2741H15.3241C19.974 19.9997 23.6391 16.2025 23.6537 11.5226C23.6517 6.7594 19.7668 2.87891 15.0001 2.87891C10.2334 2.87891 6.35173 6.7594 6.35374 11.5226C6.35572 16.2025 10.0073 19.9997 14.8407 20.1496C14.9407 20.1329 15.0574 20.1329 15.1407 20.1496ZM8.85374 11.5226C8.85231 8.14172 11.6178 5.37707 15.0011 5.37707C18.3845 5.37707 21.1523 8.14172 21.1537 11.5226C21.1385 14.8202 18.5729 17.5015 15.3063 17.6514C15.0897 17.6348 14.873 17.6348 14.773 17.6514C11.4563 17.5348 8.85515 14.8535 8.85374 11.5226ZM27.4242 20.3486C27.4742 20.3653 27.5242 20.3653 27.5742 20.3653H27.6242C31.4408 20.2154 34.4395 17.1177 34.4379 13.2871C34.4362 9.38999 31.2515 6.20898 27.3516 6.20898C26.6682 6.20898 26.1018 6.77524 26.1021 7.45807C26.1024 8.1409 26.6693 8.70715 27.3526 8.6905C29.8859 8.6905 31.9368 10.739 31.9379 13.2705C31.9389 15.7187 30.0397 17.7172 27.6065 17.8505C27.4231 17.8505 27.2065 17.8505 27.0065 17.8671C26.3232 17.9504 25.9068 18.5666 25.9737 19.2494C26.0407 19.9323 26.7409 20.4152 27.4242 20.3486ZM15.2985 38.3535C12.0319 38.3535 8.74819 37.5208 6.26415 35.8554C3.94683 34.3232 2.67928 32.2247 2.67831 29.943C2.67735 27.6614 3.94312 25.5463 6.25913 23.9974C11.2577 20.6832 19.3577 20.6832 24.3258 23.9974C26.6264 25.5296 27.9107 27.6281 27.9116 29.9097C27.9126 32.1914 26.6468 34.3065 24.3308 35.8554C21.8315 37.5208 18.5652 38.3535 15.2985 38.3535ZM7.64335 26.0959C6.04381 27.1617 5.17772 28.5274 5.17832 29.9597C5.17892 31.3753 6.06283 32.741 7.64661 33.7902C11.7978 36.5715 18.7978 36.5715 22.9466 33.7902C24.5462 32.7243 25.4122 31.3587 25.4116 29.9264C25.411 28.5108 24.5271 27.1451 22.9434 26.0959C18.7922 23.3312 11.7922 23.3312 7.64335 26.0959ZM29.3634 34.3562C29.4803 34.9557 29.9971 35.3554 30.5805 35.3554C30.6638 35.3554 30.7471 35.3554 30.8471 35.3221C32.2803 35.039 33.5801 34.4561 34.6131 33.6567C36.1626 32.4742 37.0619 30.8254 37.0612 29.0934C37.0604 27.3613 36.1764 25.7125 34.6259 24.5467C33.6089 23.7639 32.3587 23.1977 30.9252 22.8813C30.2418 22.7314 29.5753 23.1644 29.4256 23.8306C29.2759 24.5134 29.7095 25.1796 30.3762 25.3295C31.4597 25.5793 32.3765 25.979 33.1101 26.5452C34.0437 27.2447 34.5608 28.1441 34.5612 29.0934C34.5616 30.0427 34.0453 30.942 33.0956 31.6582C32.3458 32.2411 31.3793 32.6574 30.3294 32.8739C29.6628 33.0238 29.2298 33.6733 29.3634 34.3562Z"/>
</mask>
<path fill-rule="evenodd" clip-rule="evenodd" d="M15.1407 20.1496H15.2741H15.3241C19.974 19.9997 23.6391 16.2025 23.6537 11.5226C23.6517 6.7594 19.7668 2.87891 15.0001 2.87891C10.2334 2.87891 6.35173 6.7594 6.35374 11.5226C6.35572 16.2025 10.0073 19.9997 14.8407 20.1496C14.9407 20.1329 15.0574 20.1329 15.1407 20.1496ZM8.85374 11.5226C8.85231 8.14172 11.6178 5.37707 15.0011 5.37707C18.3845 5.37707 21.1523 8.14172 21.1537 11.5226C21.1385 14.8202 18.5729 17.5015 15.3063 17.6514C15.0897 17.6348 14.873 17.6348 14.773 17.6514C11.4563 17.5348 8.85515 14.8535 8.85374 11.5226ZM27.4242 20.3486C27.4742 20.3653 27.5242 20.3653 27.5742 20.3653H27.6242C31.4408 20.2154 34.4395 17.1177 34.4379 13.2871C34.4362 9.38999 31.2515 6.20898 27.3516 6.20898C26.6682 6.20898 26.1018 6.77524 26.1021 7.45807C26.1024 8.1409 26.6693 8.70715 27.3526 8.6905C29.8859 8.6905 31.9368 10.739 31.9379 13.2705C31.9389 15.7187 30.0397 17.7172 27.6065 17.8505C27.4231 17.8505 27.2065 17.8505 27.0065 17.8671C26.3232 17.9504 25.9068 18.5666 25.9737 19.2494C26.0407 19.9323 26.7409 20.4152 27.4242 20.3486ZM15.2985 38.3535C12.0319 38.3535 8.74819 37.5208 6.26415 35.8554C3.94683 34.3232 2.67928 32.2247 2.67831 29.943C2.67735 27.6614 3.94312 25.5463 6.25913 23.9974C11.2577 20.6832 19.3577 20.6832 24.3258 23.9974C26.6264 25.5296 27.9107 27.6281 27.9116 29.9097C27.9126 32.1914 26.6468 34.3065 24.3308 35.8554C21.8315 37.5208 18.5652 38.3535 15.2985 38.3535ZM7.64335 26.0959C6.04381 27.1617 5.17772 28.5274 5.17832 29.9597C5.17892 31.3753 6.06283 32.741 7.64661 33.7902C11.7978 36.5715 18.7978 36.5715 22.9466 33.7902C24.5462 32.7243 25.4122 31.3587 25.4116 29.9264C25.411 28.5108 24.5271 27.1451 22.9434 26.0959C18.7922 23.3312 11.7922 23.3312 7.64335 26.0959ZM29.3634 34.3562C29.4803 34.9557 29.9971 35.3554 30.5805 35.3554C30.6638 35.3554 30.7471 35.3554 30.8471 35.3221C32.2803 35.039 33.5801 34.4561 34.6131 33.6567C36.1626 32.4742 37.0619 30.8254 37.0612 29.0934C37.0604 27.3613 36.1764 25.7125 34.6259 24.5467C33.6089 23.7639 32.3587 23.1977 30.9252 22.8813C30.2418 22.7314 29.5753 23.1644 29.4256 23.8306C29.2759 24.5134 29.7095 25.1796 30.3762 25.3295C31.4597 25.5793 32.3765 25.979 33.1101 26.5452C34.0437 27.2447 34.5608 28.1441 34.5612 29.0934C34.5616 30.0427 34.0453 30.942 33.0956 31.6582C32.3458 32.2411 31.3793 32.6574 30.3294 32.8739C29.6628 33.0238 29.2298 33.6733 29.3634 34.3562Z" fill="#29903B"/>
<path d="M15.1407 20.1496L15.1016 20.3457L15.121 20.3496H15.1408L15.1407 20.1496ZM15.3241 20.1496L15.3241 20.3497L15.3306 20.3495L15.3241 20.1496ZM23.6537 11.5226L23.8537 11.5233L23.8537 11.5226H23.6537ZM14.8407 20.1496L14.8346 20.3495L14.8543 20.3501L14.8737 20.3469L14.8407 20.1496ZM21.1537 11.5226L21.3537 11.5236L21.3537 11.5226H21.1537ZM15.3063 17.6514L15.2911 17.8508L15.3033 17.8518L15.3156 17.8512L15.3063 17.6514ZM14.773 17.6514L14.7661 17.8513L14.7861 17.852L14.8059 17.8487L14.773 17.6514ZM27.4242 20.3486L27.4873 20.1589L27.447 20.1454L27.4047 20.1496L27.4242 20.3486ZM27.6242 20.3653L27.6243 20.5654L27.6321 20.5651L27.6242 20.3653ZM27.3526 8.6905L27.3525 8.49044L27.3476 8.49056L27.3526 8.6905ZM27.6065 17.8505L27.6066 18.0507L27.6175 18.0502L27.6065 17.8505ZM27.0065 17.8671L26.9898 17.6677L26.9822 17.6686L27.0065 17.8671ZM25.9737 19.2494L26.1728 19.23L25.9737 19.2494ZM6.26415 35.8554L6.37548 35.6893L6.37441 35.6886L6.26415 35.8554ZM6.25913 23.9974L6.14856 23.8307L6.1479 23.8311L6.25913 23.9974ZM24.3258 23.9974L24.2149 24.1638L24.215 24.1638L24.3258 23.9974ZM24.3308 35.8554L24.4418 36.0218L24.442 36.0216L24.3308 35.8554ZM7.64335 26.0959L7.75431 26.2623L7.64335 26.0959ZM7.64661 33.7902L7.75789 33.6241L7.75702 33.6235L7.64661 33.7902ZM22.9466 33.7902L22.8357 33.6238L22.8352 33.6241L22.9466 33.7902ZM22.9434 26.0959L22.8325 26.2623L22.8329 26.2626L22.9434 26.0959ZM29.3634 34.3562L29.5597 34.318L29.5597 34.3179L29.3634 34.3562ZM30.8471 35.3221L30.8083 35.1259L30.7959 35.1284L30.7838 35.1324L30.8471 35.3221ZM34.6131 33.6567L34.4917 33.4977L34.4906 33.4985L34.6131 33.6567ZM34.6259 24.5467L34.504 24.7052L34.5058 24.7065L34.6259 24.5467ZM30.9252 22.8813L30.9682 22.686L30.968 22.6859L30.9252 22.8813ZM29.4256 23.8306L29.2305 23.7866L29.2302 23.7877L29.4256 23.8306ZM30.3762 25.3295L30.4211 25.1346L30.42 25.1343L30.3762 25.3295ZM33.1101 26.5452L32.9879 26.7036L32.9902 26.7053L33.1101 26.5452ZM33.0956 31.6582L32.9751 31.4984L32.9728 31.5002L33.0956 31.6582ZM30.3294 32.8739L30.2889 32.678L30.2855 32.6788L30.3294 32.8739ZM15.274 19.9496H15.1406L15.1408 20.3496H15.2741L15.274 19.9496ZM15.324 19.9496H15.274L15.2741 20.3496H15.3241L15.324 19.9496ZM23.4537 11.5219C23.4394 16.0952 19.8587 19.8033 15.3175 19.9497L15.3306 20.3495C20.0893 20.1961 23.8387 16.3097 23.8537 11.5233L23.4537 11.5219ZM15.0002 3.07891C19.6565 3.07891 23.4518 6.86999 23.4537 11.5226H23.8537C23.8517 6.6488 19.877 2.67891 15 2.67891L15.0002 3.07891ZM6.55374 11.5226C6.55177 6.86999 10.3438 3.07891 15.0002 3.07891L15 2.67891C10.123 2.67891 6.15168 6.6488 6.15374 11.5226H6.55374ZM14.8468 19.9497C10.1201 19.8031 6.55567 16.0931 6.55374 11.5226H6.15374C6.15577 16.3119 9.89458 20.1963 14.8346 20.3495L14.8468 19.9497ZM15.1798 19.9535C15.0686 19.9312 14.9272 19.9324 14.8078 19.9523L14.8737 20.3469C14.9543 20.3334 15.0461 20.3346 15.1016 20.3457L15.1798 19.9535ZM15.0011 5.17707C11.5074 5.17707 8.65226 8.03112 8.65374 11.5226H9.05374C9.05236 8.25231 11.7282 5.57707 15.0012 5.57707L15.0011 5.17707ZM21.3537 11.5226C21.3523 8.03112 18.4947 5.17707 15.0011 5.17707L15.0012 5.57707C18.2742 5.57707 20.9524 8.25231 20.9537 11.5226H21.3537ZM15.3156 17.8512C18.6895 17.6964 21.338 14.9268 21.3537 11.5236L20.9537 11.5216C20.939 14.7135 18.4564 17.3067 15.2971 17.4516L15.3156 17.8512ZM14.8059 17.8487C14.8804 17.8363 15.0765 17.8343 15.2911 17.8508L15.3216 17.452C15.1028 17.4352 14.8655 17.4332 14.7401 17.4541L14.8059 17.8487ZM8.65374 11.5226C8.65519 14.9614 11.3419 17.7309 14.7661 17.8513L14.7799 17.4515C11.5706 17.3387 9.0551 14.7455 9.05374 11.5226H8.65374ZM27.5741 20.1653C27.5196 20.1653 27.5018 20.1637 27.4873 20.1589L27.3611 20.5384C27.4466 20.5669 27.5288 20.5653 27.5743 20.5653L27.5741 20.1653ZM27.6241 20.1653H27.5741L27.5743 20.5653H27.6243L27.6241 20.1653ZM34.2379 13.2871C34.2395 17.0096 31.3262 20.0197 27.6163 20.1654L27.6321 20.5651C31.5554 20.411 34.6395 17.2257 34.6379 13.2871H34.2379ZM27.3516 6.40898C31.1413 6.40898 34.2363 9.50058 34.2379 13.2871H34.6379C34.6362 9.27939 31.3618 6.00898 27.3515 6.00898L27.3516 6.40898ZM26.3021 7.45807C26.3018 6.88583 26.7786 6.40898 27.3516 6.40898L27.3515 6.00898C26.5578 6.00898 25.9017 6.66464 25.9021 7.45807H26.3021ZM27.3476 8.49056C26.7794 8.50441 26.3023 8.0313 26.3021 7.45807H25.9021C25.9024 8.2505 26.5592 8.9099 27.3576 8.89044L27.3476 8.49056ZM32.1379 13.2705C32.1368 10.6284 29.9962 8.4905 27.3525 8.4905L27.3527 8.8905C29.7757 8.8905 31.7368 10.8496 31.7379 13.2705H32.1379ZM27.6175 18.0502C30.1567 17.9111 32.139 15.825 32.1379 13.2705H31.7379C31.7389 15.6123 29.9228 17.5233 27.5955 17.6507L27.6175 18.0502ZM27.0232 18.0664C27.2134 18.0506 27.4217 18.0505 27.6066 18.0505L27.6064 17.6505C27.4246 17.6505 27.1995 17.6503 26.9898 17.6678L27.0232 18.0664ZM26.1728 19.23C26.1146 18.6368 26.4727 18.1336 27.0308 18.0656L26.9822 17.6686C26.1736 17.7671 25.6989 18.4964 25.7747 19.2689L26.1728 19.23ZM27.4047 20.1496C26.8106 20.2075 26.227 19.7833 26.1728 19.23L25.7747 19.2689C25.8543 20.0812 26.6712 20.623 27.4437 20.5477L27.4047 20.1496ZM6.15282 36.0215C8.67668 37.7136 12.0014 38.5535 15.2986 38.5535L15.2985 38.1535C12.0623 38.1535 8.81969 37.328 6.37548 35.6893L6.15282 36.0215ZM2.47831 29.943C2.47931 32.3066 3.7941 34.4619 6.15389 36.0222L6.37441 35.6886C4.09956 34.1844 2.87925 32.1428 2.87831 29.943H2.47831ZM6.1479 23.8311C3.78979 25.4082 2.47732 27.5799 2.47831 29.943H2.87831C2.87738 27.7428 4.09645 25.6844 6.37036 24.1637L6.1479 23.8311ZM24.4367 23.831C21.9131 22.1475 18.6052 21.3117 15.3038 21.3117C12.0024 21.3117 8.68721 22.1475 6.14857 23.8307L6.3697 24.1641C8.82966 22.5331 12.0637 21.7117 15.304 21.7117C18.5443 21.7117 21.7705 22.5331 24.2149 24.1638L24.4367 23.831ZM28.1116 29.9097C28.1106 27.5456 26.7786 25.3907 24.4366 23.8309L24.215 24.1638C26.4743 25.6685 27.7107 27.7106 27.7116 29.9097H28.1116ZM24.442 36.0216C26.8002 34.4446 28.1126 32.2728 28.1116 29.9097H27.7116C27.7126 32.11 26.4935 34.1684 24.2196 35.6891L24.442 36.0216ZM15.2986 38.5535C18.5962 38.5535 21.9032 37.7135 24.4418 36.0218L24.2199 35.6889C21.7599 37.3282 18.5342 38.1535 15.2985 38.1535L15.2986 38.5535ZM5.37832 29.9597C5.37775 28.6156 6.18998 27.3047 7.75431 26.2623L7.5324 25.9294C5.89763 27.0188 4.97768 28.4392 4.97832 29.9597H5.37832ZM7.75702 33.6235C6.20753 32.597 5.37888 31.2859 5.37832 29.9597H4.97832C4.97896 31.4647 5.91813 32.885 7.5362 33.9569L7.75702 33.6235ZM22.8352 33.6241C20.8013 34.9876 18.0555 35.6762 15.2974 35.6762C12.5393 35.6762 9.79293 34.9876 7.75788 33.6241L7.53533 33.9564C9.65147 35.3742 12.4807 36.0762 15.2976 36.0762C18.1145 36.0762 20.9431 35.3742 23.058 33.9564L22.8352 33.6241ZM25.2116 29.9264C25.2122 31.2705 24.4 32.5814 22.8357 33.6238L23.0576 33.9567C24.6923 32.8673 25.6123 31.4469 25.6116 29.9264H25.2116ZM22.8329 26.2626C24.3824 27.2891 25.2111 28.6002 25.2116 29.9264H25.6116C25.611 28.4213 24.6718 27.0011 23.0538 25.9291L22.8329 26.2626ZM7.75431 26.2623C9.78827 24.9069 12.5342 24.2224 15.2926 24.2224C18.0509 24.2224 20.7974 24.9069 22.8325 26.2623L23.0542 25.9294C20.9381 24.5201 18.1091 23.8224 15.2924 23.8224C12.4757 23.8224 9.64727 24.5201 7.5324 25.9294L7.75431 26.2623ZM30.5804 35.1554C30.0892 35.1554 29.6576 34.8201 29.5597 34.318L29.1671 34.3944C29.303 35.0914 29.9051 35.5555 30.5806 35.5555L30.5804 35.1554ZM30.7838 35.1324C30.7177 35.1544 30.6636 35.1554 30.5804 35.1554L30.5806 35.5555C30.664 35.5555 30.7766 35.5565 30.9104 35.5119L30.7838 35.1324ZM34.4906 33.4985C33.4841 34.2774 32.2135 34.8483 30.8083 35.1259L30.886 35.5183C32.3471 35.2297 33.6761 34.6348 34.7355 33.8149L34.4906 33.4985ZM36.8612 29.0934C36.8619 30.753 36.0002 32.3465 34.4917 33.4977L34.7345 33.8157C36.325 32.6019 37.2619 30.8979 37.2612 29.0934H36.8612ZM34.5058 24.7065C36.013 25.8398 36.8605 27.4324 36.8612 29.0934H37.2612C37.2604 27.2902 36.3398 25.5852 34.7461 24.3869L34.5058 24.7065ZM30.8822 23.0766C32.2906 23.3875 33.513 23.9425 34.504 24.7052L34.7478 24.3882C33.7048 23.5854 32.4268 23.0079 30.9682 22.686L30.8822 23.0766ZM29.6207 23.8745C29.7464 23.3152 30.3069 22.9504 30.8824 23.0766L30.968 22.6859C30.1767 22.5123 29.4042 23.0136 29.2305 23.7866L29.6207 23.8745ZM30.42 25.1343C29.86 25.0084 29.495 24.4481 29.621 23.8735L29.2302 23.7877C29.0568 24.5787 29.559 25.3507 30.3324 25.5246L30.42 25.1343ZM33.2323 26.3869C32.4707 25.7991 31.5255 25.3892 30.4211 25.1346L30.3314 25.5243C31.3939 25.7693 32.2823 26.1589 32.9879 26.7035L33.2323 26.3869ZM34.7612 29.0934C34.7607 28.0657 34.2003 27.1122 33.23 26.3852L32.9902 26.7053C33.8872 27.3773 34.3608 28.2224 34.3612 29.0934H34.7612ZM33.216 31.8179C34.2014 31.0748 34.7616 30.1216 34.7612 29.0934H34.3612C34.3615 29.9637 33.8892 30.8092 32.9751 31.4985L33.216 31.8179ZM30.3699 33.0698C31.4442 32.8483 32.4403 32.421 33.2184 31.8161L32.9728 31.5002C32.2513 32.0612 31.3144 32.4666 30.289 32.6781L30.3699 33.0698ZM29.5597 34.3179C29.447 33.7422 29.8114 33.1954 30.3734 33.0691L30.2855 32.6788C29.5142 32.8522 29.0125 33.6045 29.1671 34.3945L29.5597 34.3179Z" fill="white" mask="url(#path-1-inside-1_260_16816)"/>
</svg>
