<svg width="23" height="23" viewBox="0 0 23 23" fill="none" xmlns="http://www.w3.org/2000/svg">
<path d="M8.89587 11.4482C8.86837 11.4482 8.85003 11.4482 8.82253 11.4482C8.7767 11.439 8.71253 11.439 8.65753 11.4482C5.9992 11.3657 3.9917 9.27572 3.9917 6.69988C3.9917 4.07822 6.12753 1.94238 8.7492 1.94238C11.3709 1.94238 13.5067 4.07822 13.5067 6.69988C13.4975 9.27572 11.4809 11.3657 8.92337 11.4482C8.9142 11.4482 8.90503 11.4482 8.89587 11.4482ZM8.7492 3.31738C6.88837 3.31738 5.3667 4.83905 5.3667 6.69988C5.3667 8.53322 6.7967 10.009 8.62087 10.0732C8.67587 10.064 8.79503 10.064 8.9142 10.0732C10.7109 9.99072 12.1225 8.51488 12.1317 6.69988C12.1317 4.83905 10.61 3.31738 8.7492 3.31738Z" fill="white"/>
<path d="M15.6608 11.568C15.6333 11.568 15.6058 11.568 15.5783 11.5589C15.2025 11.5955 14.8175 11.3297 14.7808 10.9539C14.7441 10.578 14.9733 10.2389 15.3491 10.193C15.4591 10.1839 15.5783 10.1839 15.6791 10.1839C17.0175 10.1105 18.0625 9.01053 18.0625 7.66303C18.0625 6.2697 16.935 5.1422 15.5416 5.1422C15.1658 5.15137 14.8541 4.8397 14.8541 4.46387C14.8541 4.08803 15.1658 3.77637 15.5416 3.77637C17.6866 3.77637 19.4375 5.5272 19.4375 7.6722C19.4375 9.78053 17.7875 11.4855 15.6883 11.568C15.6791 11.568 15.67 11.568 15.6608 11.568Z" fill="white"/>
<path d="M8.90499 21.468C7.10832 21.468 5.30249 21.0097 3.93665 20.093C2.66249 19.2497 1.96582 18.0947 1.96582 16.8389C1.96582 15.583 2.66249 14.4189 3.93665 13.5664C6.68665 11.7422 11.1417 11.7422 13.8733 13.5664C15.1383 14.4097 15.8442 15.5647 15.8442 16.8205C15.8442 18.0764 15.1475 19.2405 13.8733 20.093C12.4983 21.0097 10.7017 21.468 8.90499 21.468ZM4.69749 14.7214C3.81749 15.308 3.34082 16.0597 3.34082 16.848C3.34082 17.6272 3.82665 18.3789 4.69749 18.9564C6.97999 20.4872 10.83 20.4872 13.1125 18.9564C13.9925 18.3697 14.4692 17.618 14.4692 16.8297C14.4692 16.0505 13.9833 15.2989 13.1125 14.7214C10.83 13.1997 6.97999 13.1997 4.69749 14.7214Z" fill="white"/>
<path d="M17.3108 19.8177C16.99 19.8177 16.7058 19.5977 16.6417 19.2677C16.5683 18.8919 16.8067 18.5344 17.1733 18.4519C17.7508 18.3327 18.2825 18.1036 18.695 17.7827C19.2175 17.3886 19.5017 16.8936 19.5017 16.3711C19.5017 15.8486 19.2175 15.3536 18.7042 14.9686C18.3008 14.6569 17.7967 14.4369 17.2008 14.2994C16.8342 14.2169 16.5958 13.8502 16.6783 13.4744C16.7608 13.1077 17.1275 12.8694 17.5033 12.9519C18.2917 13.1261 18.9792 13.4377 19.5383 13.8686C20.3908 14.5102 20.8767 15.4177 20.8767 16.3711C20.8767 17.3244 20.3817 18.2319 19.5292 18.8827C18.9608 19.3227 18.2458 19.6436 17.4575 19.7994C17.4025 19.8177 17.3567 19.8177 17.3108 19.8177Z" fill="white"/>
</svg>
