<svg width="50" height="51" viewBox="0 0 50 51" fill="none" xmlns="http://www.w3.org/2000/svg">
<path d="M5.77263 6.19621H5.52263V6.44621V16.9357V17.1857H5.77263H16.2621H16.5121V16.9357V6.44621V6.19621H16.2621H5.77263ZM26.5015 23.9287L26.5015 24.1787H26.7515H31.9964C32.8238 24.1787 33.4947 24.8496 33.4947 25.677C33.4947 26.5044 32.8238 27.1752 31.9964 27.1752H18.0104C17.183 27.1752 16.5121 26.5044 16.5121 25.677C16.5121 24.8496 17.183 24.1787 18.0104 24.1787H23.255H23.505L23.505 23.9287L23.5051 4.69796C23.5051 3.87054 24.1761 3.19971 25.0034 3.19971C25.8308 3.19971 26.5016 3.87053 26.5016 4.69796L26.5015 23.9287ZM44.4842 6.44621V6.19621H44.2342H31.9964C31.169 6.19621 30.4982 5.52539 30.4982 4.69796C30.4982 3.87053 31.169 3.19971 31.9964 3.19971H45.9824C46.8098 3.19971 47.4807 3.87053 47.4807 4.69796V18.684C47.4807 19.5114 46.8098 20.1822 45.9824 20.1822C45.155 20.1822 44.4842 19.5114 44.4842 18.684V6.44621ZM33.4947 16.9357V17.1857H33.7447H38.9894C39.8168 17.1857 40.4877 17.8565 40.4877 18.684C40.4877 19.5114 39.8168 20.1822 38.9894 20.1822H31.9964C31.169 20.1822 30.4982 19.5114 30.4982 18.684V11.691C30.4982 10.8635 31.169 10.1927 31.9964 10.1927C32.8238 10.1927 33.4947 10.8635 33.4947 11.691V16.9357ZM44.2342 45.1577H44.4842V44.9077V34.4182V34.1682H44.2342H33.7447H33.4947V34.4182V44.9077V45.1577H33.7447H44.2342ZM16.2621 45.1577H16.5121V44.9077V34.4182V34.1682H16.2621H5.77263H5.52263V34.4182V44.9077V45.1577H5.77263H16.2621ZM9.51913 11.691C9.51913 10.8635 10.19 10.1927 11.0174 10.1927C11.8448 10.1927 12.5156 10.8635 12.5156 11.691C12.5156 12.5184 11.8448 13.1892 11.0174 13.1892C10.19 13.1892 9.51913 12.5184 9.51913 11.691ZM2.52612 25.677C2.52612 24.8496 3.19694 24.1787 4.02437 24.1787H11.0174C11.8448 24.1787 12.5156 24.8496 12.5156 25.677C12.5156 26.5044 11.8448 27.1752 11.0174 27.1752H4.02437C3.19694 27.1752 2.52612 26.5044 2.52612 25.677ZM2.52612 18.684V4.69796C2.52612 3.87053 3.19694 3.19971 4.02437 3.19971H18.0104C18.8378 3.19971 19.5086 3.87053 19.5086 4.69796V18.684C19.5086 19.5114 18.8378 20.1822 18.0104 20.1822H4.02437C3.19694 20.1822 2.52612 19.5114 2.52612 18.684ZM38.9894 13.1892C38.162 13.1892 37.4912 12.5184 37.4912 11.691C37.4912 10.8635 38.162 10.1927 38.9894 10.1927C39.8168 10.1927 40.4877 10.8635 40.4877 11.691C40.4877 12.5184 39.8168 13.1892 38.9894 13.1892ZM38.9894 24.1787H45.9824C46.8098 24.1787 47.4807 24.8496 47.4807 25.677C47.4807 26.5044 46.8098 27.1752 45.9824 27.1752H38.9894C38.162 27.1752 37.4912 26.5044 37.4912 25.677C37.4912 24.8496 38.162 24.1787 38.9894 24.1787ZM47.4807 32.67V46.656C47.4807 47.4834 46.8098 48.1543 45.9824 48.1543H31.9964C31.169 48.1543 30.4982 47.4834 30.4982 46.656V32.67C30.4982 31.8426 31.169 31.1717 31.9964 31.1717H45.9824C46.8098 31.1717 47.4807 31.8426 47.4807 32.67ZM23.5051 32.67C23.5051 31.8426 24.176 31.1717 25.0034 31.1717C25.8308 31.1717 26.5016 31.8426 26.5016 32.67V46.656C26.5016 47.4834 25.8308 48.1543 25.0034 48.1543C24.176 48.1543 23.5051 47.4834 23.5051 46.656V32.67ZM40.4877 39.663C40.4877 40.4904 39.8168 41.1612 38.9894 41.1612C38.162 41.1612 37.4912 40.4904 37.4912 39.663C37.4912 38.8356 38.162 38.1647 38.9894 38.1647C39.8168 38.1647 40.4877 38.8356 40.4877 39.663ZM12.5156 39.663C12.5156 40.4904 11.8448 41.1612 11.0174 41.1612C10.19 41.1612 9.51913 40.4904 9.51913 39.663C9.51913 38.8356 10.19 38.1647 11.0174 38.1647C11.8448 38.1647 12.5156 38.8356 12.5156 39.663ZM4.02437 31.1717H18.0104C18.8378 31.1717 19.5086 31.8426 19.5086 32.67V46.656C19.5086 47.4834 18.8378 48.1543 18.0104 48.1543H4.02437C3.19694 48.1543 2.52612 47.4834 2.52612 46.656V32.67C2.52612 31.8426 3.19694 31.1717 4.02437 31.1717Z" fill="#1A1A1A" stroke="white" stroke-width="0.5"/>
</svg>
