<svg width="25" height="24" viewBox="0 0 25 24" fill="none" xmlns="http://www.w3.org/2000/svg">
<path fill-rule="evenodd" clip-rule="evenodd" d="M11.5 3C7.08172 3 3.5 6.58172 3.5 11C3.5 15.4183 7.08172 19 11.5 19C15.9183 19 19.5 15.4183 19.5 11C19.5 6.58172 15.9183 3 11.5 3ZM1.5 11C1.5 5.47715 5.97715 1 11.5 1C17.0228 1 21.5 5.47715 21.5 11C21.5 13.4013 20.6536 15.6049 19.2429 17.3287L23.2071 21.2929C23.5976 21.6834 23.5976 22.3166 23.2071 22.7071C22.8166 23.0976 22.1834 23.0976 21.7929 22.7071L17.8287 18.7429C16.1049 20.1536 13.9013 21 11.5 21C5.97715 21 1.5 16.5228 1.5 11Z" fill="#1A1A1A"/>
</svg>
