<svg width="51" height="51" viewBox="0 0 51 51" fill="none" xmlns="http://www.w3.org/2000/svg">
<g clip-path="url(#clip0_260_16158)">
<path d="M46.8413 3.97388L3.43506 3.97388C1.72412 3.97388 0.333496 5.3645 0.333496 7.07544L0.333496 38.0833C0.333496 39.7942 1.72412 41.1848 3.43506 41.1848H14.9429L12.1851 45.3176H8.60693C8.03662 45.3176 7.57568 45.7786 7.57568 46.3489C7.57568 46.9192 8.03662 47.3801 8.60693 47.3801H41.6772C42.2476 47.3801 42.7085 46.9192 42.7085 46.3489C42.7085 45.7786 42.2476 45.3176 41.6772 45.3176H38.0991L35.3413 41.1848H46.8491C48.5601 41.1848 49.9507 39.7942 49.9507 38.0833V7.07544C49.9429 5.3645 48.5522 3.97388 46.8413 3.97388ZM3.43506 6.03638L46.8413 6.03638C47.4116 6.03638 47.8726 6.49731 47.8726 7.06763V32.9036H35.4272C34.9116 27.6848 30.4976 23.5989 25.146 23.5989C19.7944 23.5989 15.3804 27.6848 14.8647 32.9036H2.40381L2.40381 7.07544C2.40381 6.50513 2.86475 6.03638 3.43506 6.03638ZM16.9429 32.9114C17.4507 28.8411 20.9351 25.677 25.146 25.677C29.3569 25.677 32.8413 28.8411 33.3491 32.9114H16.9429ZM35.6069 45.3176H14.6694L17.4272 41.1848H32.8569L35.6069 45.3176ZM46.8413 39.1145H3.43506C2.86475 39.1145 2.40381 38.6536 2.40381 38.0833V34.9817H47.8726V38.0833C47.8726 38.6458 47.4116 39.1145 46.8413 39.1145Z" fill="#1A1A1A"/>
<path d="M6.79446 31.2239L11.3413 30.0833C11.6773 29.9973 11.9507 29.7551 12.0601 29.427C12.2476 28.9036 12.4585 28.3879 12.7007 27.8879C12.8491 27.5754 12.8335 27.2083 12.6538 26.9114L10.6616 23.5754L14.7788 19.4583L18.0991 21.4583C18.4038 21.6379 18.7788 21.6536 19.0913 21.4973C19.5366 21.2708 20.0445 21.0598 20.6226 20.8567C20.9507 20.7395 21.1929 20.4739 21.2788 20.1379L22.2241 16.3723H28.0523L28.9898 20.1301C29.0757 20.4661 29.3257 20.7395 29.6538 20.8567C30.2007 21.0442 30.7007 21.2551 31.1773 21.4973C31.4898 21.6536 31.8648 21.6379 32.1695 21.4583L35.5054 19.4583L39.6226 23.5754L37.6226 26.9114C37.4429 27.2083 37.4273 27.5754 37.5757 27.8879C37.8648 28.4973 38.0601 28.9661 38.2085 29.4036C38.3179 29.7395 38.5913 29.9973 38.9351 30.0833C38.9351 30.0833 43.6616 31.2551 43.7476 31.2551C44.2085 31.2551 44.6304 30.9426 44.7476 30.4739C44.8882 29.9192 44.5523 29.3567 43.9976 29.2161L39.9741 28.2083C39.8882 27.9895 39.7945 27.7551 39.6773 27.5051L41.8179 23.9504C42.0601 23.5442 41.9976 23.0208 41.6616 22.6848L36.4038 17.427C36.0679 17.0911 35.5445 17.0286 35.1382 17.2708L31.5835 19.4036C31.3491 19.302 31.107 19.2004 30.8648 19.1067L29.8648 15.0911C29.7476 14.6301 29.3335 14.3098 28.8648 14.3098L21.4273 14.3098C20.9507 14.3098 20.5445 14.6301 20.4273 15.0911L19.4195 19.1067C19.1695 19.2083 18.9273 19.302 18.7007 19.4036L15.1616 17.2708C14.7554 17.0208 14.232 17.0911 13.896 17.427L8.63821 22.6848C8.30227 23.0208 8.23977 23.5364 8.48196 23.9426L10.607 27.5051C10.5054 27.7395 10.4116 27.9661 10.3179 28.2083L6.30227 29.2161C5.74758 29.3567 5.41164 29.9192 5.55227 30.4739C5.67727 31.0286 6.24758 31.3645 6.79446 31.2239Z" fill="#1A1A1A"/>
</g>
<defs>
<clipPath id="clip0_260_16158">
<rect width="50" height="50" fill="white" transform="translate(0.138184 0.677002)"/>
</clipPath>
</defs>
</svg>
