<svg width="130" height="51" viewBox="0 0 130 51" fill="none" xmlns="http://www.w3.org/2000/svg">
<rect y="0.623535" width="130" height="50" rx="4" fill="white"/>
<path fill-rule="evenodd" clip-rule="evenodd" d="M19.3508 10.9179C18.4656 11.8148 18.4656 13.2583 18.4656 16.1454V26.0954C18.4656 28.9824 18.4656 30.426 19.3508 31.3229C20.236 32.2197 21.6607 32.2197 24.5102 32.2197H34.3306C37.1801 32.2197 38.6048 32.2197 39.49 31.3229C40.3752 30.426 40.3752 28.9824 40.3752 26.0954V16.1454C40.3752 13.2583 40.3752 11.8148 39.49 10.9179C38.6048 10.021 37.1801 10.021 34.3306 10.021H24.5102C21.6607 10.021 20.236 10.021 19.3508 10.9179ZM27.9782 22.4402C25.7063 21.9556 23.4544 20.845 23.4544 18.0585C23.4544 14.8884 26.5234 13.3942 29.6124 13.3942C32.2231 13.3942 34.1164 13.9797 35.9498 15.0095L34.1961 18.5028C33.1399 17.8566 31.2267 17.1499 29.4729 17.1499C28.3569 17.1499 27.7191 17.4124 27.7191 17.9778C27.7191 18.4018 28.1177 18.7046 28.9149 18.8864L31.0473 19.3306C33.7576 19.9162 36.0495 20.7844 36.0495 23.6719C36.0495 26.9834 33.2395 28.6391 29.732 28.6391C26.643 28.6391 24.4109 27.7507 22.7967 26.5392L24.8494 23.1267C26.0651 24.0354 27.9981 24.843 29.8715 24.843C31.0473 24.843 31.7647 24.6411 31.7647 24.0152C31.7647 23.3892 30.9676 23.0863 29.6124 22.7834L27.9782 22.4402Z" fill="#2A8B7A"/>
<path d="M42.0523 17.599C42.0523 20.9159 44.7329 22.2378 47.4373 22.8147L49.3825 23.2233C50.9956 23.5839 51.9445 23.9444 51.9445 24.6895C51.9445 25.4346 51.0905 25.6749 49.6909 25.6749C47.6027 25.6749 45.4521 24.8318 43.9988 23.8364C43.843 23.7296 43.6286 23.772 43.5307 23.9348L41.4219 27.4406C41.3356 27.584 41.3711 27.7707 41.5068 27.8673C43.408 29.22 45.9969 30.1936 49.5249 30.1936C53.7 30.1936 57.0448 28.2227 57.0448 24.2809C57.0448 20.8438 54.3167 19.8103 51.0905 19.1132L48.5522 18.5845C47.6033 18.3682 47.1289 18.0076 47.1289 17.5029C47.1289 16.8299 47.888 16.5175 49.2165 16.5175C51.148 16.5175 53.242 17.2376 54.5401 17.9545C54.7036 18.0448 54.9105 17.9847 54.9949 17.8166L56.786 14.249C56.8642 14.0932 56.8067 13.9022 56.6544 13.82C54.5555 12.6873 52.3613 12.0469 49.3825 12.0469C45.7056 12.0469 42.0523 13.8255 42.0523 17.599Z" fill="#2A8B7A"/>
<path d="M76.0739 21.1322C76.0739 15.3878 72.3259 12.0469 67.0593 12.0469C61.793 12.0469 58.0449 15.3878 58.0449 21.1322C58.0449 26.8767 61.793 30.1936 67.0593 30.1936C72.3259 30.1936 76.0739 26.8767 76.0739 21.1322ZM63.1926 21.1322C63.1926 17.6952 65.0667 16.2531 67.0593 16.2531C69.052 16.2531 70.926 17.6952 70.926 21.1322C70.926 24.5693 69.052 25.9874 67.0593 25.9874C65.0667 25.9874 63.1926 24.5693 63.1926 21.1322Z" fill="#2A8B7A"/>
<path d="M92.8969 12.7319C92.8969 12.5526 92.7532 12.4072 92.5765 12.4072H88.2594C88.0826 12.4072 87.939 12.5526 87.939 12.7319V18.5961C87.939 18.7754 87.7953 18.9208 87.6185 18.9208H82.3524C82.1756 18.9208 82.0319 18.7754 82.0319 18.5961V12.7319C82.0319 12.5526 81.8887 12.4072 81.7115 12.4072H77.3944C77.2177 12.4072 77.074 12.5526 77.074 12.7319V29.5081C77.074 29.6875 77.2177 29.8328 77.3944 29.8328H81.7115C81.8887 29.8328 82.0319 29.6875 82.0319 29.5081V23.5719C82.0319 23.3925 82.1756 23.2472 82.3524 23.2472H87.6185C87.7953 23.2472 87.939 23.3925 87.939 23.5719V29.5081C87.939 29.6875 88.0826 29.8328 88.2594 29.8328H92.5765C92.7532 29.8328 92.8969 29.6875 92.8969 29.5081V12.7319Z" fill="#2A8B7A"/>
<path d="M100.224 12.4072C100.089 12.4072 99.9689 12.4928 99.9231 12.6212L93.9164 29.3974C93.8407 29.6091 93.9958 29.8328 94.2179 29.8328H98.8138C98.9547 29.8328 99.079 29.7396 99.1201 29.6031L99.8593 27.1543C99.9004 27.0178 100.025 26.9245 100.166 26.9245H105.171C105.312 26.9245 105.436 27.0178 105.478 27.1543L106.217 29.6031C106.258 29.7396 106.382 29.8328 106.523 29.8328H111.214C111.436 29.8328 111.591 29.6091 111.515 29.3974L105.509 12.6212C105.463 12.4928 105.342 12.4072 105.207 12.4072H100.224ZM101.527 23.1751C101.31 23.1751 101.156 22.9627 101.22 22.7537L102.394 18.944C102.488 18.6386 102.915 18.6404 103.006 18.9466L104.145 22.7562C104.207 22.9647 104.053 23.1751 103.838 23.1751H101.527Z" fill="#2A8B7A"/>
<path d="M19.0643 40.0824H19.6684V36.5018H20.7974V35.9985H17.9353V36.5018H19.0643V40.0824ZM22.0408 38.3665H22.7578L23.565 40.0824H24.2312L23.3505 38.3093C23.9037 38.1835 24.1465 37.8345 24.1465 37.1596C24.1465 36.765 24.0562 36.4961 23.8586 36.296C23.6497 36.0843 23.3675 35.9985 22.8707 35.9985H21.4368V40.0824H22.0408V38.3665ZM22.0296 37.8803V36.4904H22.8142C23.3223 36.4904 23.5481 36.7021 23.5481 37.1882C23.5481 37.663 23.3336 37.8803 22.8481 37.8803H22.0296ZM27.2301 39.2301L27.5124 40.0824H28.1672L26.6995 35.9985H26.118L24.6503 40.0824H25.3051L25.5874 39.2301H27.2301ZM27.0834 38.7382H25.7342L26.4116 36.7421L27.0834 38.7382ZM28.5251 40.0824H29.1122V37.0281L30.9074 40.0824H31.4945V35.9985H30.9074V39.0528L29.1122 35.9985H28.5251V40.0824ZM33.8756 38.3665H34.632V38.6811C34.632 39.3274 34.3554 39.642 33.7852 39.642C33.17 39.642 32.9385 39.3159 32.9385 38.4351V37.6572C32.9385 36.7821 33.17 36.4504 33.7796 36.4504C34.2256 36.4504 34.4909 36.6677 34.5474 37.0853L35.1062 37.0452C35.0667 36.3303 34.5982 35.9528 33.757 35.9528C33.249 35.9528 32.9046 36.0901 32.6506 36.3875C32.4191 36.6563 32.3344 36.988 32.3344 37.6172V38.4694C32.3344 39.0528 32.4022 39.3674 32.5942 39.6305C32.8425 39.9794 33.2151 40.1396 33.7965 40.1396C34.3159 40.1396 34.6828 39.9909 34.9369 39.682C35.1514 39.4189 35.2304 39.1157 35.2304 38.5495V37.8917H33.8756V38.3665ZM37.7331 40.0824H38.3371V36.5018H39.4662V35.9985H36.6041V36.5018H37.7331V40.0824ZM40.0999 40.0824H40.7039V38.2692H42.2507V40.0824H42.8548V35.9985H42.2507V37.7659H40.7039V35.9985H40.0999V40.0824ZM43.6998 38.5381C43.6998 39.0757 43.7788 39.3903 43.9764 39.6477C44.2304 39.9851 44.5974 40.1396 45.1562 40.1396C45.6699 40.1396 46.0087 40.0138 46.274 39.7163C46.5167 39.4532 46.607 39.1215 46.607 38.5381V37.5428C46.607 37.0052 46.528 36.6906 46.3304 36.4332C46.0764 36.0958 45.7094 35.9413 45.1562 35.9413C44.6369 35.9413 44.2982 36.0672 44.0329 36.3646C43.7901 36.6334 43.6998 36.9595 43.6998 37.5428V38.5381ZM46.003 38.4809C46.003 39.2988 45.749 39.642 45.1562 39.642C44.5578 39.642 44.3038 39.2988 44.3038 38.4809V37.6C44.3038 36.7821 44.5578 36.439 45.1562 36.439C45.749 36.439 46.003 36.7821 46.003 37.6V38.4809ZM45.1506 35.1234L45.5119 35.581H46.0877L45.3482 34.7688H44.953L44.2191 35.581H44.7949L45.1506 35.1234ZM47.453 40.0824H48.0401V37.0281L49.8352 40.0824H50.4223V35.9985H49.8352V39.0528L48.0401 35.9985H47.453V40.0824ZM52.8034 38.3665H53.5599V38.6811C53.5599 39.3274 53.2833 39.642 52.7131 39.642C52.0978 39.642 51.8663 39.3159 51.8663 38.4351V37.6572C51.8663 36.7821 52.0978 36.4504 52.7075 36.4504C53.1535 36.4504 53.4188 36.6677 53.4752 37.0853L54.0341 37.0452C53.9946 36.3303 53.5261 35.9528 52.6849 35.9528C52.1768 35.9528 51.8325 36.0901 51.5785 36.3875C51.347 36.6563 51.2623 36.988 51.2623 37.6172V38.4694C51.2623 39.0528 51.33 39.3674 51.522 39.6305C51.7704 39.9794 52.143 40.1396 52.7244 40.1396C53.2438 40.1396 53.6107 39.9909 53.8647 39.682C54.0793 39.4189 54.1583 39.1157 54.1583 38.5495V37.8917H52.8034V38.3665ZM56.661 40.0824H57.265V36.5018H58.394V35.9985H55.5319V36.5018H56.661V40.0824ZM59.0278 40.0824H59.6318V35.9985H59.0278V40.0824ZM60.5736 40.0824H61.1607V37.0281L62.9559 40.0824H63.5429V35.9985H62.9559V39.0528L61.1607 35.9985H60.5736V40.0824ZM65.4734 37.7716H65.022V38.2635H65.4734V40.0824H66.8001C67.8162 40.0938 68.3186 39.5676 68.2903 38.5152V37.5657C68.3186 36.5133 67.8162 35.9814 66.8001 35.9985H65.4734V37.7716ZM66.0774 37.7716V36.4904H66.6928C67.3984 36.4733 67.6806 36.7936 67.6863 37.6172V38.458C67.6806 39.2874 67.3984 39.6076 66.6928 39.5905H66.0774V38.2635H66.9244V37.7716H66.0774ZM69.1415 40.0824H69.7455V35.9985H69.1415V40.0824ZM70.6932 40.0824H73.1263V39.579H71.2915V38.2692H72.8385V37.7659H71.2915V36.5018H73.1093V35.9985H70.6932V40.0824ZM71.9126 35.1234L72.2737 35.581H72.8441L72.1101 34.7688H71.715L70.9753 35.581H71.551L71.9126 35.1234ZM71.6469 41.2263H72.2061V40.5743H71.6469V41.2263ZM73.8211 40.0824H74.4081V37.0281L76.2032 40.0824H76.7902V35.9985H76.2032V39.0528L74.4081 35.9985H73.8211V40.0824ZM79.4436 40.0824H80.0476V36.5018H81.1763V35.9985H78.3144V36.5018H79.4436V40.0824ZM81.6943 35.9985V38.5724C81.6943 39.1157 81.7392 39.3674 81.8862 39.5962C82.1286 39.968 82.5124 40.1396 83.1112 40.1396C83.6699 40.1396 84.0201 39.9966 84.2739 39.6648C84.4658 39.4246 84.5225 39.1615 84.5225 38.5724V37.2397C84.816 37.0853 84.9176 37.0281 85.0301 36.948C85.3463 36.7192 85.482 36.4904 85.482 36.1873C85.482 36.0958 85.4763 36.0386 85.4423 35.9356H84.9342C84.9966 36.0557 85.0193 36.1358 85.0193 36.2559C85.0193 36.5247 84.8893 36.6906 84.5225 36.8622V35.9985H83.9185V38.5724C83.9185 38.9156 83.8901 39.11 83.8221 39.2587C83.6926 39.5276 83.478 39.642 83.1112 39.642C82.761 39.642 82.5634 39.5447 82.4221 39.3102C82.3319 39.1501 82.2983 38.967 82.2983 38.5724V35.9985H81.6943ZM83.3934 35.6496C83.3991 35.4723 83.4047 35.4437 83.495 35.3293C83.6529 35.1349 83.6756 35.0948 83.6756 34.9633C83.6756 34.6887 83.478 34.5286 83.1391 34.5286C82.9699 34.5286 82.8569 34.5514 82.6594 34.6201L82.7553 34.9461C82.891 34.8832 82.9642 34.8661 83.0432 34.8661C83.1448 34.8661 83.2015 34.9118 83.2015 34.9862C83.2015 35.0319 83.1845 35.0777 83.1505 35.1292C83.0096 35.3236 82.9983 35.3579 82.9926 35.5753V35.6496H83.3934ZM87.4548 40.0824H88.0588V36.5018H89.1879V35.9985H86.3256V36.5018H87.4548V40.0824ZM89.6265 38.5381C89.6265 39.0757 89.7055 39.3903 89.903 39.6477C90.1568 39.9851 90.5241 40.1396 91.0827 40.1396C91.5965 40.1396 91.9354 40.0138 92.2005 39.7163C92.4434 39.4532 92.5337 39.1215 92.5337 38.5381V37.5428C92.5337 37.0052 92.4548 36.6906 92.2568 36.4332C92.0029 36.0958 91.6362 35.9413 91.0827 35.9413C90.5633 35.9413 90.2249 36.0672 89.9593 36.3646C89.7168 36.6334 89.6265 36.9595 89.6265 37.5428V38.5381ZM91.9297 38.4809C91.9297 39.2988 91.6754 39.642 91.0827 39.642C90.4844 39.642 90.2306 39.2988 90.2306 38.4809V37.6C90.2306 36.7821 90.4844 36.439 91.0827 36.439C91.6754 36.439 91.9297 36.7821 91.9297 37.6V38.4809ZM91.2519 35.0262C91.2576 34.9061 91.2576 34.8889 91.3313 34.8203C91.4552 34.6887 91.4778 34.6487 91.4778 34.5514C91.4778 34.3456 91.3086 34.2197 91.0265 34.2197C90.8738 34.2197 90.7665 34.2426 90.62 34.2941L90.7046 34.5572C90.8119 34.5057 90.8738 34.4886 90.9419 34.4886C91.0265 34.4886 91.0714 34.5114 91.0714 34.5572C91.0714 34.5858 91.0544 34.6258 91.0322 34.6544C90.9078 34.8031 90.9022 34.826 90.8965 35.0262H91.2519ZM91.0714 35.4208L91.4216 35.7297H91.9689L91.2576 35.1177H90.8795L90.1738 35.7297H90.716L91.0714 35.4208ZM93.3797 40.0824H93.9668V37.0281L95.7618 40.0824H96.3488V35.9985H95.7618V39.0528L93.9668 35.9985H93.3797V40.0824ZM98.73 38.3665H99.4867V38.6811C99.4867 39.3274 99.2097 39.642 98.6397 39.642C98.0243 39.642 97.7927 39.3159 97.7927 38.4351V37.6572C97.7927 36.7821 98.0243 36.4504 98.634 36.4504C99.0802 36.4504 99.3454 36.6677 99.4016 37.0853L99.9607 37.0452C99.921 36.3303 99.4526 35.9528 98.6114 35.9528C98.1033 35.9528 97.7592 36.0901 97.5049 36.3875C97.2733 36.6563 97.1887 36.988 97.1887 37.6172V38.4694C97.1887 39.0528 97.2568 39.3674 97.4487 39.6305C97.6968 39.9794 98.0697 40.1396 98.6511 40.1396C99.1705 40.1396 99.5372 39.9909 99.7915 39.682C100.006 39.4189 100.085 39.1157 100.085 38.5495V37.8917H98.73V38.3665ZM101.865 40.0824H102.469V38.2692H104.016V40.0824H104.62V35.9985H104.016V37.7659H102.469V35.9985H101.865V40.0824ZM108.53 35.9356C108.592 36.05 108.615 36.1358 108.615 36.2502C108.615 36.4618 108.524 36.5991 108.271 36.7707C108.067 36.2102 107.627 35.9413 106.916 35.9413C106.402 35.9413 106.063 36.0729 105.798 36.3646C105.555 36.6334 105.465 36.9595 105.465 37.5428V38.5381C105.465 39.0757 105.544 39.3903 105.742 39.6477C105.995 39.9851 106.363 40.1396 106.921 40.1396C107.435 40.1396 107.774 40.0138 108.039 39.7163C108.282 39.4532 108.372 39.1215 108.372 38.5381V37.5428C108.372 37.377 108.367 37.274 108.338 37.1138C108.558 36.9823 108.637 36.9366 108.745 36.8451C108.959 36.6677 109.078 36.4275 109.078 36.1758C109.078 36.0843 109.067 36.0328 109.038 35.9356H108.53ZM107.768 38.4809C107.768 39.2988 107.514 39.642 106.921 39.642C106.323 39.642 106.069 39.2988 106.069 38.4809V37.6C106.069 36.7878 106.323 36.4447 106.921 36.4447C107.514 36.4447 107.768 36.7878 107.768 37.6V38.4809ZM106.577 41.2263H107.136V40.5743H106.577V41.2263ZM110.004 38.5495H110.726C111.212 38.5495 111.5 38.4694 111.714 38.275C111.957 38.0519 112.064 37.7373 112.064 37.2683C112.064 36.8336 111.974 36.5476 111.765 36.3246C111.545 36.0901 111.257 35.9985 110.726 35.9985H109.4V40.0824H110.004V38.5495ZM109.992 38.0519V36.4904H110.726C111.24 36.4904 111.466 36.725 111.466 37.274C111.466 37.8117 111.24 38.0519 110.726 38.0519H109.992Z" fill="#525252" fill-opacity="0.6"/>
</svg>
