<svg width="16" height="22" viewBox="0 0 16 22" fill="none" xmlns="http://www.w3.org/2000/svg">
<path fill-rule="evenodd" clip-rule="evenodd" d="M0 8.31111C0 3.10884 4.06776 0 8 0C11.9322 0 16 3.10884 16 8.31111C16 13.8282 8.64612 21.5316 8.33271 21.8568C8.24471 21.9487 8.12471 22 8 22C7.87529 22 7.75529 21.9487 7.66729 21.8568C7.35388 21.5316 0 13.8282 0 8.31111ZM5.17578 8.31126C5.17578 9.929 6.44213 11.2446 7.99931 11.2446C9.55649 11.2446 10.8228 9.929 10.8228 8.31126C10.8228 6.69353 9.55649 5.37793 7.99931 5.37793C6.44213 5.37793 5.17578 6.69353 5.17578 8.31126Z" fill="#29903B"/>
</svg>
