<svg width="24" height="24" viewBox="0 0 24 24" fill="none" xmlns="http://www.w3.org/2000/svg">
<path fill-rule="evenodd" clip-rule="evenodd" d="M19.4401 1.18974C19.7662 1.3181 20.062 1.50772 20.3098 1.74732C20.5615 1.98578 20.7612 2.26955 20.8973 2.58218C21.0333 2.89482 21.103 3.23011 21.1024 3.56865L21.102 20.4914C21.102 20.8287 21.0324 21.1627 20.8972 21.4743C20.762 21.7859 20.5638 22.0691 20.3139 22.3076C20.064 22.5461 19.7674 22.7353 19.4409 22.8644C19.1145 22.9935 18.7646 23.0599 18.4112 23.0599H5.69084C4.97719 23.0599 4.29276 22.7893 3.78813 22.3076C3.2835 21.8259 3 21.1726 3 20.4914L3.00031 8.00521H6.86534C7.579 8.00521 8.26343 7.73459 8.76806 7.2529C9.27269 6.77121 9.55619 6.11789 9.55619 5.43667V1.00011H9.71274H18.4115C18.7642 0.996895 19.114 1.06138 19.4401 1.18974ZM8.82232 15.4773H12.7363C12.9309 15.4773 13.1176 15.4035 13.2552 15.2721C13.3928 15.1408 13.4701 14.9626 13.4701 14.7768C13.4701 14.591 13.3928 14.4128 13.2552 14.2815C13.1176 14.1501 12.9309 14.0763 12.7363 14.0763H8.82232C8.62769 14.0763 8.44102 14.1501 8.3034 14.2815C8.16577 14.4128 8.08845 14.591 8.08845 14.7768C8.08845 14.9626 8.16577 15.1408 8.3034 15.2721C8.44102 15.4035 8.62769 15.4773 8.82232 15.4773ZM8.82232 11.7413H16.6502C16.8449 11.7413 17.0315 11.6675 17.1692 11.5361C17.3068 11.4047 17.3841 11.2265 17.3841 11.0407C17.3841 10.855 17.3068 10.6768 17.1692 10.5454C17.0315 10.414 16.8449 10.3402 16.6502 10.3402H8.82232C8.62769 10.3402 8.44102 10.414 8.3034 10.5454C8.16577 10.6768 8.08845 10.855 8.08845 11.0407C8.08845 11.2265 8.16577 11.4047 8.3034 11.5361C8.44102 11.6675 8.62769 11.7413 8.82232 11.7413ZM7.73001 6.26223C7.50063 6.48118 7.18953 6.60419 6.86514 6.60419H3.44043C3.50657 6.50398 3.57844 6.40732 3.6557 6.31465L7.68707 1.88743C7.80605 1.75201 7.94062 1.62982 8.08825 1.52316V5.43667C8.08825 5.74632 7.95939 6.04328 7.73001 6.26223Z" fill="#29903B"/>
</svg>
