<svg width="16" height="17" viewBox="0 0 16 17" fill="none" xmlns="http://www.w3.org/2000/svg">
<path fill-rule="evenodd" clip-rule="evenodd" d="M7.99967 3.2026C5.05301 3.2026 2.66634 5.58926 2.66634 8.53593C2.66634 11.4826 5.05301 13.8693 7.99967 13.8693C10.9463 13.8693 13.333 11.4826 13.333 8.53593C13.333 5.58926 10.9463 3.2026 7.99967 3.2026ZM1.33301 8.53593C1.33301 4.85593 4.31967 1.86926 7.99967 1.86926C11.6797 1.86926 14.6663 4.85593 14.6663 8.53593C14.6663 12.2159 11.6797 15.2026 7.99967 15.2026C4.31967 15.2026 1.33301 12.2159 1.33301 8.53593ZM7.93967 5.60926C8.30634 5.60926 8.60634 5.90926 8.60634 6.27593V8.55593L9.42634 9.02926C9.74634 9.21593 9.85301 9.6226 9.67301 9.9426C9.48634 10.2626 9.07967 10.3693 8.75968 10.1893L7.27301 9.32926V6.27593C7.27301 5.90926 7.57301 5.60926 7.93967 5.60926Z" fill="#626F82"/>
</svg>
