<svg width="42" height="33" viewBox="0 0 42 33" fill="none" xmlns="http://www.w3.org/2000/svg">
<mask id="path-1-outside-1_260_16794" maskUnits="userSpaceOnUse" x="0" y="-0.144531" width="42" height="34" fill="black">
<rect fill="white" y="-0.144531" width="42" height="34"/>
<path fill-rule="evenodd" clip-rule="evenodd" d="M2.33203 2.85712V26.2109C1.59681 26.2125 1.00078 26.8096 1 27.5456V29.4011C1.00234 31.2432 2.49372 32.7351 4.33353 32.7374H37.6657H37.6665C39.5071 32.7351 40.9977 31.2424 41 29.4011V27.5456C40.9992 26.8091 40.4024 26.2117 39.6664 26.2109H39.6649V2.85712C39.6633 1.7523 38.7688 0.857033 37.6649 0.855469H4.33199C3.22733 0.857033 2.33281 1.7523 2.33203 2.85712ZM38.3306 26.2092H3.6656V2.85712C3.6656 2.48885 3.96403 2.19016 4.33199 2.19016H37.6642C38.0321 2.19016 38.3306 2.48885 38.3306 2.85712V26.2092ZM2.33357 27.5456V29.4011C2.33513 30.5059 3.22964 31.4012 4.33353 31.4027H37.6665C38.7704 31.4012 39.6649 30.5059 39.6664 29.4011V27.5456H28.0794L27.2989 29.1079C26.9622 29.7881 26.2685 30.2166 25.5099 30.2142H16.4921C15.7335 30.2166 15.0398 29.7881 14.7031 29.1079L13.9226 27.5456H2.33357ZM15.4132 27.5456L15.8952 28.5113C16.0077 28.738 16.239 28.8811 16.4913 28.8803H25.5091C25.7615 28.8803 25.9927 28.738 26.1052 28.5113L26.5872 27.5456H15.4132ZM17.3335 23.8742C16.0453 23.8742 15 22.8288 15 21.5386C15 21.0485 15.1508 20.5936 15.4085 20.218C15.1621 20.0591 14.9498 19.8455 14.7905 19.5879C14.4257 18.9976 14.3929 18.261 14.703 17.6402L14.9811 17.0835L14.511 13.3195C14.5064 13.2947 14.5032 13.2693 14.5015 13.2436L14.0121 9.32543C14.0066 9.29675 14.0029 9.26742 14.0011 9.23756L13.9648 8.9463C13.8382 7.94547 12.9882 7.19407 11.9804 7.19329H10.3344C9.9664 7.19329 9.66797 6.8946 9.66797 6.52633C9.66797 6.15806 9.9664 5.85937 10.3344 5.85937H11.9804C13.5755 5.8616 14.9327 6.98963 15.2468 8.53125H18.8229C18.9371 8.50015 19.0581 8.49985 19.1735 8.53125H29.4786C29.8888 8.53125 30.277 8.72047 30.5294 9.04417C30.7817 9.36788 30.8716 9.7901 30.7723 10.1889L29.1052 16.8616C28.9575 17.4558 28.4239 17.8733 27.8115 17.8718L27.8122 17.871H16.0797L15.896 18.2383C15.7928 18.4455 15.8038 18.6911 15.9249 18.8873C16.0468 19.0844 16.2608 19.204 16.4921 19.204H17.2696C17.2909 19.2034 17.3122 19.2031 17.3335 19.2031C17.3549 19.2031 17.3762 19.2034 17.3975 19.204H25.9376C25.9588 19.2034 25.9801 19.2031 26.0015 19.2031C26.0229 19.2031 26.0442 19.2034 26.0654 19.204H28.334C28.702 19.204 29.0004 19.5027 29.0004 19.8709C29.0004 20.2392 28.702 20.5379 28.334 20.5379V20.5371H28.1103C28.2544 20.8406 28.3351 21.1802 28.3351 21.5386C28.3335 22.828 27.2898 23.8726 26.0015 23.8742C24.7133 23.8742 23.668 22.8288 23.668 21.5386C23.668 21.1802 23.7486 20.8406 23.8927 20.5371H19.4423C19.5865 20.8406 19.6671 21.1802 19.6671 21.5386C19.6655 22.828 18.6218 23.8726 17.3335 23.8742ZM15.9231 13.8652L16.2568 16.5371H18.9428L18.7204 13.8652H15.9231ZM18.6094 12.5312H15.7565L15.4235 9.86516H18.3875L18.6094 12.5312ZM19.9467 12.5312L19.7248 9.86516H24.8789L24.4352 12.5312H19.9467ZM20.0578 13.8652H24.2132L23.769 16.534H20.28L20.0578 13.8652ZM25.5648 13.8652L25.1198 16.5371H27.8122L28.4799 13.8652H25.5648ZM28.8132 12.5312L29.4794 9.86516H26.231L25.787 12.5312H28.8132ZM17.3335 20.5378C16.7812 20.5378 16.3336 20.9858 16.3336 21.5386C16.3336 22.0914 16.7812 22.5395 17.3335 22.5395C17.8859 22.5395 18.3335 22.0914 18.3335 21.5386C18.3335 20.9858 17.8859 20.5386 17.3335 20.5378ZM25.0015 21.5386C25.0015 20.9858 25.4492 20.5378 26.0015 20.5378C26.5538 20.5386 27.0015 20.9858 27.0015 21.5386C27.0015 22.0914 26.5538 22.5395 26.0015 22.5395C25.4492 22.5395 25.0015 22.0914 25.0015 21.5386Z"/>
</mask>
<path fill-rule="evenodd" clip-rule="evenodd" d="M2.33203 2.85712V26.2109C1.59681 26.2125 1.00078 26.8096 1 27.5456V29.4011C1.00234 31.2432 2.49372 32.7351 4.33353 32.7374H37.6657H37.6665C39.5071 32.7351 40.9977 31.2424 41 29.4011V27.5456C40.9992 26.8091 40.4024 26.2117 39.6664 26.2109H39.6649V2.85712C39.6633 1.7523 38.7688 0.857033 37.6649 0.855469H4.33199C3.22733 0.857033 2.33281 1.7523 2.33203 2.85712ZM38.3306 26.2092H3.6656V2.85712C3.6656 2.48885 3.96403 2.19016 4.33199 2.19016H37.6642C38.0321 2.19016 38.3306 2.48885 38.3306 2.85712V26.2092ZM2.33357 27.5456V29.4011C2.33513 30.5059 3.22964 31.4012 4.33353 31.4027H37.6665C38.7704 31.4012 39.6649 30.5059 39.6664 29.4011V27.5456H28.0794L27.2989 29.1079C26.9622 29.7881 26.2685 30.2166 25.5099 30.2142H16.4921C15.7335 30.2166 15.0398 29.7881 14.7031 29.1079L13.9226 27.5456H2.33357ZM15.4132 27.5456L15.8952 28.5113C16.0077 28.738 16.239 28.8811 16.4913 28.8803H25.5091C25.7615 28.8803 25.9927 28.738 26.1052 28.5113L26.5872 27.5456H15.4132ZM17.3335 23.8742C16.0453 23.8742 15 22.8288 15 21.5386C15 21.0485 15.1508 20.5936 15.4085 20.218C15.1621 20.0591 14.9498 19.8455 14.7905 19.5879C14.4257 18.9976 14.3929 18.261 14.703 17.6402L14.9811 17.0835L14.511 13.3195C14.5064 13.2947 14.5032 13.2693 14.5015 13.2436L14.0121 9.32543C14.0066 9.29675 14.0029 9.26742 14.0011 9.23756L13.9648 8.9463C13.8382 7.94547 12.9882 7.19407 11.9804 7.19329H10.3344C9.9664 7.19329 9.66797 6.8946 9.66797 6.52633C9.66797 6.15806 9.9664 5.85937 10.3344 5.85937H11.9804C13.5755 5.8616 14.9327 6.98963 15.2468 8.53125H18.8229C18.9371 8.50015 19.0581 8.49985 19.1735 8.53125H29.4786C29.8888 8.53125 30.277 8.72047 30.5294 9.04417C30.7817 9.36788 30.8716 9.7901 30.7723 10.1889L29.1052 16.8616C28.9575 17.4558 28.4239 17.8733 27.8115 17.8718L27.8122 17.871H16.0797L15.896 18.2383C15.7928 18.4455 15.8038 18.6911 15.9249 18.8873C16.0468 19.0844 16.2608 19.204 16.4921 19.204H17.2696C17.2909 19.2034 17.3122 19.2031 17.3335 19.2031C17.3549 19.2031 17.3762 19.2034 17.3975 19.204H25.9376C25.9588 19.2034 25.9801 19.2031 26.0015 19.2031C26.0229 19.2031 26.0442 19.2034 26.0654 19.204H28.334C28.702 19.204 29.0004 19.5027 29.0004 19.8709C29.0004 20.2392 28.702 20.5379 28.334 20.5379V20.5371H28.1103C28.2544 20.8406 28.3351 21.1802 28.3351 21.5386C28.3335 22.828 27.2898 23.8726 26.0015 23.8742C24.7133 23.8742 23.668 22.8288 23.668 21.5386C23.668 21.1802 23.7486 20.8406 23.8927 20.5371H19.4423C19.5865 20.8406 19.6671 21.1802 19.6671 21.5386C19.6655 22.828 18.6218 23.8726 17.3335 23.8742ZM15.9231 13.8652L16.2568 16.5371H18.9428L18.7204 13.8652H15.9231ZM18.6094 12.5312H15.7565L15.4235 9.86516H18.3875L18.6094 12.5312ZM19.9467 12.5312L19.7248 9.86516H24.8789L24.4352 12.5312H19.9467ZM20.0578 13.8652H24.2132L23.769 16.534H20.28L20.0578 13.8652ZM25.5648 13.8652L25.1198 16.5371H27.8122L28.4799 13.8652H25.5648ZM28.8132 12.5312L29.4794 9.86516H26.231L25.787 12.5312H28.8132ZM17.3335 20.5378C16.7812 20.5378 16.3336 20.9858 16.3336 21.5386C16.3336 22.0914 16.7812 22.5395 17.3335 22.5395C17.8859 22.5395 18.3335 22.0914 18.3335 21.5386C18.3335 20.9858 17.8859 20.5386 17.3335 20.5378ZM25.0015 21.5386C25.0015 20.9858 25.4492 20.5378 26.0015 20.5378C26.5538 20.5386 27.0015 20.9858 27.0015 21.5386C27.0015 22.0914 26.5538 22.5395 26.0015 22.5395C25.4492 22.5395 25.0015 22.0914 25.0015 21.5386Z" fill="#29903B"/>
<path d="M2.33203 26.2109L2.33247 26.4109L2.53203 26.4105V26.2109H2.33203ZM2.33203 2.85712L2.13203 2.85698V2.85712H2.33203ZM1 27.5456L0.8 27.5454V27.5456H1ZM1 29.4011H0.8L0.8 29.4013L1 29.4011ZM4.33353 32.7374L4.33327 32.9374H4.33353V32.7374ZM37.6665 32.7374V32.9374H37.6667L37.6665 32.7374ZM41 29.4011L41.2 29.4013V29.4011H41ZM41 27.5456H41.2V27.5454L41 27.5456ZM39.6664 26.2109L39.6666 26.0109H39.6664V26.2109ZM39.6649 26.2109H39.4649V26.4109H39.6649V26.2109ZM39.6649 2.85712H39.8649V2.85684L39.6649 2.85712ZM37.6649 0.855469L37.6652 0.655469H37.6649V0.855469ZM4.33199 0.855469V0.655469L4.33171 0.655469L4.33199 0.855469ZM3.6656 26.2092H3.4656V26.4092H3.6656V26.2092ZM38.3306 26.2092V26.4092H38.5306V26.2092H38.3306ZM2.33357 29.4011H2.13357L2.13357 29.4014L2.33357 29.4011ZM2.33357 27.5456V27.3456H2.13357V27.5456H2.33357ZM4.33353 31.4027L4.33325 31.6027H4.33353V31.4027ZM37.6665 31.4027V31.6027L37.6668 31.6027L37.6665 31.4027ZM39.6664 29.4011L39.8664 29.4014V29.4011H39.6664ZM39.6664 27.5456H39.8664V27.3456H39.6664V27.5456ZM28.0794 27.5456V27.3456H27.9557L27.9005 27.4562L28.0794 27.5456ZM27.2989 29.1079L27.12 29.0185L27.1197 29.0191L27.2989 29.1079ZM25.5099 30.2142L25.5105 30.0142H25.5099V30.2142ZM16.4921 30.2142V30.0142L16.4915 30.0142L16.4921 30.2142ZM14.7031 29.1079L14.8823 29.0191L14.882 29.0185L14.7031 29.1079ZM13.9226 27.5456L14.1015 27.4562L14.0463 27.3456H13.9226V27.5456ZM15.8952 28.5113L16.0744 28.4224L16.0742 28.4219L15.8952 28.5113ZM15.4132 27.5456V27.3456H15.0899L15.2343 27.635L15.4132 27.5456ZM16.4913 28.8803V28.6803L16.4907 28.6803L16.4913 28.8803ZM26.1052 28.5113L25.9263 28.4219L25.926 28.4224L26.1052 28.5113ZM26.5872 27.5456L26.7662 27.635L26.9106 27.3456H26.5872V27.5456ZM17.3335 23.8742V24.0742H17.3338L17.3335 23.8742ZM15.4085 20.218L15.5734 20.3311L15.6898 20.1614L15.5169 20.0499L15.4085 20.218ZM14.7905 19.5879L14.6204 19.693H14.6204L14.7905 19.5879ZM14.703 17.6402L14.8819 17.7296L14.703 17.6402ZM14.9811 17.0835L15.1601 17.1729L15.1871 17.1187L15.1796 17.0587L14.9811 17.0835ZM14.511 13.3195L14.7098 13.2947L14.7077 13.2834L14.511 13.3195ZM14.5015 13.2436L14.7014 13.2302L14.7 13.2188L14.5015 13.2436ZM14.0121 9.32543L14.211 9.30059L14.2085 9.28751L14.0121 9.32543ZM14.0011 9.23756L14.2012 9.22592L14.1996 9.21278L14.0011 9.23756ZM13.9648 8.9463L14.1632 8.92151L14.1632 8.92121L13.9648 8.9463ZM11.9804 7.19329L11.9806 6.99329H11.9804V7.19329ZM11.9804 5.85937L11.9807 5.65937H11.9804V5.85937ZM15.2468 8.53125L15.0509 8.57118L15.0835 8.73125H15.2468V8.53125ZM18.8229 8.53125V8.73125H18.8497L18.8755 8.72421L18.8229 8.53125ZM19.1735 8.53125L19.1209 8.72423L19.1467 8.73125H19.1735V8.53125ZM30.5294 9.04417L30.3716 9.16713L30.5294 9.04417ZM30.7723 10.1889L30.9664 10.2373L30.9664 10.2372L30.7723 10.1889ZM29.1052 16.8616L28.9111 16.8131L28.9111 16.8133L29.1052 16.8616ZM27.8115 17.8718L27.6702 17.7302L27.329 18.0705L27.8109 18.0718L27.8115 17.8718ZM27.8122 17.871L27.9535 18.0126L28.2959 17.671H27.8122V17.871ZM16.0797 17.871V17.671H15.9561L15.9008 17.7815L16.0797 17.871ZM15.896 18.2383L15.7171 18.1489L15.7169 18.1492L15.896 18.2383ZM15.9249 18.8873L15.7547 18.9923L15.7548 18.9925L15.9249 18.8873ZM17.2696 19.204V19.4041L17.275 19.4039L17.2696 19.204ZM17.3975 19.204L17.3921 19.404H17.3975V19.204ZM25.9376 19.204V19.4041L25.943 19.4039L25.9376 19.204ZM26.0654 19.204L26.06 19.404H26.0654V19.204ZM28.334 20.5379H28.134V20.7379H28.334V20.5379ZM28.334 20.5371H28.534V20.3371H28.334V20.5371ZM28.1103 20.5371V20.3371H27.7939L27.9296 20.6229L28.1103 20.5371ZM28.3351 21.5386L28.5351 21.5389V21.5386H28.3351ZM26.0015 23.8742V24.0742H26.0018L26.0015 23.8742ZM23.8927 20.5371L24.0734 20.6229L24.2091 20.3371H23.8927V20.5371ZM19.4423 20.5371V20.3371H19.126L19.2617 20.6229L19.4423 20.5371ZM19.6671 21.5386L19.8671 21.5389V21.5386H19.6671ZM15.9231 13.8652V13.6652H15.6965L15.7246 13.89L15.9231 13.8652ZM16.2568 16.5371L16.0584 16.5619L16.0802 16.7371H16.2568V16.5371ZM18.9428 16.5371V16.7371H19.1601L19.1421 16.5205L18.9428 16.5371ZM18.7204 13.8652L18.9197 13.8486L18.9045 13.6652H18.7204V13.8652ZM15.7565 12.5312L15.558 12.556L15.5799 12.7312H15.7565V12.5312ZM18.6094 12.5312V12.7312H18.8267L18.8087 12.5147L18.6094 12.5312ZM15.4235 9.86516V9.66516H15.1969L15.225 9.88995L15.4235 9.86516ZM18.3875 9.86516L18.5868 9.84857L18.5715 9.66516H18.3875V9.86516ZM19.9467 12.5312L19.7474 12.5478L19.7627 12.7312H19.9467V12.5312ZM19.7248 9.86516V9.66516H19.5074L19.5255 9.88176L19.7248 9.86516ZM24.8789 9.86516L25.0762 9.898L25.115 9.66516H24.8789V9.86516ZM24.4352 12.5312V12.7312H24.6047L24.6325 12.5641L24.4352 12.5312ZM24.2132 13.8652L24.4105 13.898L24.4492 13.6652H24.2132V13.8652ZM20.0578 13.8652V13.6652H19.8405L19.8585 13.8818L20.0578 13.8652ZM23.769 16.534V16.734H23.9384L23.9663 16.5668L23.769 16.534ZM20.28 16.534L20.0807 16.5506L20.0959 16.734H20.28V16.534ZM25.5648 13.8652V13.6652H25.3954L25.3675 13.8323L25.5648 13.8652ZM25.1198 16.5371L24.9225 16.5042L24.8837 16.7371H25.1198V16.5371ZM27.8122 16.5371V16.7371H27.9684L28.0063 16.5856L27.8122 16.5371ZM28.4799 13.8652L28.6739 13.9136L28.736 13.6652H28.4799V13.8652ZM28.8132 12.5312V12.7312H28.9694L29.0072 12.5797L28.8132 12.5312ZM29.4794 9.86516L29.6734 9.91365L29.7355 9.66516H29.4794V9.86516ZM26.231 9.86516V9.66516H26.0616L26.0337 9.8323L26.231 9.86516ZM25.787 12.5312L25.5897 12.4984L25.5509 12.7312H25.787V12.5312ZM17.3335 20.5378L17.3338 20.3378H17.3335V20.5378ZM26.0015 20.5378L26.0018 20.3378H26.0015V20.5378ZM2.53203 26.2109V2.85712H2.13203V26.2109H2.53203ZM1.2 27.5458C1.20066 26.9199 1.7076 26.4123 2.33247 26.4109L2.33159 26.0109C1.48603 26.0128 0.800898 26.6993 0.8 27.5454L1.2 27.5458ZM1.2 29.4011V27.5456H0.8V29.4011H1.2ZM4.33378 32.5374C2.60436 32.5352 1.2022 31.1328 1.2 29.4008L0.8 29.4013C0.802484 31.3536 2.38308 32.9349 4.33327 32.9374L4.33378 32.5374ZM37.6657 32.5374H4.33353V32.9374H37.6657V32.5374ZM37.6665 32.5374H37.6657V32.9374H37.6665V32.5374ZM40.8 29.4008C40.7978 31.1321 39.3964 32.5352 37.6662 32.5374L37.6667 32.9374C39.6178 32.9349 41.1975 31.3528 41.2 29.4013L40.8 29.4008ZM40.8 27.5456V29.4011H41.2V27.5456H40.8ZM39.6662 26.4109C40.2917 26.4116 40.7993 26.9194 40.8 27.5458L41.2 27.5454C41.1991 26.6987 40.513 26.0118 39.6666 26.0109L39.6662 26.4109ZM39.6649 26.4109H39.6664V26.0109H39.6649V26.4109ZM39.4649 2.85712V26.2109H39.8649V2.85712H39.4649ZM37.6647 1.05547C38.6581 1.05688 39.4635 1.86266 39.4649 2.8574L39.8649 2.85684C39.8632 1.64194 38.8795 0.657189 37.6652 0.655469L37.6647 1.05547ZM4.33199 1.05547H37.6649V0.655469H4.33199V1.05547ZM2.53203 2.85726C2.53273 1.86271 3.33793 1.05688 4.33228 1.05547L4.33171 0.655469C3.11673 0.657189 2.13289 1.6419 2.13203 2.85698L2.53203 2.85726ZM3.6656 26.4092H38.3306V26.0092H3.6656V26.4092ZM3.4656 2.85712V26.2092H3.8656V2.85712H3.4656ZM4.33199 1.99016C3.85341 1.99016 3.4656 2.37855 3.4656 2.85712H3.8656C3.8656 2.59915 4.07465 2.39016 4.33199 2.39016V1.99016ZM37.6642 1.99016H4.33199V2.39016H37.6642V1.99016ZM38.5306 2.85712C38.5306 2.37855 38.1427 1.99016 37.6642 1.99016V2.39016C37.9215 2.39016 38.1306 2.59915 38.1306 2.85712H38.5306ZM38.5306 26.2092V2.85712H38.1306V26.2092H38.5306ZM2.53357 29.4011V27.5456H2.13357V29.4011H2.53357ZM4.33381 31.2027C3.34032 31.2013 2.53497 30.3955 2.53357 29.4008L2.13357 29.4014C2.13529 30.6162 3.11897 31.601 4.33325 31.6027L4.33381 31.2027ZM37.6665 31.2027H4.33353V31.6027H37.6665V31.2027ZM39.4664 29.4008C39.465 30.3955 38.6597 31.2013 37.6662 31.2027L37.6668 31.6027C38.881 31.601 39.8647 30.6162 39.8664 29.4014L39.4664 29.4008ZM39.4664 27.5456V29.4011H39.8664V27.5456H39.4664ZM28.0794 27.7456H39.6664V27.3456H28.0794V27.7456ZM27.4778 29.1972L28.2583 27.635L27.9005 27.4562L27.12 29.0185L27.4778 29.1972ZM25.5093 30.4142C26.344 30.4168 27.1076 29.9453 27.4782 29.1966L27.1197 29.0191C26.8169 29.6309 26.1929 30.0164 25.5105 30.0142L25.5093 30.4142ZM16.4921 30.4142H25.5099V30.0142H16.4921V30.4142ZM14.5238 29.1966C14.8944 29.9453 15.658 30.4168 16.4927 30.4142L16.4915 30.0142C15.8091 30.0164 15.1852 29.6309 14.8823 29.0191L14.5238 29.1966ZM13.7437 27.635L14.5242 29.1972L14.882 29.0185L14.1015 27.4562L13.7437 27.635ZM2.33357 27.7456H13.9226V27.3456H2.33357V27.7456ZM16.0742 28.4219L15.5922 27.4563L15.2343 27.635L15.7163 28.6006L16.0742 28.4219ZM16.4907 28.6803C16.3148 28.6809 16.1531 28.5811 16.0744 28.4224L15.7161 28.6002C15.8623 28.895 16.1632 29.0813 16.492 29.0803L16.4907 28.6803ZM25.5091 28.6803H16.4913V29.0803H25.5091V28.6803ZM25.926 28.4224C25.8475 28.5806 25.686 28.6803 25.5091 28.6803V29.0803C25.837 29.0803 26.1379 28.8954 26.2844 28.6002L25.926 28.4224ZM26.4083 27.4563L25.9263 28.4219L26.2842 28.6006L26.7662 27.635L26.4083 27.4563ZM15.4132 27.7456H26.5872V27.3456H15.4132V27.7456ZM14.8 21.5386C14.8 22.9391 15.9347 24.0742 17.3335 24.0742V23.6742C16.1559 23.6742 15.2 22.7184 15.2 21.5386H14.8ZM15.2436 20.1048C14.9637 20.5127 14.8 21.0068 14.8 21.5386H15.2C15.2 21.0901 15.3378 20.6745 15.5734 20.3311L15.2436 20.1048ZM14.6204 19.693C14.7955 19.9764 15.0291 20.2113 15.3001 20.3861L15.5169 20.0499C15.2951 19.9069 15.104 19.7147 14.9607 19.4827L14.6204 19.693ZM14.5241 17.5508C14.183 18.2335 14.2191 19.0437 14.6204 19.693L14.9607 19.4827C14.6323 18.9514 14.6027 18.2885 14.8819 17.7296L14.5241 17.5508ZM14.8022 16.9941L14.5241 17.5508L14.8819 17.7296L15.1601 17.1729L14.8022 16.9941ZM14.3125 13.3443L14.7827 17.1083L15.1796 17.0587L14.7095 13.2947L14.3125 13.3443ZM14.7077 13.2834C14.7045 13.266 14.7023 13.2483 14.7011 13.2302L14.302 13.257C14.3042 13.2904 14.3084 13.3233 14.3143 13.3557L14.7077 13.2834ZM13.8137 9.35022L14.3031 13.2684L14.7 13.2188L14.2106 9.30064L13.8137 9.35022ZM13.8015 9.24918C13.8037 9.28791 13.8085 9.32603 13.8157 9.36335L14.2085 9.28751C14.2046 9.26748 14.202 9.24693 14.2008 9.22594L13.8015 9.24918ZM13.7663 8.97109L13.8027 9.26235L14.1996 9.21278L14.1632 8.92151L13.7663 8.97109ZM11.9803 7.39329C12.8871 7.39399 13.6524 8.07019 13.7663 8.97139L14.1632 8.92121C14.024 7.82076 13.0893 6.99415 11.9806 6.99329L11.9803 7.39329ZM10.3344 7.39329H11.9804V6.99329H10.3344V7.39329ZM9.46797 6.52633C9.46797 7.0049 9.85578 7.39329 10.3344 7.39329V6.99329C10.077 6.99329 9.86797 6.78431 9.86797 6.52633H9.46797ZM10.3344 5.65937C9.85578 5.65937 9.46797 6.04776 9.46797 6.52633H9.86797C9.86797 6.26836 10.077 6.05937 10.3344 6.05937V5.65937ZM11.9804 5.65937H10.3344V6.05937H11.9804V5.65937ZM15.4428 8.49132C15.1099 6.85743 13.6716 5.66173 11.9807 5.65937L11.9801 6.05937C13.4795 6.06147 14.7555 7.12182 15.0509 8.57118L15.4428 8.49132ZM18.8229 8.33125H15.2468V8.73125H18.8229V8.33125ZM19.226 8.33827C19.0761 8.29747 18.9188 8.29784 18.7704 8.33829L18.8755 8.72421C18.9554 8.70245 19.0402 8.70223 19.1209 8.72423L19.226 8.33827ZM29.4786 8.33125H19.1735V8.73125H29.4786V8.33125ZM30.6871 8.92121C30.3968 8.5488 29.9503 8.33125 29.4786 8.33125V8.73125C29.8272 8.73125 30.1573 8.89213 30.3716 9.16713L30.6871 8.92121ZM30.9664 10.2372C31.0805 9.77871 30.9772 9.29335 30.6871 8.92121L30.3716 9.16713C30.5862 9.4424 30.6626 9.80149 30.5783 10.1406L30.9664 10.2372ZM29.2992 16.91L30.9664 10.2373L30.5783 10.1404L28.9111 16.8131L29.2992 16.91ZM27.8109 18.0718C28.5158 18.0736 29.1295 17.5931 29.2993 16.9098L28.9111 16.8133C28.7856 17.3185 28.3321 17.6731 27.812 17.6718L27.8109 18.0718ZM27.671 17.7294L27.6702 17.7302L27.9527 18.0134L27.9535 18.0126L27.671 17.7294ZM16.0797 18.071H27.8122V17.671H16.0797V18.071ZM16.0749 18.3278L16.2586 17.9605L15.9008 17.7815L15.7171 18.1489L16.0749 18.3278ZM16.0951 18.7823C16.0105 18.6451 16.0026 18.473 16.075 18.3275L15.7169 18.1492C15.5831 18.418 15.5971 18.737 15.7547 18.9923L16.0951 18.7823ZM16.4921 19.004C16.3304 19.004 16.1805 18.9205 16.095 18.7821L15.7548 18.9925C15.913 19.2483 16.1912 19.404 16.4921 19.404V19.004ZM17.2696 19.004H16.4921V19.404H17.2696V19.004ZM17.3335 19.0031C17.3104 19.0031 17.2873 19.0034 17.2643 19.0041L17.275 19.4039C17.2945 19.4034 17.314 19.4031 17.3335 19.4031V19.0031ZM17.4028 19.0041C17.3798 19.0034 17.3567 19.0031 17.3335 19.0031V19.4031C17.3531 19.4031 17.3726 19.4034 17.3921 19.4039L17.4028 19.0041ZM25.9376 19.004H17.3975V19.404H25.9376V19.004ZM26.0015 19.0031C25.9783 19.0031 25.9553 19.0034 25.9322 19.0041L25.943 19.4039C25.9624 19.4034 25.9819 19.4031 26.0015 19.4031V19.0031ZM26.0708 19.0041C26.0478 19.0034 26.0247 19.0031 26.0015 19.0031V19.4031C26.0211 19.4031 26.0406 19.4034 26.0601 19.4039L26.0708 19.0041ZM28.334 19.004H26.0654V19.404H28.334V19.004ZM29.2004 19.8709C29.2004 19.3924 28.8126 19.004 28.334 19.004V19.404C28.5914 19.404 28.8004 19.613 28.8004 19.8709H29.2004ZM28.334 20.7379C28.8126 20.7379 29.2004 20.3495 29.2004 19.8709H28.8004C28.8004 20.1289 28.5914 20.3379 28.334 20.3379V20.7379ZM28.134 20.5371V20.5379H28.534V20.5371H28.134ZM28.1103 20.7371H28.334V20.3371H28.1103V20.7371ZM28.5351 21.5386C28.5351 21.1499 28.4476 20.7811 28.291 20.4513L27.9296 20.6229C28.0613 20.9002 28.1351 21.2105 28.1351 21.5386H28.5351ZM26.0018 24.0742C27.4004 24.0725 28.5334 22.9383 28.5351 21.5389L28.1351 21.5384C28.1336 22.7176 27.1791 23.6727 26.0013 23.6742L26.0018 24.0742ZM23.468 21.5386C23.468 22.9391 24.6027 24.0742 26.0015 24.0742V23.6742C24.8238 23.6742 23.868 22.7184 23.868 21.5386H23.468ZM23.7121 20.4513C23.5555 20.7811 23.468 21.1499 23.468 21.5386H23.868C23.868 21.2105 23.9417 20.9002 24.0734 20.6229L23.7121 20.4513ZM19.4423 20.7371H23.8927V20.3371H19.4423V20.7371ZM19.8671 21.5386C19.8671 21.1499 19.7796 20.7811 19.623 20.4513L19.2617 20.6229C19.3933 20.9002 19.4671 21.2105 19.4671 21.5386H19.8671ZM17.3338 24.0742C18.7325 24.0725 19.8654 22.9383 19.8671 21.5389L19.4671 21.5384C19.4657 22.7176 18.5111 23.6727 17.3333 23.6742L17.3338 24.0742ZM15.7246 13.89L16.0584 16.5619L16.4553 16.5123L16.1215 13.8404L15.7246 13.89ZM16.2568 16.7371H18.9428V16.3371H16.2568V16.7371ZM19.1421 16.5205L18.9197 13.8486L18.5211 13.8818L18.7435 16.5537L19.1421 16.5205ZM18.7204 13.6652H15.9231V14.0652H18.7204V13.6652ZM15.7565 12.7312H18.6094V12.3312H15.7565V12.7312ZM15.225 9.88995L15.558 12.556L15.9549 12.5065L15.6219 9.84037L15.225 9.88995ZM18.3875 9.66516H15.4235V10.0652H18.3875V9.66516ZM18.8087 12.5147L18.5868 9.84857L18.1882 9.88175L18.4101 12.5478L18.8087 12.5147ZM20.146 12.5147L19.9241 9.84857L19.5255 9.88176L19.7474 12.5478L20.146 12.5147ZM19.7248 10.0652H24.8789V9.66516H19.7248V10.0652ZM24.6816 9.83233L24.2379 12.4984L24.6325 12.5641L25.0762 9.898L24.6816 9.83233ZM19.9467 12.7312H24.4352V12.3312H19.9467V12.7312ZM24.2132 13.6652H20.0578V14.0652H24.2132V13.6652ZM24.0159 13.8323L23.5717 16.5012L23.9663 16.5668L24.4105 13.898L24.0159 13.8323ZM23.769 16.334H20.28V16.734H23.769V16.334ZM20.4793 16.5174L20.2571 13.8486L19.8585 13.8818L20.0807 16.5506L20.4793 16.5174ZM25.3675 13.8323L24.9225 16.5042L25.3171 16.5699L25.7621 13.898L25.3675 13.8323ZM25.1198 16.7371H27.8122V16.3371H25.1198V16.7371ZM28.0063 16.5856L28.6739 13.9136L28.2858 13.8167L27.6182 16.4886L28.0063 16.5856ZM28.4799 13.6652H25.5648V14.0652H28.4799V13.6652ZM29.0072 12.5797L29.6734 9.91365L29.2854 9.81668L28.6192 12.4828L29.0072 12.5797ZM29.4794 9.66516H26.231V10.0652H29.4794V9.66516ZM26.0337 9.8323L25.5897 12.4984L25.9843 12.5641L26.4283 9.89802L26.0337 9.8323ZM25.787 12.7312H28.8132V12.3312H25.787V12.7312ZM16.5336 21.5386C16.5336 21.0961 16.8918 20.7378 17.3335 20.7378V20.3378C16.6706 20.3378 16.1336 20.8755 16.1336 21.5386H16.5336ZM17.3335 22.3395C16.8918 22.3395 16.5336 21.9811 16.5336 21.5386H16.1336C16.1336 22.2017 16.6706 22.7395 17.3335 22.7395V22.3395ZM18.1335 21.5386C18.1335 21.9811 17.7753 22.3395 17.3335 22.3395V22.7395C17.9965 22.7395 18.5335 22.2017 18.5335 21.5386H18.1335ZM17.3333 20.7378C17.7755 20.7384 18.1335 21.0964 18.1335 21.5386H18.5335C18.5335 20.8753 17.9963 20.3388 17.3338 20.3378L17.3333 20.7378ZM26.0015 20.3378C25.3386 20.3378 24.8015 20.8755 24.8015 21.5386H25.2015C25.2015 21.0961 25.5598 20.7378 26.0015 20.7378V20.3378ZM27.2015 21.5386C27.2015 20.8753 26.6643 20.3388 26.0018 20.3378L26.0012 20.7378C26.4434 20.7384 26.8015 21.0964 26.8015 21.5386H27.2015ZM26.0015 22.7395C26.6645 22.7395 27.2015 22.2017 27.2015 21.5386H26.8015C26.8015 21.9811 26.4432 22.3395 26.0015 22.3395V22.7395ZM24.8015 21.5386C24.8015 22.2017 25.3386 22.7395 26.0015 22.7395V22.3395C25.5598 22.3395 25.2015 21.9811 25.2015 21.5386H24.8015Z" fill="#29903B" mask="url(#path-1-outside-1_260_16794)"/>
</svg>
