<svg width="45" height="45" viewBox="0 0 45 45" fill="none" xmlns="http://www.w3.org/2000/svg">
<path d="M22.5 41.8251C21.2167 41.8251 19.915 41.3301 18.9433 40.3584L15.8083 37.2601C15.0383 36.4901 13.975 36.0684 12.8934 36.0684H11.5C7.705 36.0684 4.625 33.0068 4.625 29.2484V9.2467C4.625 5.48837 7.705 2.42676 11.5 2.42676H33.5C37.295 2.42676 40.375 5.48837 40.375 9.2467V29.2484C40.375 33.0068 37.295 36.0684 33.5 36.0684H32.1066C31.025 36.0684 29.9617 36.5084 29.1917 37.2601L26.0567 40.3584C25.085 41.3301 23.7833 41.8251 22.5 41.8251ZM11.5 5.15841C9.22667 5.15841 7.375 6.99169 7.375 9.22835V29.2301C7.375 31.4851 9.22667 33.3 11.5 33.3H12.8934C14.7084 33.3 16.4683 34.0334 17.7516 35.2984L20.8867 38.3968C21.785 39.2767 23.2334 39.2767 24.1317 38.3968L27.2666 35.2984C28.55 34.0334 30.31 33.3 32.125 33.3H33.5C35.7733 33.3 37.625 31.4667 37.625 29.2301V9.22835C37.625 6.97335 35.7733 5.15841 33.5 5.15841H11.5Z" fill="white"/>
<path d="M22.5 19.8251C19.3833 19.8251 16.8533 17.2951 16.8533 14.1784C16.8533 11.0618 19.3833 8.53186 22.5 8.53186C25.6166 8.53186 28.1467 11.0618 28.1467 14.1784C28.1467 17.2951 25.6166 19.8251 22.5 19.8251ZM22.5 11.2819C20.905 11.2819 19.6033 12.5834 19.6033 14.1784C19.6033 15.7734 20.905 17.0751 22.5 17.0751C24.095 17.0751 25.3967 15.7734 25.3967 14.1784C25.3967 12.5834 24.095 11.2819 22.5 11.2819Z" fill="white"/>
<path d="M29.8334 30.2019C29.0817 30.2019 28.4584 29.5786 28.4584 28.8269C28.4584 26.2969 25.7817 24.2253 22.5001 24.2253C19.2184 24.2253 16.5417 26.2969 16.5417 28.8269C16.5417 29.5786 15.9184 30.2019 15.1667 30.2019C14.4151 30.2019 13.7917 29.5786 13.7917 28.8269C13.7917 24.7752 17.6967 21.4753 22.5001 21.4753C27.3034 21.4753 31.2084 24.7752 31.2084 28.8269C31.2084 29.5786 30.5851 30.2019 29.8334 30.2019Z" fill="white"/>
</svg>
