<svg width="52" height="52" viewBox="0 0 52 52" fill="none" xmlns="http://www.w3.org/2000/svg">
<mask id="path-1-outside-1_260_16465" maskUnits="userSpaceOnUse" x="-0.011043" y="0.158447" width="52.022" height="52" fill="black">
<rect fill="white" x="-0.011043" y="0.158447" width="52.022" height="52"/>
<path d="M29.5655 38.7019C29.3958 38.5679 29.1744 38.5192 28.9642 38.5696C28.0038 38.7996 27.0083 38.9162 26.0052 38.9162C18.9857 38.9162 13.2726 33.2012 13.2697 26.1767C13.2667 19.1521 18.9749 13.4371 25.9945 13.4371C26.9861 13.4371 27.9823 13.554 28.9554 13.7842C29.1652 13.8338 29.3864 13.7847 29.5555 13.6508C29.7247 13.5168 29.8232 13.3129 29.8231 13.097L29.8184 1.86461C29.8182 1.4746 29.5022 1.15845 29.1125 1.15845H22.866C22.5908 1.15845 22.3408 1.31854 22.2256 1.56863L20.0944 6.19326L16.0417 7.87221L11.2648 6.11175C11.0066 6.01642 10.7166 6.08028 10.522 6.27508L6.1063 10.6959C5.91182 10.8907 5.84824 11.1809 5.94351 11.4393L7.70469 16.2188L6.02859 20.2752L1.40824 22.4099C1.15839 22.5253 0.998521 22.7756 0.998638 23.051L1.00128 29.302C1.0014 29.5774 1.16158 29.8277 1.41143 29.9431L6.03358 32.0778L7.71312 36.1341L5.95597 40.9136C5.86092 41.1721 5.92475 41.4622 6.11939 41.657L10.5389 46.078C10.7336 46.2728 11.0239 46.3364 11.2818 46.2413L16.0571 44.4808L20.1113 46.1598L22.2464 50.7845C22.3619 51.0346 22.612 51.1947 22.8872 51.1947H29.1336C29.5233 51.1947 29.8391 50.8785 29.839 50.4885L29.8342 39.2562C29.8341 39.04 29.7352 38.8359 29.5655 38.7019ZM28.4275 49.7826H23.3382L21.2766 45.3172C21.2022 45.1559 21.0696 45.0286 20.9056 44.9607L16.3413 43.0705C16.1773 43.0026 15.9941 42.999 15.8275 43.0603L11.2171 44.7601L7.43623 40.9781L9.13286 36.3634C9.19408 36.1969 9.19038 36.0133 9.12246 35.8492L7.23173 31.2825C7.16372 31.1184 7.03644 30.9859 6.87532 30.9115L2.41237 28.8503L2.41011 23.5028L6.87132 21.4417C7.03248 21.3672 7.15954 21.2348 7.22741 21.0706L9.11428 16.5039C9.18206 16.3399 9.18561 16.1563 9.12425 15.9897L7.42371 11.3751L11.2013 7.59317L15.8132 9.2929C15.9799 9.35423 16.1633 9.3506 16.327 9.28271L20.8897 7.39252C21.0537 7.32463 21.186 7.19722 21.2604 7.03601L23.3182 2.57067H28.4075L28.4116 12.2323C27.6113 12.0944 26.8013 12.0247 25.994 12.0247C18.1963 12.0247 11.8552 18.3732 11.8585 26.1766C11.8618 33.9799 18.2084 40.3284 26.0059 40.3284C26.8198 40.3284 27.6295 40.2591 28.4234 40.122L28.4275 49.7826ZM47.9355 23.1113C46.4893 23.1113 45.2754 24.1197 44.9563 25.4705H15.4127C15.023 25.4705 14.7072 25.7867 14.7074 26.1767C14.7075 26.5667 15.0236 26.8828 15.4133 26.8828H44.957C45.2773 28.2336 46.4921 29.2419 47.9382 29.2419C49.6272 29.2419 51.0007 27.8668 51 26.1767C50.9992 24.4865 49.6245 23.1113 47.9355 23.1113ZM47.9375 27.8296C47.0267 27.8296 46.2853 27.088 46.285 26.1767C46.2846 25.2653 47.0253 24.5236 47.9361 24.5236C48.8469 24.5236 49.5882 25.2652 49.5886 26.1767C49.589 27.0881 48.8482 27.8296 47.9375 27.8296ZM17.1533 19.6484C16.7636 19.6484 16.4478 19.9646 16.4479 20.3546C16.4481 20.7446 16.7642 21.0607 17.1539 21.0607H33.2614C33.5043 21.0607 33.7301 20.9357 33.8591 20.7297L35.4565 18.1782H40.8184C41.1386 19.529 42.3534 20.5374 43.7995 20.5374C45.4885 20.5374 46.862 19.1623 46.8613 17.472C46.8606 15.7818 45.4859 14.4067 43.7969 14.4067C42.3508 14.4067 41.1369 15.4151 40.8178 16.7659H35.0655C34.8226 16.7659 34.5968 16.891 34.4678 17.097L32.8704 19.6484H17.1533ZM43.7975 15.8191C44.7083 15.8191 45.4496 16.5607 45.45 17.4721C45.4504 18.3836 44.7097 19.1252 43.7989 19.1252C42.8881 19.1252 42.1468 18.3836 42.1464 17.4721C42.146 16.5607 42.8867 15.8191 43.7975 15.8191ZM43.8043 31.8188C42.3584 31.8188 41.1446 32.8259 40.8253 34.175H35.4631L33.8635 31.6262C33.7344 31.4204 33.5085 31.2954 33.2657 31.2954H17.1582C16.7685 31.2954 16.4527 31.6116 16.4529 32.0016C16.453 32.3916 16.7691 32.7077 17.1588 32.7077H32.8761L34.4756 35.2566C34.6048 35.4624 34.8306 35.5874 35.0735 35.5874H40.8258C41.146 36.9381 42.3608 37.9464 43.8069 37.9464C45.4959 37.9464 46.8694 36.5713 46.8687 34.8812C46.868 33.191 45.4933 31.8188 43.8043 31.8188ZM43.8063 36.5342C42.8955 36.5342 42.1542 35.7926 42.1538 34.8813C42.1534 33.9699 42.8941 33.2312 43.8049 33.2312C44.7157 33.2312 45.457 33.9715 45.4574 34.8813C45.4578 35.7911 44.7171 36.5342 43.8063 36.5342ZM35.0641 13.4371H39.7761C40.1658 13.4371 40.4816 13.121 40.4814 12.731L40.4794 8.01556C40.4793 7.62556 40.1632 7.3094 39.7735 7.3094H35.0615C34.6718 7.3094 34.356 7.62556 34.3562 8.01556L34.3581 12.731C34.3583 13.121 34.6744 13.4371 35.0641 13.4371ZM35.7677 8.72172H39.0684L39.0698 12.0248H35.7691L35.7677 8.72172ZM39.7868 38.9163H35.0749C34.6851 38.9163 34.3694 39.2324 34.3695 39.6224L34.3715 44.3407C34.3717 44.7307 34.6877 45.0469 35.0775 45.0469H39.7894C40.1792 45.0469 40.4949 44.7307 40.4948 44.3407L40.4928 39.6224C40.4926 39.2324 40.1766 38.9163 39.7868 38.9163ZM39.0832 43.6345H35.7825L35.7811 40.3286H39.0818L39.0832 43.6345Z"/>
</mask>
<path d="M29.5655 38.7019C29.3958 38.5679 29.1744 38.5192 28.9642 38.5696C28.0038 38.7996 27.0083 38.9162 26.0052 38.9162C18.9857 38.9162 13.2726 33.2012 13.2697 26.1767C13.2667 19.1521 18.9749 13.4371 25.9945 13.4371C26.9861 13.4371 27.9823 13.554 28.9554 13.7842C29.1652 13.8338 29.3864 13.7847 29.5555 13.6508C29.7247 13.5168 29.8232 13.3129 29.8231 13.097L29.8184 1.86461C29.8182 1.4746 29.5022 1.15845 29.1125 1.15845H22.866C22.5908 1.15845 22.3408 1.31854 22.2256 1.56863L20.0944 6.19326L16.0417 7.87221L11.2648 6.11175C11.0066 6.01642 10.7166 6.08028 10.522 6.27508L6.1063 10.6959C5.91182 10.8907 5.84824 11.1809 5.94351 11.4393L7.70469 16.2188L6.02859 20.2752L1.40824 22.4099C1.15839 22.5253 0.998521 22.7756 0.998638 23.051L1.00128 29.302C1.0014 29.5774 1.16158 29.8277 1.41143 29.9431L6.03358 32.0778L7.71312 36.1341L5.95597 40.9136C5.86092 41.1721 5.92475 41.4622 6.11939 41.657L10.5389 46.078C10.7336 46.2728 11.0239 46.3364 11.2818 46.2413L16.0571 44.4808L20.1113 46.1598L22.2464 50.7845C22.3619 51.0346 22.612 51.1947 22.8872 51.1947H29.1336C29.5233 51.1947 29.8391 50.8785 29.839 50.4885L29.8342 39.2562C29.8341 39.04 29.7352 38.8359 29.5655 38.7019ZM28.4275 49.7826H23.3382L21.2766 45.3172C21.2022 45.1559 21.0696 45.0286 20.9056 44.9607L16.3413 43.0705C16.1773 43.0026 15.9941 42.999 15.8275 43.0603L11.2171 44.7601L7.43623 40.9781L9.13286 36.3634C9.19408 36.1969 9.19038 36.0133 9.12246 35.8492L7.23173 31.2825C7.16372 31.1184 7.03644 30.9859 6.87532 30.9115L2.41237 28.8503L2.41011 23.5028L6.87132 21.4417C7.03248 21.3672 7.15954 21.2348 7.22741 21.0706L9.11428 16.5039C9.18206 16.3399 9.18561 16.1563 9.12425 15.9897L7.42371 11.3751L11.2013 7.59317L15.8132 9.2929C15.9799 9.35423 16.1633 9.3506 16.327 9.28271L20.8897 7.39252C21.0537 7.32463 21.186 7.19722 21.2604 7.03601L23.3182 2.57067H28.4075L28.4116 12.2323C27.6113 12.0944 26.8013 12.0247 25.994 12.0247C18.1963 12.0247 11.8552 18.3732 11.8585 26.1766C11.8618 33.9799 18.2084 40.3284 26.0059 40.3284C26.8198 40.3284 27.6295 40.2591 28.4234 40.122L28.4275 49.7826ZM47.9355 23.1113C46.4893 23.1113 45.2754 24.1197 44.9563 25.4705H15.4127C15.023 25.4705 14.7072 25.7867 14.7074 26.1767C14.7075 26.5667 15.0236 26.8828 15.4133 26.8828H44.957C45.2773 28.2336 46.4921 29.2419 47.9382 29.2419C49.6272 29.2419 51.0007 27.8668 51 26.1767C50.9992 24.4865 49.6245 23.1113 47.9355 23.1113ZM47.9375 27.8296C47.0267 27.8296 46.2853 27.088 46.285 26.1767C46.2846 25.2653 47.0253 24.5236 47.9361 24.5236C48.8469 24.5236 49.5882 25.2652 49.5886 26.1767C49.589 27.0881 48.8482 27.8296 47.9375 27.8296ZM17.1533 19.6484C16.7636 19.6484 16.4478 19.9646 16.4479 20.3546C16.4481 20.7446 16.7642 21.0607 17.1539 21.0607H33.2614C33.5043 21.0607 33.7301 20.9357 33.8591 20.7297L35.4565 18.1782H40.8184C41.1386 19.529 42.3534 20.5374 43.7995 20.5374C45.4885 20.5374 46.862 19.1623 46.8613 17.472C46.8606 15.7818 45.4859 14.4067 43.7969 14.4067C42.3508 14.4067 41.1369 15.4151 40.8178 16.7659H35.0655C34.8226 16.7659 34.5968 16.891 34.4678 17.097L32.8704 19.6484H17.1533ZM43.7975 15.8191C44.7083 15.8191 45.4496 16.5607 45.45 17.4721C45.4504 18.3836 44.7097 19.1252 43.7989 19.1252C42.8881 19.1252 42.1468 18.3836 42.1464 17.4721C42.146 16.5607 42.8867 15.8191 43.7975 15.8191ZM43.8043 31.8188C42.3584 31.8188 41.1446 32.8259 40.8253 34.175H35.4631L33.8635 31.6262C33.7344 31.4204 33.5085 31.2954 33.2657 31.2954H17.1582C16.7685 31.2954 16.4527 31.6116 16.4529 32.0016C16.453 32.3916 16.7691 32.7077 17.1588 32.7077H32.8761L34.4756 35.2566C34.6048 35.4624 34.8306 35.5874 35.0735 35.5874H40.8258C41.146 36.9381 42.3608 37.9464 43.8069 37.9464C45.4959 37.9464 46.8694 36.5713 46.8687 34.8812C46.868 33.191 45.4933 31.8188 43.8043 31.8188ZM43.8063 36.5342C42.8955 36.5342 42.1542 35.7926 42.1538 34.8813C42.1534 33.9699 42.8941 33.2312 43.8049 33.2312C44.7157 33.2312 45.457 33.9715 45.4574 34.8813C45.4578 35.7911 44.7171 36.5342 43.8063 36.5342ZM35.0641 13.4371H39.7761C40.1658 13.4371 40.4816 13.121 40.4814 12.731L40.4794 8.01556C40.4793 7.62556 40.1632 7.3094 39.7735 7.3094H35.0615C34.6718 7.3094 34.356 7.62556 34.3562 8.01556L34.3581 12.731C34.3583 13.121 34.6744 13.4371 35.0641 13.4371ZM35.7677 8.72172H39.0684L39.0698 12.0248H35.7691L35.7677 8.72172ZM39.7868 38.9163H35.0749C34.6851 38.9163 34.3694 39.2324 34.3695 39.6224L34.3715 44.3407C34.3717 44.7307 34.6877 45.0469 35.0775 45.0469H39.7894C40.1792 45.0469 40.4949 44.7307 40.4948 44.3407L40.4928 39.6224C40.4926 39.2324 40.1766 38.9163 39.7868 38.9163ZM39.0832 43.6345H35.7825L35.7811 40.3286H39.0818L39.0832 43.6345Z" fill="#29903B"/>
<path d="M29.5655 38.7019C29.3958 38.5679 29.1744 38.5192 28.9642 38.5696C28.0038 38.7996 27.0083 38.9162 26.0052 38.9162C18.9857 38.9162 13.2726 33.2012 13.2697 26.1767C13.2667 19.1521 18.9749 13.4371 25.9945 13.4371C26.9861 13.4371 27.9823 13.554 28.9554 13.7842C29.1652 13.8338 29.3864 13.7847 29.5555 13.6508C29.7247 13.5168 29.8232 13.3129 29.8231 13.097L29.8184 1.86461C29.8182 1.4746 29.5022 1.15845 29.1125 1.15845H22.866C22.5908 1.15845 22.3408 1.31854 22.2256 1.56863L20.0944 6.19326L16.0417 7.87221L11.2648 6.11175C11.0066 6.01642 10.7166 6.08028 10.522 6.27508L6.1063 10.6959C5.91182 10.8907 5.84824 11.1809 5.94351 11.4393L7.70469 16.2188L6.02859 20.2752L1.40824 22.4099C1.15839 22.5253 0.998521 22.7756 0.998638 23.051L1.00128 29.302C1.0014 29.5774 1.16158 29.8277 1.41143 29.9431L6.03358 32.0778L7.71312 36.1341L5.95597 40.9136C5.86092 41.1721 5.92475 41.4622 6.11939 41.657L10.5389 46.078C10.7336 46.2728 11.0239 46.3364 11.2818 46.2413L16.0571 44.4808L20.1113 46.1598L22.2464 50.7845C22.3619 51.0346 22.612 51.1947 22.8872 51.1947H29.1336C29.5233 51.1947 29.8391 50.8785 29.839 50.4885L29.8342 39.2562C29.8341 39.04 29.7352 38.8359 29.5655 38.7019ZM28.4275 49.7826H23.3382L21.2766 45.3172C21.2022 45.1559 21.0696 45.0286 20.9056 44.9607L16.3413 43.0705C16.1773 43.0026 15.9941 42.999 15.8275 43.0603L11.2171 44.7601L7.43623 40.9781L9.13286 36.3634C9.19408 36.1969 9.19038 36.0133 9.12246 35.8492L7.23173 31.2825C7.16372 31.1184 7.03644 30.9859 6.87532 30.9115L2.41237 28.8503L2.41011 23.5028L6.87132 21.4417C7.03248 21.3672 7.15954 21.2348 7.22741 21.0706L9.11428 16.5039C9.18206 16.3399 9.18561 16.1563 9.12425 15.9897L7.42371 11.3751L11.2013 7.59317L15.8132 9.2929C15.9799 9.35423 16.1633 9.3506 16.327 9.28271L20.8897 7.39252C21.0537 7.32463 21.186 7.19722 21.2604 7.03601L23.3182 2.57067H28.4075L28.4116 12.2323C27.6113 12.0944 26.8013 12.0247 25.994 12.0247C18.1963 12.0247 11.8552 18.3732 11.8585 26.1766C11.8618 33.9799 18.2084 40.3284 26.0059 40.3284C26.8198 40.3284 27.6295 40.2591 28.4234 40.122L28.4275 49.7826ZM47.9355 23.1113C46.4893 23.1113 45.2754 24.1197 44.9563 25.4705H15.4127C15.023 25.4705 14.7072 25.7867 14.7074 26.1767C14.7075 26.5667 15.0236 26.8828 15.4133 26.8828H44.957C45.2773 28.2336 46.4921 29.2419 47.9382 29.2419C49.6272 29.2419 51.0007 27.8668 51 26.1767C50.9992 24.4865 49.6245 23.1113 47.9355 23.1113ZM47.9375 27.8296C47.0267 27.8296 46.2853 27.088 46.285 26.1767C46.2846 25.2653 47.0253 24.5236 47.9361 24.5236C48.8469 24.5236 49.5882 25.2652 49.5886 26.1767C49.589 27.0881 48.8482 27.8296 47.9375 27.8296ZM17.1533 19.6484C16.7636 19.6484 16.4478 19.9646 16.4479 20.3546C16.4481 20.7446 16.7642 21.0607 17.1539 21.0607H33.2614C33.5043 21.0607 33.7301 20.9357 33.8591 20.7297L35.4565 18.1782H40.8184C41.1386 19.529 42.3534 20.5374 43.7995 20.5374C45.4885 20.5374 46.862 19.1623 46.8613 17.472C46.8606 15.7818 45.4859 14.4067 43.7969 14.4067C42.3508 14.4067 41.1369 15.4151 40.8178 16.7659H35.0655C34.8226 16.7659 34.5968 16.891 34.4678 17.097L32.8704 19.6484H17.1533ZM43.7975 15.8191C44.7083 15.8191 45.4496 16.5607 45.45 17.4721C45.4504 18.3836 44.7097 19.1252 43.7989 19.1252C42.8881 19.1252 42.1468 18.3836 42.1464 17.4721C42.146 16.5607 42.8867 15.8191 43.7975 15.8191ZM43.8043 31.8188C42.3584 31.8188 41.1446 32.8259 40.8253 34.175H35.4631L33.8635 31.6262C33.7344 31.4204 33.5085 31.2954 33.2657 31.2954H17.1582C16.7685 31.2954 16.4527 31.6116 16.4529 32.0016C16.453 32.3916 16.7691 32.7077 17.1588 32.7077H32.8761L34.4756 35.2566C34.6048 35.4624 34.8306 35.5874 35.0735 35.5874H40.8258C41.146 36.9381 42.3608 37.9464 43.8069 37.9464C45.4959 37.9464 46.8694 36.5713 46.8687 34.8812C46.868 33.191 45.4933 31.8188 43.8043 31.8188ZM43.8063 36.5342C42.8955 36.5342 42.1542 35.7926 42.1538 34.8813C42.1534 33.9699 42.8941 33.2312 43.8049 33.2312C44.7157 33.2312 45.457 33.9715 45.4574 34.8813C45.4578 35.7911 44.7171 36.5342 43.8063 36.5342ZM35.0641 13.4371H39.7761C40.1658 13.4371 40.4816 13.121 40.4814 12.731L40.4794 8.01556C40.4793 7.62556 40.1632 7.3094 39.7735 7.3094H35.0615C34.6718 7.3094 34.356 7.62556 34.3562 8.01556L34.3581 12.731C34.3583 13.121 34.6744 13.4371 35.0641 13.4371ZM35.7677 8.72172H39.0684L39.0698 12.0248H35.7691L35.7677 8.72172ZM39.7868 38.9163H35.0749C34.6851 38.9163 34.3694 39.2324 34.3695 39.6224L34.3715 44.3407C34.3717 44.7307 34.6877 45.0469 35.0775 45.0469H39.7894C40.1792 45.0469 40.4949 44.7307 40.4948 44.3407L40.4928 39.6224C40.4926 39.2324 40.1766 38.9163 39.7868 38.9163ZM39.0832 43.6345H35.7825L35.7811 40.3286H39.0818L39.0832 43.6345Z" stroke="#29903B" stroke-width="0.6" mask="url(#path-1-outside-1_260_16465)"/>
</svg>
