<svg width="20" height="21" viewBox="0 0 20 21" fill="none" xmlns="http://www.w3.org/2000/svg">
<path d="M17.1996 0.623047H2.80035C1.25442 0.623047 0 1.87746 0 3.4234V17.8227C0 19.3686 1.25442 20.623 2.80035 20.623H17.1996C18.7456 20.623 20 19.3686 20 17.8227V3.4234C20 1.87746 18.7456 0.623047 17.1996 0.623047ZM6.79329 16.6213C6.79329 16.8421 6.61661 17.0276 6.39576 17.0276H4.39929C4.17845 17.0276 3.99293 16.8421 3.99293 16.6213V9.02411C3.99293 8.80326 4.17845 8.62658 4.39929 8.62658H6.39576C6.61661 8.62658 6.79329 8.80326 6.79329 9.02411V16.6213ZM5.39753 7.82269C4.39929 7.82269 3.59541 7.01881 3.59541 6.02057C3.59541 5.02234 4.39929 4.22729 5.39753 4.22729C6.39576 4.22729 7.19965 5.03117 7.19965 6.02057C7.19965 7.00997 6.39576 7.82269 5.39753 7.82269ZM16.2014 16.6213C16.2014 16.8421 16.0159 17.0276 15.7951 17.0276H14.0018C13.7809 17.0276 13.5954 16.8421 13.5954 16.6213V12.222C13.5336 11.692 13.1537 10.623 12.1996 10.623C11.2456 10.623 10.6625 11.8245 10.6007 12.222V16.6213C10.6007 16.8421 10.4152 17.0276 10.1943 17.0276H8.40106C8.18021 17.0276 7.9947 16.8421 7.9947 16.6213V9.02411C7.9947 8.80326 8.18021 8.62658 8.40106 8.62658H10.1943C10.4152 8.62658 10.6007 8.80326 10.6007 9.02411V9.42163C11.3958 8.4234 12.8622 8.35273 13.5954 8.4234C15.8834 8.63541 16.2633 10.9587 16.2014 12.222V16.6213Z" fill="white"/>
</svg>
