<svg width="32" height="32" viewBox="0 0 32 32" fill="none" xmlns="http://www.w3.org/2000/svg">
<path d="M9.17334 25.2004C8.62667 25.2004 8.17334 24.7471 8.17334 24.2004V21.4404C8.17334 20.8938 8.62667 20.4404 9.17334 20.4404C9.72001 20.4404 10.1733 20.8938 10.1733 21.4404V24.2004C10.1733 24.7604 9.72001 25.2004 9.17334 25.2004Z" fill="#33B44A"/>
<path d="M16 25.2003C15.4533 25.2003 15 24.747 15 24.2003V18.667C15 18.1203 15.4533 17.667 16 17.667C16.5467 17.667 17 18.1203 17 18.667V24.2003C17 24.7603 16.5467 25.2003 16 25.2003Z" fill="#33B44A"/>
<path d="M22.8267 25.1996C22.28 25.1996 21.8267 24.7462 21.8267 24.1996V15.9062C21.8267 15.3596 22.28 14.9062 22.8267 14.9062C23.3733 14.9062 23.8267 15.3596 23.8267 15.9062V24.1996C23.8267 24.7596 23.3867 25.1996 22.8267 25.1996Z" fill="#33B44A"/>
<path d="M9.17282 17.5729C8.71949 17.5729 8.31949 17.2662 8.19949 16.8129C8.06615 16.2796 8.38615 15.7329 8.93282 15.5996C13.8395 14.3729 18.1595 11.6929 21.4528 7.86623L22.0662 7.14623C22.4262 6.7329 23.0528 6.67957 23.4795 7.03957C23.8928 7.39957 23.9462 8.02623 23.5862 8.4529L22.9728 9.1729C19.4128 13.3329 14.7195 16.2262 9.41282 17.5462C9.33282 17.5729 9.25282 17.5729 9.17282 17.5729Z" fill="#33B44A"/>
<path d="M22.8272 12.6931C22.2805 12.6931 21.8272 12.2398 21.8272 11.6931V8.7998H18.9205C18.3739 8.7998 17.9205 8.34647 17.9205 7.7998C17.9205 7.25314 18.3739 6.7998 18.9205 6.7998H22.8272C23.3739 6.7998 23.8272 7.25314 23.8272 7.7998V11.7065C23.8272 12.2531 23.3872 12.6931 22.8272 12.6931Z" fill="#33B44A"/>
<path d="M20 30.3337H12C4.75996 30.3337 1.66663 27.2403 1.66663 20.0003V12.0003C1.66663 4.76033 4.75996 1.66699 12 1.66699H20C27.24 1.66699 30.3333 4.76033 30.3333 12.0003V20.0003C30.3333 27.2403 27.24 30.3337 20 30.3337ZM12 3.66699C5.85329 3.66699 3.66663 5.85366 3.66663 12.0003V20.0003C3.66663 26.147 5.85329 28.3337 12 28.3337H20C26.1466 28.3337 28.3333 26.147 28.3333 20.0003V12.0003C28.3333 5.85366 26.1466 3.66699 20 3.66699H12Z" fill="#33B44A"/>
</svg>
